<svg xmlns="http://www.w3.org/2000/svg" viewBox="0 0 185.5 284"><title>170627chartonly</title><g id="Overlays-1"><rect x="45.45" y="131.5" width="27" height="13.5" style="fill:#00a551"/><rect x="45.45" y="212.5" width="27" height="13.5" style="fill:#d7d7d7"/><rect x="45.45" y="199" width="27" height="13.5" style="fill:#d7d7d7"/><rect x="45.45" y="185.5" width="27" height="13.5" style="fill:#d7d7d7"/><rect x="45.45" y="226" width="27" height="13.5" style="fill:#d7d7d7"/><rect x="45.46" y="158.51" width="26.99" height="26.99" transform="translate(117.91 344.01) rotate(180)" style="fill:#ec1c24"/><rect x="45.45" y="91" width="27" height="13.5" style="fill:#c3996b"/><rect x="45.45" y="77.5" width="27" height="13.5" style="fill:#c3996b"/><rect x="45.45" y="64" width="27" height="13.5" style="fill:#eb008b"/><rect x="45.45" y="50.5" width="27" height="13.5" style="fill:#eb008b"/><rect x="45.45" y="37" width="27" height="13.5" style="fill:#eb008b"/><rect x="45.45" y="23.5" width="27" height="13.5" style="fill:#eb008b"/><rect x="45.45" y="118" width="27" height="13.5" style="fill:#00adee"/><rect x="45.45" y="104.5" width="27" height="13.5" style="fill:#00adee"/><rect x="45.45" y="145" width="27" height="13.5" transform="translate(117.91 303.5) rotate(180)" style="fill:#fff100"/><line x1="45.45" y1="77.5" x2="81.45" y2="77.5" style="fill:none;stroke:#929497;stroke-miterlimit:10;stroke-width:0.5px"/><line x1="45.45" y1="104.5" x2="81.45" y2="104.5" style="fill:none;stroke:#929497;stroke-miterlimit:10;stroke-width:0.5px"/><line x1="45.45" y1="131.5" x2="81.45" y2="131.5" style="fill:none;stroke:#929497;stroke-miterlimit:10;stroke-width:0.5px"/><line x1="45.45" y1="145" x2="81.45" y2="145" style="fill:none;stroke:#929497;stroke-miterlimit:10;stroke-width:0.5px"/><line x1="45.45" y1="185.5" x2="81.45" y2="185.5" style="fill:none;stroke:#929497;stroke-miterlimit:10;stroke-width:0.5px"/><line x1="45.45" y1="239.5" x2="81.45" y2="239.5" style="fill:none;stroke:#929497;stroke-miterlimit:10;stroke-width:0.5px"/><text transform="translate(76.95 73)" style="font-size:4.5px;fill:#231f20;font-family:LetterGothicStd-Slanted, Letter Gothic Std">Russian</text><text transform="translate(76.95 100)" style="font-size:4.5px;fill:#231f20;font-family:LetterGothicStd-Slanted, Letter Gothic Std">Patois</text><text transform="translate(76.95 127)" style="font-size:4.5px;fill:#231f20;font-family:LetterGothicStd-Slanted, Letter Gothic Std">Polish</text><text transform="translate(76.95 140.5)" style="font-size:4.5px;fill:#231f20;font-family:LetterGothicStd-Slanted, Letter Gothic Std">Arabic</text><text transform="translate(76.95 154)" style="font-size:4.5px;fill:#231f20;font-family:LetterGothicStd-Slanted, Letter Gothic Std">Spanish</text><text transform="translate(76.95 176.53)" style="font-size:4.5px;fill:#231f20;font-family:LetterGothicStd-Slanted, Letter Gothic Std">Chinese</text><text transform="translate(76.95 235)" style="font-size:4.5px;fill:#231f20;font-family:LetterGothicStd-Slanted, Letter Gothic Std">English (General American Dialect)</text><line x1="45.45" y1="158.5" x2="81.45" y2="158.5" style="fill:none;stroke:#929497;stroke-miterlimit:10;stroke-width:0.5px"/></g></svg>