<svg xmlns="http://www.w3.org/2000/svg" xmlns:xlink="http://www.w3.org/1999/xlink" viewBox="0 0 792 612"><defs><clipPath id="clip-path"><path d="M345.25,210.48l-10.7-6.18v-1.54l4.81-2.77v-11.4l21.93-12.66-4.38-2.46-61.13-30.88-105,60.77,6.73,3.38v31.13L161.78,220l-105,60.77,6.73,3.38v57.4l-.38-.22V346l.38.11,1.5-.87,7,4L67.51,352v2.46L99.6,373l6.69-3.86,10.7,6.18V377l.59.34,29.5-17c1.94,2.86,5.35,1.41,7.47-.28a15,15,0,0,0,4.84-6.83l52.46-30.29v-4.63l-.58-.34V287.84l-10.7-6.18v-1.54l3.11-1.8,29.92,17.27,6.69-3.86,10.7,6.18v1.74l.59.34,37.29-21.53-7.8,4.5c1.93,2.86,5.35,1.41,7.47-.28a15,15,0,0,0,4.84-6.83l52.46-30.29v-4.63l-.58-.34Z" style="fill:#f2f2f2"/></clipPath><clipPath id="clip-path-2"><path d="M631.54,359.7l40.17,23.19.59-.34v-1.74L715,356.16l.08-2.94V323.11l10.7-6.18V286.72l4-2.16-105-60.63-20,10.05v-45.1l-109.08-65.8L462.5,106.74l-78.61,45.38L375,175.93,354.11,188v20.47l-.13,2,12.54,7.64,9.48-5.45.16.16c-2.11,4-.67,9.89.72,13.27,2.17,5.29,4.89,9.26,10,12.22,2.93,1.69,6.38,2.34,8.84.54l3.36-1.94,83.84,48.45,9.43-5.5h0c-2.15,4-.69,9.94.71,13.36,2.17,5.27,4.89,9.23,10,12.18,3.89,2.25,8.73,2.66,10.9-2.11l13.46,7.77L578,281.88v11.51l-4,2.32-.95,1.08-.43,1.25.22,1,.47,1.16,1.15,1.19,1.18.92,2.36,1.43V323.5l-.58.34v4.63l41.76,24.11a15.15,15.15,0,0,0,4.69,6.71c2,1.62,5.29,3.24,7.4.74" style="fill:#f2f2f2"/></clipPath></defs><title>foodtrucks</title><g style="isolation:isolate"><g id="trucks"><g id="floor"><path d="M215.18,185.38c-34.11,19.53-32.59,32.13-55,42.29-30.45,13.82-46.31-3.56-77.18,7.18C43.52,248.6,30.19,290.7,25.12,306.68c-2.75,8.68-23,72.56,18.33,110.12,29,26.35,58.78,13,134.1,34.31,84.9,24.07,77.16,49.62,140.85,63,55.64,11.72,61.9-7.7,205.49-21.55,91.38-8.81,115.44-3.51,165.94-22.34,23.53-8.77,89.58-33.41,93.58-74.21,2-20.81-12.73-39-23.15-51.87-13.6-16.77-25-22.29-63.67-47.88-44.53-29.47-66.8-44.2-77.18-55.86-32.48-36.47-80.31-65.51-169.8-64.64-33.75.33-51.78.39-76.22-4.79-27.3-5.79-32-11.63-55-12.77-28.94-1.43-53,6.24-65.6,10.37A205.42,205.42,0,0,0,215.18,185.38Z" style="opacity:0.1;mix-blend-mode:luminosity"/><path d="M217.18,179.58c-34.11,19.53-32.59,32.13-55,42.29-30.45,13.82-46.31-3.56-77.18,7.18C45.52,242.8,32.19,284.9,27.12,300.88c-2.75,8.68-23,72.56,18.33,110.12,29,26.35,58.78,13,134.1,34.31,84.9,24.07,77.16,49.62,140.85,63,55.64,11.72,61.9-7.7,205.49-21.55,91.38-8.81,115.44-3.51,165.94-22.34,23.53-8.77,89.58-33.41,93.58-74.21,2-20.81-12.73-39-23.15-51.87-13.6-16.77-25-22.29-63.67-47.88-44.53-29.47-66.8-44.2-77.18-55.86-32.48-36.47-80.31-65.51-169.8-64.64-33.75.33-51.78.39-76.22-4.79-27.3-5.79-32-11.63-55-12.77-28.94-1.43-53,6.24-65.6,10.37A205.42,205.42,0,0,0,217.18,179.58Z" style="opacity:0.1;mix-blend-mode:luminosity"/></g><g id="FILL"><g id="left"><path d="M345.25,210.48l-10.7-6.18v-1.54l4.81-2.77v-11.4l21.93-12.66-4.38-2.46-61.13-30.88-105,60.77,6.73,3.38v31.13L161.78,220l-105,60.77,6.73,3.38v57.4l-.38-.22V346l.38.11,1.5-.87,7,4L67.51,352v2.46L99.6,373l6.69-3.86,10.7,6.18V377l.59.34,29.5-17c1.94,2.86,5.35,1.41,7.47-.28a15,15,0,0,0,4.84-6.83l52.46-30.29v-4.63l-.58-.34V287.84l-10.7-6.18v-1.54l3.11-1.8,29.92,17.27,6.69-3.86,10.7,6.18v1.74l.59.34,37.29-21.53-7.8,4.5c1.93,2.86,5.35,1.41,7.47-.28a15,15,0,0,0,4.84-6.83l52.46-30.29v-4.63l-.58-.34Z" style="fill:#f2f2f2"/><g style="clip-path:url(#clip-path)"><path d="M215.18,99.16c-34.11,26.94-32.59,44.32-55,58.34-30.45,19.06-46.31-4.91-77.18,9.91-39.49,19-52.82,77-57.89,99.07-2.75,12-23,100.09,18.33,151.91,29,36.35,58.78,17.88,134.1,47.34,84.9,33.2,77.16,68.45,140.85,87C374,568.87,380.31,542.08,523.9,523c91.38-12.16,115.44-4.85,165.94-30.82,23.53-12.1,89.58-46.09,93.58-102.38,2-28.71-12.73-53.83-23.15-71.55-13.6-23.14-25-30.75-63.67-66-44.53-40.65-66.8-61-77.18-77.06C586.93,124.81,539.1,84.76,449.62,86c-33.75.45-51.78.54-76.22-6.6-27.3-8-32-16-55-17.61-28.94-2-53,8.61-65.6,14.31A182.52,182.52,0,0,0,215.18,99.16Z" style="fill:#f2f2f2"/></g></g><g id="right"><path d="M631.54,359.7l40.17,23.19.59-.34v-1.74L715,356.16l.08-2.94V323.11l10.7-6.18V286.72l4-2.16-105-60.63-20,10.05v-45.1l-109.08-65.8L462.5,106.74l-78.61,45.38L375,175.93,354.11,188v20.47l-.13,2,12.54,7.64,9.48-5.45.16.16c-2.11,4-.67,9.89.72,13.27,2.17,5.29,4.89,9.26,10,12.22,2.93,1.69,6.38,2.34,8.84.54l3.36-1.94,83.84,48.45,9.43-5.5h0c-2.15,4-.69,9.94.71,13.36,2.17,5.27,4.89,9.23,10,12.18,3.89,2.25,8.73,2.66,10.9-2.11l13.46,7.77L578,281.88v11.51l-4,2.32-.95,1.08-.43,1.25.22,1,.47,1.16,1.15,1.19,1.18.92,2.36,1.43V323.5l-.58.34v4.63l41.76,24.11a15.15,15.15,0,0,0,4.69,6.71c2,1.62,5.29,3.24,7.4.74" style="fill:#f2f2f2"/><g style="clip-path:url(#clip-path-2)"><path d="M217.18,91.16c-34.11,26.94-32.59,44.32-55,58.34-30.45,19.06-46.31-4.91-77.18,9.91-39.49,19-52.82,77-57.89,99.07-2.75,12-23,100.09,18.33,151.91,29,36.35,58.78,17.88,134.1,47.34,84.9,33.2,77.16,68.45,140.85,87C376,560.87,382.31,534.08,525.9,515c91.38-12.16,115.44-4.85,165.94-30.82,23.53-12.1,89.58-46.09,93.58-102.38,2-28.71-12.73-53.83-23.15-71.55-13.6-23.14-25-30.75-63.67-66-44.53-40.65-66.8-61-77.18-77.06C588.93,116.81,541.1,76.76,451.62,78c-33.75.45-51.78.54-76.22-6.6-27.3-8-32-16-55-17.61-28.94-2-53,8.61-65.6,14.31A182.52,182.52,0,0,0,217.18,91.16Z" style="fill:#f2f2f2"/></g></g></g><g id="shell"><path d="M498.43,280.56a18.25,18.25,0,0,0-3.49-2" style="fill:none;stroke:#000;stroke-linecap:round;stroke-linejoin:round;stroke-width:0.5px"/><path d="M494.84,278.51l-.07,0" style="fill:none;stroke:#000;stroke-linecap:round;stroke-linejoin:round;stroke-width:0.5px"/><path d="M494,278.2l-.6-.2" style="fill:none;stroke:#000;stroke-linecap:round;stroke-linejoin:round;stroke-width:0.5px"/><path d="M493.15,277.92l-.6-.15" style="fill:none;stroke:#000;stroke-linecap:round;stroke-linejoin:round;stroke-width:0.5px"/><path d="M487.37,278.2l-.07,0" style="fill:none;stroke:#000;stroke-linecap:round;stroke-linejoin:round;stroke-width:0.5px"/><path d="M487.09,278.34h0" style="fill:none;stroke:#000;stroke-linecap:round;stroke-linejoin:round;stroke-width:0.5px"/><path d="M486.81,278.49l-.2.13" style="fill:none;stroke:#000;stroke-linecap:round;stroke-linejoin:round;stroke-width:0.5px"/><path d="M486.55,278.66a6.68,6.68,0,0,0-.75.57" style="fill:none;stroke:#000;stroke-linecap:round;stroke-linejoin:round;stroke-width:0.5px"/><path d="M417.26,247.42l-19.89-11.48-2.49-1.44c-1-.58-1-1.47-1.14-2.39a29.14,29.14,0,0,0-2-6.35,30.26,30.26,0,0,0-8.25-11.31c-2.75-2.34-6.91-4.82-10.93-4a6.32,6.32,0,0,0-4.14,2.64,8.84,8.84,0,0,0-1.23,2.34,11.57,11.57,0,0,0-.39,1.33q-.08.35-.14.69c0,.23.28.91-.12.68l-11.67-6.74c-1.33-.77-.74-1.87-.74-2.94V190.91c0-.6-.52-2.9.59-3l2.82-.15,11.29-.61c.92,0,1.86.23,2.3-1l1.08-2.88,2.16-5.76,4.31-11.51,3.91-10.45,1-2.61c.15-.4.23-.94.8-.66l1.46.72,5.83,2.87,23.3,11.47c7.43,3.66,14.2,8.33,21.24,12.58l21.25,12.82,42.39,25.57,21.29,12.84,2.66,1.6c.27.16,2.38,1.25,2.38,1.76v67.95" style="fill:none;stroke:#000;stroke-linecap:round;stroke-linejoin:round;stroke-width:0.5px"/><line x1="434.18" y1="214.24" x2="434.18" y2="222.71" style="fill:none;stroke:#000;stroke-linecap:round;stroke-linejoin:round;stroke-width:0.5px"/><line x1="434.18" y1="222.71" x2="442.08" y2="227.28" style="fill:none;stroke:#000;stroke-linecap:round;stroke-linejoin:round;stroke-width:0.5px"/><line x1="463.8" y1="239.82" x2="442.08" y2="227.28" style="fill:none;stroke:#000;stroke-linecap:round;stroke-linejoin:round;stroke-width:0.5px"/><line x1="463.8" y1="239.82" x2="511.72" y2="267.48" style="fill:none;stroke:#000;stroke-linecap:round;stroke-linejoin:round;stroke-width:0.5px"/><line x1="511.72" y1="267.48" x2="511.72" y2="244.4" style="fill:none;stroke:#000;stroke-linecap:round;stroke-linejoin:round;stroke-width:0.5px"/><line x1="511.72" y1="244.4" x2="511.72" y2="242.24" style="fill:none;stroke:#000;stroke-linecap:round;stroke-linejoin:round;stroke-width:0.5px"/><path d="M502.46,284.22l-.09-.1" style="fill:none;stroke:#000;stroke-linecap:round;stroke-linejoin:round;stroke-width:0.5px"/><line x1="488.08" y1="277.91" x2="485.8" y2="279.23" style="fill:none;stroke:#000;stroke-linecap:round;stroke-linejoin:round;stroke-width:0.5px"/><line x1="572.03" y1="276.03" x2="526.15" y2="302.53" style="fill:none;stroke:#000;stroke-linecap:round;stroke-linejoin:round;stroke-width:0.5px"/><line x1="604.76" y1="188.87" x2="604.76" y2="233.98" style="fill:none;stroke:#000;stroke-linecap:round;stroke-linejoin:round;stroke-width:0.5px"/><line x1="417.26" y1="239.66" x2="485.8" y2="279.23" style="fill:none;stroke:#000;stroke-linecap:round;stroke-linejoin:round;stroke-width:0.5px"/><line x1="417.26" y1="247.46" x2="417.26" y2="239.66" style="fill:none;stroke:#000;stroke-linecap:round;stroke-linejoin:round;stroke-width:0.5px"/><line x1="482.94" y1="285.38" x2="417.26" y2="247.46" style="fill:none;stroke:#000;stroke-linecap:round;stroke-linejoin:round;stroke-width:0.5px"/><path d="M484,281.68a10.49,10.49,0,0,0-.7,1.92" style="fill:none;stroke:#000;stroke-linecap:round;stroke-linejoin:round;stroke-width:0.5px"/><path d="M485.8,279.23a7.4,7.4,0,0,0-1.56,2" style="fill:none;stroke:#000;stroke-linecap:round;stroke-linejoin:round;stroke-width:0.5px"/><line x1="527.44" y1="311.08" x2="510.42" y2="301.25" style="fill:none;stroke:#000;stroke-linecap:round;stroke-linejoin:round;stroke-width:0.5px"/><line x1="374.98" y1="175.93" x2="354.11" y2="187.98" style="fill:none;stroke:#000;stroke-linecap:round;stroke-linejoin:round;stroke-width:0.5px"/><line x1="376.39" y1="212.45" x2="366.54" y2="218.14" style="fill:none;stroke:#000;stroke-linecap:round;stroke-linejoin:round;stroke-width:0.5px"/><line x1="492.37" y1="279.94" x2="482.94" y2="285.38" style="fill:none;stroke:#000;stroke-linecap:round;stroke-linejoin:round;stroke-width:0.5px"/><line x1="573.33" y1="276.78" x2="527.44" y2="303.27" style="fill:none;stroke:#000;stroke-linecap:round;stroke-linejoin:round;stroke-width:0.5px"/><line x1="527.44" y1="311.08" x2="578.02" y2="281.88" style="fill:none;stroke:#000;stroke-linecap:round;stroke-linejoin:round;stroke-width:0.5px"/><line x1="511.72" y1="244.4" x2="499.07" y2="251.7" style="fill:none;stroke:#000;stroke-linecap:round;stroke-linejoin:round;stroke-width:0.5px"/><line x1="499.07" y1="251.7" x2="421.54" y2="206.94" style="fill:none;stroke:#000;stroke-linecap:round;stroke-linejoin:round;stroke-width:0.5px"/><line x1="499.07" y1="249.54" x2="421.54" y2="204.78" style="fill:none;stroke:#000;stroke-linecap:round;stroke-linejoin:round;stroke-width:0.5px"/><line x1="421.54" y1="204.78" x2="434.18" y2="195.09" style="fill:none;stroke:#000;stroke-linecap:round;stroke-linejoin:round;stroke-width:0.5px"/><line x1="434.18" y1="195.09" x2="511.72" y2="239.85" style="fill:none;stroke:#000;stroke-linecap:round;stroke-linejoin:round;stroke-width:0.5px"/><line x1="511.72" y1="239.85" x2="499.07" y2="249.54" style="fill:none;stroke:#000;stroke-linecap:round;stroke-linejoin:round;stroke-width:0.5px"/><line x1="511.72" y1="239.85" x2="511.72" y2="242.24" style="fill:none;stroke:#000;stroke-linecap:round;stroke-linejoin:round;stroke-width:0.5px"/><line x1="499.07" y1="251.7" x2="499.07" y2="249.54" style="fill:none;stroke:#000;stroke-linecap:round;stroke-linejoin:round;stroke-width:0.5px"/><line x1="421.54" y1="204.78" x2="421.54" y2="206.94" style="fill:none;stroke:#000;stroke-linecap:round;stroke-linejoin:round;stroke-width:0.5px"/><path d="M483.28,283.6a13.4,13.4,0,0,0-.34,1.78" style="fill:none;stroke:#000;stroke-linecap:round;stroke-linejoin:round;stroke-width:0.5px"/><path d="M484.24,281.18q-.14.25-.26.5" style="fill:none;stroke:#000;stroke-linecap:round;stroke-linejoin:round;stroke-width:0.5px"/><path d="M486.61,278.62l-.06,0" style="fill:none;stroke:#000;stroke-linecap:round;stroke-linejoin:round;stroke-width:0.5px"/><path d="M487.07,278.35l-.26.14" style="fill:none;stroke:#000;stroke-linecap:round;stroke-linejoin:round;stroke-width:0.5px"/><path d="M487.31,278.23l-.22.11" style="fill:none;stroke:#000;stroke-linecap:round;stroke-linejoin:round;stroke-width:0.5px"/><path d="M492.55,277.77a7.58,7.58,0,0,0-5.18.43" style="fill:none;stroke:#000;stroke-linecap:round;stroke-linejoin:round;stroke-width:0.5px"/><line x1="527.44" y1="303.27" x2="527.44" y2="311.08" style="fill:none;stroke:#000;stroke-linecap:round;stroke-linejoin:round;stroke-width:0.5px"/><line x1="507.56" y1="291.79" x2="527.44" y2="303.27" style="fill:none;stroke:#000;stroke-linecap:round;stroke-linejoin:round;stroke-width:0.5px"/><path d="M510.42,301.25q-.11-1-.3-2" style="fill:none;stroke:#000;stroke-linecap:round;stroke-linejoin:round;stroke-width:0.5px"/><path d="M493.45,278l-.3-.09" style="fill:none;stroke:#000;stroke-linecap:round;stroke-linejoin:round;stroke-width:0.5px"/><path d="M494.77,278.48l-.73-.28" style="fill:none;stroke:#000;stroke-linecap:round;stroke-linejoin:round;stroke-width:0.5px"/><path d="M494.93,278.55l-.09,0" style="fill:none;stroke:#000;stroke-linecap:round;stroke-linejoin:round;stroke-width:0.5px"/><path d="M502.36,284.12a25.72,25.72,0,0,0-3.94-3.55" style="fill:none;stroke:#000;stroke-linecap:round;stroke-linejoin:round;stroke-width:0.5px"/><path d="M510.12,299.26a30,30,0,0,0-7.66-15" style="fill:none;stroke:#000;stroke-linecap:round;stroke-linejoin:round;stroke-width:0.5px"/><line x1="572.86" y1="299.05" x2="572.86" y2="298.03" style="fill:none;stroke:#000;stroke-linecap:round;stroke-linejoin:round;stroke-width:0.5px"/><line x1="148.21" y1="361.42" x2="146.69" y2="360.54" style="fill:none;stroke:#000;stroke-linecap:round;stroke-linejoin:round;stroke-width:0.5px"/><line x1="202.38" y1="300.59" x2="202.38" y2="301.61" style="fill:none;stroke:#000;stroke-linecap:round;stroke-linejoin:round;stroke-width:0.5px"/><line x1="631.91" y1="359.92" x2="630.39" y2="360.8" style="fill:none;stroke:#000;stroke-linecap:round;stroke-linejoin:round;stroke-width:0.5px"/><line x1="336.37" y1="223.23" x2="336.37" y2="224.25" style="fill:none;stroke:#000;stroke-linecap:round;stroke-linejoin:round;stroke-width:0.5px"/><line x1="180.09" y1="298.7" x2="180.6" y2="299.37" style="fill:none;stroke:#000;stroke-linecap:round;stroke-linejoin:round;stroke-width:0.5px"/><line x1="180.6" y1="299.37" x2="180.6" y2="291.65" style="fill:none;stroke:#000;stroke-linecap:round;stroke-linejoin:round;stroke-width:0.5px"/><line x1="197.34" y1="289.7" x2="197.34" y2="281.98" style="fill:none;stroke:#000;stroke-linecap:round;stroke-linejoin:round;stroke-width:0.5px"/><line x1="180.6" y1="299.37" x2="197.34" y2="289.7" style="fill:none;stroke:#000;stroke-linecap:round;stroke-linejoin:round;stroke-width:0.5px"/><line x1="197.34" y1="295.88" x2="182.69" y2="304.36" style="fill:none;stroke:#000;stroke-linecap:round;stroke-linejoin:round;stroke-width:0.5px"/><line x1="180.91" y1="305.39" x2="180.92" y2="299.18" style="fill:none;stroke:#000;stroke-linecap:round;stroke-linejoin:round;stroke-width:0.5px"/><line x1="197.34" y1="289.7" x2="197.34" y2="295.88" style="fill:none;stroke:#000;stroke-linecap:round;stroke-linejoin:round;stroke-width:0.5px"/><line x1="133.29" y1="332.87" x2="166.64" y2="313.61" style="fill:none;stroke:#000;stroke-linecap:round;stroke-linejoin:round;stroke-width:0.5px"/><line x1="166.64" y1="313.61" x2="166.21" y2="313.37" style="fill:none;stroke:#000;stroke-linecap:round;stroke-linejoin:round;stroke-width:0.5px"/><line x1="604.09" y1="308.45" x2="604.46" y2="308.66" style="fill:none;stroke:#000;stroke-linecap:round;stroke-linejoin:round;stroke-width:0.5px"/><line x1="599.91" y1="306.03" x2="604.08" y2="308.45" style="fill:none;stroke:#000;stroke-linecap:round;stroke-linejoin:round;stroke-width:0.5px"/><line x1="594.31" y1="302.8" x2="596.99" y2="304.35" style="fill:none;stroke:#000;stroke-linecap:round;stroke-linejoin:round;stroke-width:0.5px"/><line x1="658.25" y1="339.71" x2="658.22" y2="339.72" style="fill:none;stroke:#000;stroke-linecap:round;stroke-linejoin:round;stroke-width:0.5px"/><line x1="314.9" y1="228.03" x2="319.2" y2="225.55" style="fill:none;stroke:#000;stroke-linecap:round;stroke-linejoin:round;stroke-width:0.5px"/><line x1="331.21" y1="218.59" x2="331.23" y2="218.6" style="fill:none;stroke:#000;stroke-linecap:round;stroke-linejoin:round;stroke-width:0.5px"/><line x1="180.91" y1="305.39" x2="185.2" y2="302.91" style="fill:none;stroke:#000;stroke-linecap:round;stroke-linejoin:round;stroke-width:0.5px"/><line x1="197.22" y1="295.95" x2="197.24" y2="295.96" style="fill:none;stroke:#000;stroke-linecap:round;stroke-linejoin:round;stroke-width:0.5px"/><line x1="165.79" y1="313.13" x2="165.63" y2="313.03" style="fill:none;stroke:#000;stroke-linecap:round;stroke-linejoin:round;stroke-width:0.5px"/><line x1="165.63" y1="313.03" x2="165.08" y2="313.35" style="fill:none;stroke:#000;stroke-linecap:round;stroke-linejoin:round;stroke-width:0.5px"/><line x1="145.86" y1="324.44" x2="133.29" y2="331.7" style="fill:none;stroke:#000;stroke-linecap:round;stroke-linejoin:round;stroke-width:0.5px"/><path d="M179.37,299.11l.71-.41" style="fill:none;stroke:#000;stroke-linecap:round;stroke-linejoin:round;stroke-width:0.5px"/><line x1="180.09" y1="298.7" x2="180.09" y2="291.94" style="fill:none;stroke:#000;stroke-linecap:round;stroke-linejoin:round;stroke-width:0.5px"/><line x1="179.37" y1="292.36" x2="179.37" y2="299.11" style="fill:none;stroke:#000;stroke-linecap:round;stroke-linejoin:round;stroke-width:0.5px"/><line x1="116.99" y1="342.27" x2="116.99" y2="343.37" style="fill:none;stroke:#000;stroke-linecap:round;stroke-linejoin:round;stroke-width:0.5px"/><line x1="116.99" y1="342.27" x2="197.24" y2="295.96" style="fill:none;stroke:#000;stroke-linecap:round;stroke-linejoin:round;stroke-width:0.5px"/><line x1="121" y1="344.59" x2="121" y2="345.68" style="fill:none;stroke:#000;stroke-linecap:round;stroke-linejoin:round;stroke-width:0.5px"/><line x1="121" y1="345.68" x2="116.99" y2="343.37" style="fill:none;stroke:#000;stroke-linecap:round;stroke-linejoin:round;stroke-width:0.5px"/><line x1="121" y1="344.59" x2="116.99" y2="342.27" style="fill:none;stroke:#000;stroke-linecap:round;stroke-linejoin:round;stroke-width:0.5px"/><path d="M202.38,301.61c0,2.42-7.72,6.18-9,6.93l-10.2,5.89-20.4,11.78L142.36,338l-10.2,5.89c-3.67,2.12-6.76,3.45-11.16,1.81" style="fill:none;stroke:#000;stroke-linecap:round;stroke-linejoin:round;stroke-width:0.5px"/><path d="M201.23,298.27c4.4,3.94-2.92,6.32-5.91,8l-10.48,6.05-21,12.1-21,12.1-10.48,6.05c-3.75,2.17-6.9,3.67-11.44,2" style="fill:none;stroke:#000;stroke-linecap:round;stroke-linejoin:round;stroke-width:0.5px"/><line x1="197.24" y1="295.96" x2="201.23" y2="298.27" style="fill:none;stroke:#000;stroke-linecap:round;stroke-linejoin:round;stroke-width:0.5px"/><line x1="167.12" y1="307.49" x2="180.28" y2="299.89" style="fill:none;stroke:#000;stroke-linecap:round;stroke-linejoin:round;stroke-width:0.5px"/><line x1="180.28" y1="299.89" x2="180.2" y2="305.68" style="fill:none;stroke:#000;stroke-linecap:round;stroke-linejoin:round;stroke-width:0.5px"/><line x1="180.2" y1="305.68" x2="167.12" y2="313.33" style="fill:none;stroke:#000;stroke-linecap:round;stroke-linejoin:round;stroke-width:0.5px"/><line x1="167.12" y1="313.33" x2="167.12" y2="307.49" style="fill:none;stroke:#000;stroke-linecap:round;stroke-linejoin:round;stroke-width:0.5px"/><line x1="106.62" y1="335.9" x2="114.31" y2="340.34" style="fill:none;stroke:#000;stroke-linecap:round;stroke-linejoin:round;stroke-width:0.5px"/><line x1="106.62" y1="335.9" x2="106.62" y2="313.13" style="fill:none;stroke:#000;stroke-linecap:round;stroke-linejoin:round;stroke-width:0.5px"/><line x1="116.99" y1="319.11" x2="125.01" y2="323.74" style="fill:none;stroke:#000;stroke-linecap:round;stroke-linejoin:round;stroke-width:0.5px"/><line x1="125.01" y1="323.74" x2="205.37" y2="277.35" style="fill:none;stroke:#000;stroke-linecap:round;stroke-linejoin:round;stroke-width:0.5px"/><line x1="125.01" y1="323.74" x2="125.01" y2="312.35" style="fill:none;stroke:#000;stroke-linecap:round;stroke-linejoin:round;stroke-width:0.5px"/><line x1="205.37" y1="265.95" x2="205.37" y2="277.35" style="fill:none;stroke:#000;stroke-linecap:round;stroke-linejoin:round;stroke-width:0.5px"/><line x1="197.34" y1="283.53" x2="200.56" y2="281.67" style="fill:none;stroke:#000;stroke-linecap:round;stroke-linejoin:round;stroke-width:0.5px"/><line x1="200.56" y1="281.67" x2="211.26" y2="287.84" style="fill:none;stroke:#000;stroke-linecap:round;stroke-linejoin:round;stroke-width:0.5px"/><line x1="211.26" y1="287.84" x2="197.34" y2="295.88" style="fill:none;stroke:#000;stroke-linecap:round;stroke-linejoin:round;stroke-width:0.5px"/><line x1="200.56" y1="280.12" x2="200.56" y2="281.67" style="fill:none;stroke:#000;stroke-linecap:round;stroke-linejoin:round;stroke-width:0.5px"/><line x1="157.77" y1="222.27" x2="157.77" y2="222.22" style="fill:none;stroke:#000;stroke-linecap:round;stroke-linejoin:round;stroke-width:0.5px"/><line x1="157.77" y1="222.22" x2="157.95" y2="222.31" style="fill:none;stroke:#000;stroke-linecap:round;stroke-linejoin:round;stroke-width:0.5px"/><line x1="211.84" y1="322.92" x2="211.84" y2="318.29" style="fill:none;stroke:#000;stroke-linecap:round;stroke-linejoin:round;stroke-width:0.5px"/><line x1="211.84" y1="318.29" x2="117.57" y2="372.72" style="fill:none;stroke:#000;stroke-linecap:round;stroke-linejoin:round;stroke-width:0.5px"/><line x1="117.57" y1="372.72" x2="117.57" y2="377.35" style="fill:none;stroke:#000;stroke-linecap:round;stroke-linejoin:round;stroke-width:0.5px"/><line x1="117.57" y1="377.35" x2="211.84" y2="322.92" style="fill:none;stroke:#000;stroke-linecap:round;stroke-linejoin:round;stroke-width:0.5px"/><line x1="211.26" y1="317.95" x2="211.84" y2="318.29" style="fill:none;stroke:#000;stroke-linecap:round;stroke-linejoin:round;stroke-width:0.5px"/><line x1="211.26" y1="317.95" x2="116.99" y2="372.38" style="fill:none;stroke:#000;stroke-linecap:round;stroke-linejoin:round;stroke-width:0.5px"/><line x1="116.99" y1="372.38" x2="117.57" y2="372.72" style="fill:none;stroke:#000;stroke-linecap:round;stroke-linejoin:round;stroke-width:0.5px"/><line x1="116.99" y1="372.38" x2="116.99" y2="377.01" style="fill:none;stroke:#000;stroke-linecap:round;stroke-linejoin:round;stroke-width:0.5px"/><line x1="116.99" y1="377.01" x2="117.57" y2="377.35" style="fill:none;stroke:#000;stroke-linecap:round;stroke-linejoin:round;stroke-width:0.5px"/><line x1="106.29" y1="366.78" x2="106.29" y2="369.1" style="fill:none;stroke:#000;stroke-linecap:round;stroke-linejoin:round;stroke-width:0.5px"/><line x1="106.29" y1="369.1" x2="116.99" y2="375.28" style="fill:none;stroke:#000;stroke-linecap:round;stroke-linejoin:round;stroke-width:0.5px"/><line x1="116.99" y1="372.96" x2="106.29" y2="366.78" style="fill:none;stroke:#000;stroke-linecap:round;stroke-linejoin:round;stroke-width:0.5px"/><line x1="106.29" y1="369.1" x2="99.6" y2="372.96" style="fill:none;stroke:#000;stroke-linecap:round;stroke-linejoin:round;stroke-width:0.5px"/><line x1="99.6" y1="372.96" x2="99.6" y2="370.64" style="fill:none;stroke:#000;stroke-linecap:round;stroke-linejoin:round;stroke-width:0.5px"/><line x1="99.6" y1="370.64" x2="106.29" y2="366.78" style="fill:none;stroke:#000;stroke-linecap:round;stroke-linejoin:round;stroke-width:0.5px"/><line x1="67.51" y1="352.12" x2="67.51" y2="354.43" style="fill:none;stroke:#000;stroke-linecap:round;stroke-linejoin:round;stroke-width:0.5px"/><line x1="67.51" y1="354.43" x2="99.6" y2="372.96" style="fill:none;stroke:#000;stroke-linecap:round;stroke-linejoin:round;stroke-width:0.5px"/><line x1="99.6" y1="370.64" x2="67.51" y2="352.12" style="fill:none;stroke:#000;stroke-linecap:round;stroke-linejoin:round;stroke-width:0.5px"/><line x1="74.07" y1="348.18" x2="63.5" y2="342.08" style="fill:none;stroke:#000;stroke-linecap:round;stroke-linejoin:round;stroke-width:0.5px"/><line x1="63.5" y1="342.08" x2="63.5" y2="344.39" style="fill:none;stroke:#000;stroke-linecap:round;stroke-linejoin:round;stroke-width:0.5px"/><line x1="63.5" y1="344.39" x2="72.07" y2="349.34" style="fill:none;stroke:#000;stroke-linecap:round;stroke-linejoin:round;stroke-width:0.5px"/><line x1="64.63" y1="345.05" x2="63.5" y2="345.7" style="fill:none;stroke:#000;stroke-linecap:round;stroke-linejoin:round;stroke-width:0.5px"/><line x1="63.12" y1="345.91" x2="63.12" y2="341.28" style="fill:none;stroke:#000;stroke-linecap:round;stroke-linejoin:round;stroke-width:0.5px"/><line x1="63.12" y1="341.28" x2="63.5" y2="341.07" style="fill:none;stroke:#000;stroke-linecap:round;stroke-linejoin:round;stroke-width:0.5px"/><line x1="65" y1="345.26" x2="63.5" y2="346.13" style="fill:none;stroke:#000;stroke-linecap:round;stroke-linejoin:round;stroke-width:0.5px"/><line x1="63.5" y1="346.13" x2="63.12" y2="345.91" style="fill:none;stroke:#000;stroke-linecap:round;stroke-linejoin:round;stroke-width:0.5px"/><line x1="63.5" y1="346.13" x2="63.5" y2="344.39" style="fill:none;stroke:#000;stroke-linecap:round;stroke-linejoin:round;stroke-width:0.5px"/><line x1="63.5" y1="342.08" x2="63.5" y2="341.5" style="fill:none;stroke:#000;stroke-linecap:round;stroke-linejoin:round;stroke-width:0.5px"/><line x1="63.5" y1="341.5" x2="63.12" y2="341.28" style="fill:none;stroke:#000;stroke-linecap:round;stroke-linejoin:round;stroke-width:0.5px"/><line x1="198.45" y1="296.66" x2="208.47" y2="290.88" style="fill:none;stroke:#000;stroke-linecap:round;stroke-linejoin:round;stroke-width:0.5px"/><line x1="208.47" y1="290.88" x2="209.25" y2="289.2" style="fill:none;stroke:#000;stroke-linecap:round;stroke-linejoin:round;stroke-width:0.5px"/><line x1="209.25" y1="289.2" x2="197.39" y2="296.05" style="fill:none;stroke:#000;stroke-linecap:round;stroke-linejoin:round;stroke-width:0.5px"/><line x1="208.47" y1="295.85" x2="209.25" y2="295.72" style="fill:none;stroke:#000;stroke-linecap:round;stroke-linejoin:round;stroke-width:0.5px"/><line x1="209.25" y1="295.72" x2="209.25" y2="289.2" style="fill:none;stroke:#000;stroke-linecap:round;stroke-linejoin:round;stroke-width:0.5px"/><line x1="208.47" y1="290.88" x2="208.47" y2="295.85" style="fill:none;stroke:#000;stroke-linecap:round;stroke-linejoin:round;stroke-width:0.5px"/><line x1="211.26" y1="317.95" x2="211.26" y2="287.84" style="fill:none;stroke:#000;stroke-linecap:round;stroke-linejoin:round;stroke-width:0.5px"/><line x1="197.34" y1="295.88" x2="197.22" y2="295.95" style="fill:none;stroke:#000;stroke-linecap:round;stroke-linejoin:round;stroke-width:0.5px"/><line x1="180.91" y1="305.37" x2="167.12" y2="313.33" style="fill:none;stroke:#000;stroke-linecap:round;stroke-linejoin:round;stroke-width:0.5px"/><line x1="116.99" y1="343.37" x2="116.99" y2="372.38" style="fill:none;stroke:#000;stroke-linecap:round;stroke-linejoin:round;stroke-width:0.5px"/><line x1="209.25" y1="295.72" x2="202.26" y2="299.76" style="fill:none;stroke:#000;stroke-linecap:round;stroke-linejoin:round;stroke-width:0.5px"/><line x1="202.16" y1="299.49" x2="208.47" y2="295.85" style="fill:none;stroke:#000;stroke-linecap:round;stroke-linejoin:round;stroke-width:0.5px"/><line x1="165.79" y1="306.95" x2="165.79" y2="313.13" style="fill:none;stroke:#000;stroke-linecap:round;stroke-linejoin:round;stroke-width:0.5px"/><line x1="664.27" y1="317.89" x2="668.28" y2="315.58" style="fill:none;stroke:#000;stroke-linecap:round;stroke-linejoin:round;stroke-width:0.5px"/><line x1="664.27" y1="317.75" x2="664.27" y2="317.89" style="fill:none;stroke:#000;stroke-linecap:round;stroke-linejoin:round;stroke-width:0.5px"/><line x1="559.26" y1="257.27" x2="664.27" y2="317.89" style="fill:none;stroke:#000;stroke-linecap:round;stroke-linejoin:round;stroke-width:0.5px"/><line x1="559.26" y1="257.12" x2="559.26" y2="257.27" style="fill:none;stroke:#000;stroke-linecap:round;stroke-linejoin:round;stroke-width:0.5px"/><line x1="668.28" y1="315.44" x2="668.28" y2="315.58" style="fill:none;stroke:#000;stroke-linecap:round;stroke-linejoin:round;stroke-width:0.5px"/><line x1="729.79" y1="284.7" x2="668.28" y2="315.58" style="fill:none;stroke:#000;stroke-linecap:round;stroke-linejoin:round;stroke-width:0.5px"/><line x1="729.79" y1="284.56" x2="729.79" y2="284.7" style="fill:none;stroke:#000;stroke-linecap:round;stroke-linejoin:round;stroke-width:0.5px"/><line x1="631.5" y1="227.81" x2="725.73" y2="282.21" style="fill:none;stroke:#000;stroke-linecap:round;stroke-linejoin:round;stroke-width:0.5px"/><path d="M630.63,360.64l-.24.15" style="fill:none;stroke:#000;stroke-linecap:round;stroke-linejoin:round;stroke-width:0.5px"/><path d="M630.88,360.46a3.23,3.23,0,0,1-1.33.69" style="fill:none;stroke:#000;stroke-linecap:round;stroke-linejoin:round;stroke-width:0.5px"/><path d="M631.55,359.71a3.92,3.92,0,0,1-.25.33" style="fill:none;stroke:#000;stroke-linecap:round;stroke-linejoin:round;stroke-width:0.5px"/><line x1="715.07" y1="323.12" x2="715.08" y2="353.22" style="fill:none;stroke:#000;stroke-linecap:round;stroke-linejoin:round;stroke-width:0.5px"/><line x1="715.08" y1="353.89" x2="715" y2="356.16" style="fill:none;stroke:#000;stroke-linecap:round;stroke-linejoin:round;stroke-width:0.5px"/><line x1="715" y1="356.16" x2="715" y2="353.94" style="fill:none;stroke:#000;stroke-linecap:round;stroke-linejoin:round;stroke-width:0.5px"/><line x1="672.29" y1="380.82" x2="715" y2="356.16" style="fill:none;stroke:#000;stroke-linecap:round;stroke-linejoin:round;stroke-width:0.5px"/><line x1="715.08" y1="323.11" x2="715.08" y2="353.22" style="fill:none;stroke:#000;stroke-linecap:round;stroke-linejoin:round;stroke-width:0.5px"/><line x1="715.08" y1="353.22" x2="672.29" y2="377.92" style="fill:none;stroke:#000;stroke-linecap:round;stroke-linejoin:round;stroke-width:0.5px"/><line x1="715.08" y1="353.89" x2="715.08" y2="353.22" style="fill:none;stroke:#000;stroke-linecap:round;stroke-linejoin:round;stroke-width:0.5px"/><line x1="672.29" y1="378.6" x2="715.08" y2="353.89" style="fill:none;stroke:#000;stroke-linecap:round;stroke-linejoin:round;stroke-width:0.5px"/><line x1="631.5" y1="227.76" x2="631.5" y2="227.81" style="fill:none;stroke:#000;stroke-linecap:round;stroke-linejoin:round;stroke-width:0.5px"/><line x1="597.78" y1="304.8" x2="641.9" y2="330.29" style="fill:none;stroke:#000;stroke-linecap:round;stroke-linejoin:round;stroke-width:0.5px"/><line x1="578.02" y1="279.49" x2="578.02" y2="293.39" style="fill:none;stroke:#000;stroke-linecap:round;stroke-linejoin:round;stroke-width:0.5px"/><line x1="580.02" y1="294.55" x2="580.02" y2="280.65" style="fill:none;stroke:#000;stroke-linecap:round;stroke-linejoin:round;stroke-width:0.5px"/><line x1="580.86" y1="294.47" x2="580.02" y2="294.55" style="fill:none;stroke:#000;stroke-linecap:round;stroke-linejoin:round;stroke-width:0.5px"/><line x1="594.31" y1="302.8" x2="594.31" y2="288.9" style="fill:none;stroke:#000;stroke-linecap:round;stroke-linejoin:round;stroke-width:0.5px"/><line x1="593.6" y1="301.82" x2="594.31" y2="302.8" style="fill:none;stroke:#000;stroke-linecap:round;stroke-linejoin:round;stroke-width:0.5px"/><line x1="628.5" y1="315.39" x2="641.63" y2="322.97" style="fill:none;stroke:#000;stroke-linecap:round;stroke-linejoin:round;stroke-width:0.5px"/><line x1="641.31" y1="324.09" x2="641.31" y2="329.93" style="fill:none;stroke:#000;stroke-linecap:round;stroke-linejoin:round;stroke-width:0.5px"/><line x1="641.63" y1="323.94" x2="627.66" y2="315.87" style="fill:none;stroke:#000;stroke-linecap:round;stroke-linejoin:round;stroke-width:0.5px"/><line x1="641.31" y1="324.09" x2="641.95" y2="324.12" style="fill:none;stroke:#000;stroke-linecap:round;stroke-linejoin:round;stroke-width:0.5px"/><line x1="628.15" y1="316.49" x2="627.66" y2="315.87" style="fill:none;stroke:#000;stroke-linecap:round;stroke-linejoin:round;stroke-width:0.5px"/><line x1="627.65" y1="322.05" x2="628.15" y2="322.33" style="fill:none;stroke:#000;stroke-linecap:round;stroke-linejoin:round;stroke-width:0.5px"/><line x1="627.66" y1="315.87" x2="627.65" y2="322.05" style="fill:none;stroke:#000;stroke-linecap:round;stroke-linejoin:round;stroke-width:0.5px"/><line x1="627.66" y1="315.87" x2="628.5" y2="315.39" style="fill:none;stroke:#000;stroke-linecap:round;stroke-linejoin:round;stroke-width:0.5px"/><line x1="595.32" y1="289.48" x2="595.32" y2="302.22" style="fill:none;stroke:#000;stroke-linecap:round;stroke-linejoin:round;stroke-width:0.5px"/><line x1="658.8" y1="346.42" x2="669.5" y2="352.6" style="fill:none;stroke:#000;stroke-linecap:round;stroke-linejoin:round;stroke-width:0.5px"/><line x1="670.28" y1="353.38" x2="658.25" y2="346.43" style="fill:none;stroke:#000;stroke-linecap:round;stroke-linejoin:round;stroke-width:0.5px"/><line x1="578.02" y1="303.75" x2="578.02" y2="323.5" style="fill:none;stroke:#000;stroke-linecap:round;stroke-linejoin:round;stroke-width:0.5px"/><line x1="641.9" y1="330.27" x2="628.15" y2="322.33" style="fill:none;stroke:#000;stroke-linecap:round;stroke-linejoin:round;stroke-width:0.5px"/><line x1="658.37" y1="339.78" x2="653.53" y2="336.98" style="fill:none;stroke:#000;stroke-linecap:round;stroke-linejoin:round;stroke-width:0.5px"/><line x1="672.29" y1="377.92" x2="672.29" y2="347.81" style="fill:none;stroke:#000;stroke-linecap:round;stroke-linejoin:round;stroke-width:0.5px"/><line x1="669.5" y1="347.63" x2="669.5" y2="352.6" style="fill:none;stroke:#000;stroke-linecap:round;stroke-linejoin:round;stroke-width:0.5px"/><line x1="670.28" y1="353.38" x2="670.28" y2="346.85" style="fill:none;stroke:#000;stroke-linecap:round;stroke-linejoin:round;stroke-width:0.5px"/><line x1="669.5" y1="352.6" x2="670.28" y2="353.38" style="fill:none;stroke:#000;stroke-linecap:round;stroke-linejoin:round;stroke-width:0.5px"/><line x1="670.28" y1="346.85" x2="658.25" y2="339.9" style="fill:none;stroke:#000;stroke-linecap:round;stroke-linejoin:round;stroke-width:0.5px"/><line x1="669.5" y1="347.63" x2="670.28" y2="346.85" style="fill:none;stroke:#000;stroke-linecap:round;stroke-linejoin:round;stroke-width:0.5px"/><line x1="658.8" y1="341.45" x2="658.8" y2="346.42" style="fill:none;stroke:#000;stroke-linecap:round;stroke-linejoin:round;stroke-width:0.5px"/><line x1="658.25" y1="339.9" x2="658.8" y2="341.45" style="fill:none;stroke:#000;stroke-linecap:round;stroke-linejoin:round;stroke-width:0.5px"/><line x1="658.25" y1="346.43" x2="658.25" y2="339.9" style="fill:none;stroke:#000;stroke-linecap:round;stroke-linejoin:round;stroke-width:0.5px"/><line x1="658.8" y1="346.42" x2="658.25" y2="346.43" style="fill:none;stroke:#000;stroke-linecap:round;stroke-linejoin:round;stroke-width:0.5px"/><line x1="658.8" y1="341.45" x2="669.5" y2="347.63" style="fill:none;stroke:#000;stroke-linecap:round;stroke-linejoin:round;stroke-width:0.5px"/><line x1="578.02" y1="323.5" x2="577.43" y2="323.83" style="fill:none;stroke:#000;stroke-linecap:round;stroke-linejoin:round;stroke-width:0.5px"/><line x1="672.29" y1="377.92" x2="578.02" y2="323.5" style="fill:none;stroke:#000;stroke-linecap:round;stroke-linejoin:round;stroke-width:0.5px"/><line x1="672.29" y1="377.92" x2="671.7" y2="378.26" style="fill:none;stroke:#000;stroke-linecap:round;stroke-linejoin:round;stroke-width:0.5px"/><line x1="672.29" y1="382.56" x2="672.29" y2="377.92" style="fill:none;stroke:#000;stroke-linecap:round;stroke-linejoin:round;stroke-width:0.5px"/><line x1="671.7" y1="382.89" x2="672.29" y2="382.56" style="fill:none;stroke:#000;stroke-linecap:round;stroke-linejoin:round;stroke-width:0.5px"/><line x1="165.79" y1="313.13" x2="166.21" y2="313.37" style="fill:none;stroke:#000;stroke-linecap:round;stroke-linejoin:round;stroke-width:0.5px"/><line x1="166.63" y1="307.43" x2="165.79" y2="306.95" style="fill:none;stroke:#000;stroke-linecap:round;stroke-linejoin:round;stroke-width:0.5px"/><line x1="166.63" y1="307.43" x2="166.64" y2="313.61" style="fill:none;stroke:#000;stroke-linecap:round;stroke-linejoin:round;stroke-width:0.5px"/><line x1="166.64" y1="313.61" x2="167.12" y2="313.33" style="fill:none;stroke:#000;stroke-linecap:round;stroke-linejoin:round;stroke-width:0.5px"/><line x1="167.12" y1="307.49" x2="166.63" y2="307.43" style="fill:none;stroke:#000;stroke-linecap:round;stroke-linejoin:round;stroke-width:0.5px"/><line x1="180.28" y1="299.89" x2="180.92" y2="299.18" style="fill:none;stroke:#000;stroke-linecap:round;stroke-linejoin:round;stroke-width:0.5px"/><line x1="577.43" y1="328.47" x2="671.7" y2="382.89" style="fill:none;stroke:#000;stroke-linecap:round;stroke-linejoin:round;stroke-width:0.5px"/><line x1="577.43" y1="323.83" x2="577.43" y2="328.47" style="fill:none;stroke:#000;stroke-linecap:round;stroke-linejoin:round;stroke-width:0.5px"/><line x1="671.7" y1="378.26" x2="577.43" y2="323.83" style="fill:none;stroke:#000;stroke-linecap:round;stroke-linejoin:round;stroke-width:0.5px"/><line x1="671.7" y1="382.89" x2="671.7" y2="378.26" style="fill:none;stroke:#000;stroke-linecap:round;stroke-linejoin:round;stroke-width:0.5px"/><line x1="725.78" y1="282.24" x2="725.78" y2="282.19" style="fill:none;stroke:#000;stroke-linecap:round;stroke-linejoin:round;stroke-width:0.5px"/><line x1="725.78" y1="316.93" x2="725.78" y2="286.72" style="fill:none;stroke:#000;stroke-linecap:round;stroke-linejoin:round;stroke-width:0.5px"/><line x1="682.99" y1="341.64" x2="725.78" y2="316.93" style="fill:none;stroke:#000;stroke-linecap:round;stroke-linejoin:round;stroke-width:0.5px"/><line x1="682.99" y1="308.2" x2="682.99" y2="341.64" style="fill:none;stroke:#000;stroke-linecap:round;stroke-linejoin:round;stroke-width:0.5px"/><line x1="669.07" y1="333.6" x2="669.07" y2="315.18" style="fill:none;stroke:#000;stroke-linecap:round;stroke-linejoin:round;stroke-width:0.5px"/><line x1="672.29" y1="347.81" x2="658.37" y2="339.78" style="fill:none;stroke:#000;stroke-linecap:round;stroke-linejoin:round;stroke-width:0.5px"/><line x1="682.99" y1="341.64" x2="672.29" y2="347.81" style="fill:none;stroke:#000;stroke-linecap:round;stroke-linejoin:round;stroke-width:0.5px"/><line x1="669.07" y1="333.6" x2="682.99" y2="341.64" style="fill:none;stroke:#000;stroke-linecap:round;stroke-linejoin:round;stroke-width:0.5px"/><line x1="658.37" y1="339.78" x2="669.07" y2="333.6" style="fill:none;stroke:#000;stroke-linecap:round;stroke-linejoin:round;stroke-width:0.5px"/><line x1="650.35" y1="309.85" x2="650.35" y2="321.25" style="fill:none;stroke:#000;stroke-linecap:round;stroke-linejoin:round;stroke-width:0.5px"/><line x1="569.99" y1="274.86" x2="569.99" y2="263.46" style="fill:none;stroke:#000;stroke-linecap:round;stroke-linejoin:round;stroke-width:0.5px"/><line x1="569.99" y1="274.86" x2="650.35" y2="321.25" style="fill:none;stroke:#000;stroke-linecap:round;stroke-linejoin:round;stroke-width:0.5px"/><line x1="650.35" y1="321.25" x2="658.37" y2="316.62" style="fill:none;stroke:#000;stroke-linecap:round;stroke-linejoin:round;stroke-width:0.5px"/><line x1="628.15" y1="322.33" x2="628.15" y2="316.49" style="fill:none;stroke:#000;stroke-linecap:round;stroke-linejoin:round;stroke-width:0.5px"/><line x1="641.31" y1="329.84" x2="628.15" y2="322.33" style="fill:none;stroke:#000;stroke-linecap:round;stroke-linejoin:round;stroke-width:0.5px"/><line x1="628.15" y1="316.49" x2="641.31" y2="324.09" style="fill:none;stroke:#000;stroke-linecap:round;stroke-linejoin:round;stroke-width:0.5px"/><line x1="658.22" y1="340.82" x2="654.24" y2="343.12" style="fill:none;stroke:#000;stroke-linecap:round;stroke-linejoin:round;stroke-width:0.5px"/><line x1="658.22" y1="339.72" x2="658.22" y2="340.82" style="fill:none;stroke:#000;stroke-linecap:round;stroke-linejoin:round;stroke-width:0.5px"/><line x1="658.22" y1="339.72" x2="654.24" y2="342.02" style="fill:none;stroke:#000;stroke-linecap:round;stroke-linejoin:round;stroke-width:0.5px"/><path d="M654.24,342c-4.55,1.69-7.69.19-11.44-2L632.31,334l-21-12.1-21-12.1-10.48-6.05c-3-1.72-10.31-4.1-5.91-8" style="fill:none;stroke:#000;stroke-linecap:round;stroke-linejoin:round;stroke-width:0.5px"/><path d="M654.24,343.12c-4.4,1.64-7.49.31-11.16-1.81l-10.2-5.89-20.4-11.78-20.4-11.78L581.89,306c-1.31-.75-9-4.52-9-6.93" style="fill:none;stroke:#000;stroke-linecap:round;stroke-linejoin:round;stroke-width:0.5px"/><line x1="654.24" y1="342.02" x2="654.24" y2="343.12" style="fill:none;stroke:#000;stroke-linecap:round;stroke-linejoin:round;stroke-width:0.5px"/><line x1="574.01" y1="295.7" x2="578.02" y2="293.39" style="fill:none;stroke:#000;stroke-linecap:round;stroke-linejoin:round;stroke-width:0.5px"/><line x1="578.02" y1="293.39" x2="658.22" y2="339.72" style="fill:none;stroke:#000;stroke-linecap:round;stroke-linejoin:round;stroke-width:0.5px"/><line x1="180.6" y1="299.37" x2="166.63" y2="307.43" style="fill:none;stroke:#000;stroke-linecap:round;stroke-linejoin:round;stroke-width:0.5px"/><line x1="180.28" y1="305.73" x2="180.2" y2="305.68" style="fill:none;stroke:#000;stroke-linecap:round;stroke-linejoin:round;stroke-width:0.5px"/><line x1="180.28" y1="299.89" x2="180.28" y2="305.73" style="fill:none;stroke:#000;stroke-linecap:round;stroke-linejoin:round;stroke-width:0.5px"/><line x1="180.92" y1="299.18" x2="180.92" y2="301.11" style="fill:none;stroke:#000;stroke-linecap:round;stroke-linejoin:round;stroke-width:0.5px"/><line x1="608.89" y1="310.06" x2="595.32" y2="302.22" style="fill:none;stroke:#000;stroke-linecap:round;stroke-linejoin:round;stroke-width:0.5px"/><line x1="595.4" y1="303.43" x2="627.65" y2="322.05" style="fill:none;stroke:#000;stroke-linecap:round;stroke-linejoin:round;stroke-width:0.5px"/><line x1="595.32" y1="302.22" x2="594.31" y2="302.8" style="fill:none;stroke:#000;stroke-linecap:round;stroke-linejoin:round;stroke-width:0.5px"/><line x1="658.37" y1="333.6" x2="658.37" y2="339.78" style="fill:none;stroke:#000;stroke-linecap:round;stroke-linejoin:round;stroke-width:0.5px"/><line x1="641.9" y1="330.29" x2="641.95" y2="324.12" style="fill:none;stroke:#000;stroke-linecap:round;stroke-linejoin:round;stroke-width:0.5px"/><line x1="658.37" y1="339.78" x2="641.9" y2="330.29" style="fill:none;stroke:#000;stroke-linecap:round;stroke-linejoin:round;stroke-width:0.5px"/><line x1="641.63" y1="323.94" x2="658.37" y2="333.6" style="fill:none;stroke:#000;stroke-linecap:round;stroke-linejoin:round;stroke-width:0.5px"/><line x1="658.37" y1="333.6" x2="658.37" y2="316.62" style="fill:none;stroke:#000;stroke-linecap:round;stroke-linejoin:round;stroke-width:0.5px"/><line x1="641.63" y1="323.94" x2="641.63" y2="316.22" style="fill:none;stroke:#000;stroke-linecap:round;stroke-linejoin:round;stroke-width:0.5px"/><line x1="361.29" y1="175.78" x2="361.29" y2="175.93" style="fill:none;stroke:#000;stroke-linecap:round;stroke-linejoin:round;stroke-width:0.5px"/><line x1="256.28" y1="236.56" x2="361.29" y2="175.93" style="fill:none;stroke:#000;stroke-linecap:round;stroke-linejoin:round;stroke-width:0.5px"/><line x1="256.28" y1="236.41" x2="256.28" y2="236.56" style="fill:none;stroke:#000;stroke-linecap:round;stroke-linejoin:round;stroke-width:0.5px"/><line x1="252.27" y1="234.25" x2="256.28" y2="236.56" style="fill:none;stroke:#000;stroke-linecap:round;stroke-linejoin:round;stroke-width:0.5px"/><line x1="190.76" y1="203.22" x2="190.76" y2="203.37" style="fill:none;stroke:#000;stroke-linecap:round;stroke-linejoin:round;stroke-width:0.5px"/><line x1="252.27" y1="234.25" x2="252.27" y2="234.1" style="fill:none;stroke:#000;stroke-linecap:round;stroke-linejoin:round;stroke-width:0.5px"/><line x1="252.27" y1="234.25" x2="190.76" y2="203.37" style="fill:none;stroke:#000;stroke-linecap:round;stroke-linejoin:round;stroke-width:0.5px"/><line x1="197.53" y1="199.31" x2="291.76" y2="144.91" style="fill:none;stroke:#000;stroke-linecap:round;stroke-linejoin:round;stroke-width:0.5px"/><path d="M293.38,275.85q-.12.3-.25.6" style="fill:none;stroke:#000;stroke-linecap:round;stroke-linejoin:round;stroke-width:0.5px"/><line x1="197.49" y1="206.74" x2="197.49" y2="237.88" style="fill:none;stroke:#000;stroke-linecap:round;stroke-linejoin:round;stroke-width:0.5px"/><line x1="197.49" y1="199.29" x2="197.49" y2="199.34" style="fill:none;stroke:#000;stroke-linecap:round;stroke-linejoin:round;stroke-width:0.5px"/><line x1="197.67" y1="199.38" x2="197.49" y2="199.29" style="fill:none;stroke:#000;stroke-linecap:round;stroke-linejoin:round;stroke-width:0.5px"/><line x1="214.87" y1="274.39" x2="233.59" y2="284.98" style="fill:none;stroke:#000;stroke-linecap:round;stroke-linejoin:round;stroke-width:0.5px"/><line x1="216.5" y1="273.34" x2="215.05" y2="274.28" style="fill:none;stroke:#000;stroke-linecap:round;stroke-linejoin:round;stroke-width:0.5px"/><line x1="248.3" y1="240.21" x2="240.28" y2="235.57" style="fill:none;stroke:#000;stroke-linecap:round;stroke-linejoin:round;stroke-width:0.5px"/><line x1="248.3" y1="240.21" x2="248.3" y2="263.37" style="fill:none;stroke:#000;stroke-linecap:round;stroke-linejoin:round;stroke-width:0.5px"/><line x1="248.3" y1="263.37" x2="240.28" y2="258.74" style="fill:none;stroke:#000;stroke-linecap:round;stroke-linejoin:round;stroke-width:0.5px"/><line x1="240.28" y1="258.66" x2="248.3" y2="262.99" style="fill:none;stroke:#000;stroke-linecap:round;stroke-linejoin:round;stroke-width:0.5px"/><line x1="240.35" y1="258.7" x2="240.62" y2="258.54" style="fill:none;stroke:#000;stroke-linecap:round;stroke-linejoin:round;stroke-width:0.5px"/><line x1="240.28" y1="235.57" x2="240.28" y2="258.74" style="fill:none;stroke:#000;stroke-linecap:round;stroke-linejoin:round;stroke-width:0.5px"/><line x1="208.19" y1="270.32" x2="240.28" y2="288.84" style="fill:none;stroke:#000;stroke-linecap:round;stroke-linejoin:round;stroke-width:0.5px"/><line x1="240.28" y1="289.28" x2="208.19" y2="270.75" style="fill:none;stroke:#000;stroke-linecap:round;stroke-linejoin:round;stroke-width:0.5px"/><line x1="240.28" y1="288.84" x2="250.98" y2="295.02" style="fill:none;stroke:#000;stroke-linecap:round;stroke-linejoin:round;stroke-width:0.5px"/><line x1="240.28" y1="289.28" x2="240.28" y2="288.84" style="fill:none;stroke:#000;stroke-linecap:round;stroke-linejoin:round;stroke-width:0.5px"/><line x1="240.28" y1="289.28" x2="233.59" y2="293.14" style="fill:none;stroke:#000;stroke-linecap:round;stroke-linejoin:round;stroke-width:0.5px"/><line x1="240.28" y1="289.42" x2="240.28" y2="289.28" style="fill:none;stroke:#000;stroke-linecap:round;stroke-linejoin:round;stroke-width:0.5px"/><line x1="233.59" y1="293.14" x2="205.37" y2="276.84" style="fill:none;stroke:#000;stroke-linecap:round;stroke-linejoin:round;stroke-width:0.5px"/><line x1="233.59" y1="293.28" x2="233.59" y2="293.14" style="fill:none;stroke:#000;stroke-linecap:round;stroke-linejoin:round;stroke-width:0.5px"/><line x1="205.37" y1="272.38" x2="208.19" y2="270.75" style="fill:none;stroke:#000;stroke-linecap:round;stroke-linejoin:round;stroke-width:0.5px"/><line x1="208.19" y1="270.32" x2="205.37" y2="268.69" style="fill:none;stroke:#000;stroke-linecap:round;stroke-linejoin:round;stroke-width:0.5px"/><line x1="208.19" y1="270.75" x2="208.19" y2="270.32" style="fill:none;stroke:#000;stroke-linecap:round;stroke-linejoin:round;stroke-width:0.5px"/><line x1="250.98" y1="241.75" x2="250.98" y2="264.91" style="fill:none;stroke:#000;stroke-linecap:round;stroke-linejoin:round;stroke-width:0.5px"/><line x1="252.98" y1="263.75" x2="252.98" y2="242.91" style="fill:none;stroke:#000;stroke-linecap:round;stroke-linejoin:round;stroke-width:0.5px"/><line x1="253.82" y1="262.71" x2="252.98" y2="263.75" style="fill:none;stroke:#000;stroke-linecap:round;stroke-linejoin:round;stroke-width:0.5px"/><line x1="267.28" y1="255.51" x2="267.28" y2="241.61" style="fill:none;stroke:#000;stroke-linecap:round;stroke-linejoin:round;stroke-width:0.5px"/><line x1="266.56" y1="255.35" x2="267.28" y2="255.51" style="fill:none;stroke:#000;stroke-linecap:round;stroke-linejoin:round;stroke-width:0.5px"/><line x1="299.79" y1="229.59" x2="313.37" y2="221.75" style="fill:none;stroke:#000;stroke-linecap:round;stroke-linejoin:round;stroke-width:0.5px"/><line x1="314.91" y1="221.82" x2="314.91" y2="223.75" style="fill:none;stroke:#000;stroke-linecap:round;stroke-linejoin:round;stroke-width:0.5px"/><line x1="314.28" y1="222.53" x2="314.28" y2="228.37" style="fill:none;stroke:#000;stroke-linecap:round;stroke-linejoin:round;stroke-width:0.5px"/><line x1="314.28" y1="228.37" x2="314.19" y2="228.32" style="fill:none;stroke:#000;stroke-linecap:round;stroke-linejoin:round;stroke-width:0.5px"/><line x1="314.59" y1="222.01" x2="300.62" y2="230.07" style="fill:none;stroke:#000;stroke-linecap:round;stroke-linejoin:round;stroke-width:0.5px"/><line x1="314.28" y1="222.53" x2="314.91" y2="221.82" style="fill:none;stroke:#000;stroke-linecap:round;stroke-linejoin:round;stroke-width:0.5px"/><line x1="301.11" y1="230.13" x2="300.62" y2="230.07" style="fill:none;stroke:#000;stroke-linecap:round;stroke-linejoin:round;stroke-width:0.5px"/><line x1="300.63" y1="236.25" x2="300.87" y2="236.11" style="fill:none;stroke:#000;stroke-linecap:round;stroke-linejoin:round;stroke-width:0.5px"/><line x1="300.62" y1="230.07" x2="300.63" y2="236.25" style="fill:none;stroke:#000;stroke-linecap:round;stroke-linejoin:round;stroke-width:0.5px"/><line x1="300.62" y1="230.07" x2="299.79" y2="229.59" style="fill:none;stroke:#000;stroke-linecap:round;stroke-linejoin:round;stroke-width:0.5px"/><line x1="299.79" y1="235.77" x2="300.21" y2="236.01" style="fill:none;stroke:#000;stroke-linecap:round;stroke-linejoin:round;stroke-width:0.5px"/><line x1="299.79" y1="229.59" x2="299.79" y2="235.77" style="fill:none;stroke:#000;stroke-linecap:round;stroke-linejoin:round;stroke-width:0.5px"/><line x1="336.15" y1="222.13" x2="342.46" y2="218.49" style="fill:none;stroke:#000;stroke-linecap:round;stroke-linejoin:round;stroke-width:0.5px"/><line x1="343.24" y1="218.36" x2="336.25" y2="222.4" style="fill:none;stroke:#000;stroke-linecap:round;stroke-linejoin:round;stroke-width:0.5px"/><line x1="250.98" y1="266.01" x2="250.98" y2="295.02" style="fill:none;stroke:#000;stroke-linecap:round;stroke-linejoin:round;stroke-width:0.5px"/><line x1="314.9" y1="228.01" x2="300.87" y2="236.11" style="fill:none;stroke:#000;stroke-linecap:round;stroke-linejoin:round;stroke-width:0.5px"/><line x1="331.34" y1="218.52" x2="331.21" y2="218.59" style="fill:none;stroke:#000;stroke-linecap:round;stroke-linejoin:round;stroke-width:0.5px"/><line x1="345.25" y1="240.59" x2="345.25" y2="210.48" style="fill:none;stroke:#000;stroke-linecap:round;stroke-linejoin:round;stroke-width:0.5px"/><line x1="342.46" y1="213.52" x2="342.46" y2="218.49" style="fill:none;stroke:#000;stroke-linecap:round;stroke-linejoin:round;stroke-width:0.5px"/><line x1="343.24" y1="218.36" x2="343.24" y2="211.84" style="fill:none;stroke:#000;stroke-linecap:round;stroke-linejoin:round;stroke-width:0.5px"/><line x1="342.46" y1="218.49" x2="343.24" y2="218.36" style="fill:none;stroke:#000;stroke-linecap:round;stroke-linejoin:round;stroke-width:0.5px"/><line x1="343.24" y1="211.84" x2="331.38" y2="218.69" style="fill:none;stroke:#000;stroke-linecap:round;stroke-linejoin:round;stroke-width:0.5px"/><line x1="342.46" y1="213.52" x2="343.24" y2="211.84" style="fill:none;stroke:#000;stroke-linecap:round;stroke-linejoin:round;stroke-width:0.5px"/><line x1="332.44" y1="219.3" x2="342.46" y2="213.52" style="fill:none;stroke:#000;stroke-linecap:round;stroke-linejoin:round;stroke-width:0.5px"/><line x1="205.37" y1="271.58" x2="206.06" y2="271.98" style="fill:none;stroke:#000;stroke-linecap:round;stroke-linejoin:round;stroke-width:0.5px"/><line x1="208.06" y1="270.82" x2="205.37" y2="269.27" style="fill:none;stroke:#000;stroke-linecap:round;stroke-linejoin:round;stroke-width:0.5px"/><line x1="233.59" y1="293.28" x2="205.37" y2="276.99" style="fill:none;stroke:#000;stroke-linecap:round;stroke-linejoin:round;stroke-width:0.5px"/><line x1="203.68" y1="278.33" x2="233.59" y2="295.6" style="fill:none;stroke:#000;stroke-linecap:round;stroke-linejoin:round;stroke-width:0.5px"/><line x1="233.59" y1="293.28" x2="240.28" y2="289.42" style="fill:none;stroke:#000;stroke-linecap:round;stroke-linejoin:round;stroke-width:0.5px"/><line x1="233.59" y1="295.6" x2="233.59" y2="293.28" style="fill:none;stroke:#000;stroke-linecap:round;stroke-linejoin:round;stroke-width:0.5px"/><line x1="240.28" y1="291.74" x2="233.59" y2="295.6" style="fill:none;stroke:#000;stroke-linecap:round;stroke-linejoin:round;stroke-width:0.5px"/><line x1="250.98" y1="295.6" x2="240.28" y2="289.42" style="fill:none;stroke:#000;stroke-linecap:round;stroke-linejoin:round;stroke-width:0.5px"/><line x1="240.28" y1="291.74" x2="250.98" y2="297.92" style="fill:none;stroke:#000;stroke-linecap:round;stroke-linejoin:round;stroke-width:0.5px"/><line x1="240.28" y1="289.42" x2="240.28" y2="291.74" style="fill:none;stroke:#000;stroke-linecap:round;stroke-linejoin:round;stroke-width:0.5px"/><line x1="250.98" y1="299.65" x2="251.56" y2="299.99" style="fill:none;stroke:#000;stroke-linecap:round;stroke-linejoin:round;stroke-width:0.5px"/><line x1="250.98" y1="295.02" x2="250.98" y2="299.65" style="fill:none;stroke:#000;stroke-linecap:round;stroke-linejoin:round;stroke-width:0.5px"/><line x1="250.98" y1="295.02" x2="251.56" y2="295.36" style="fill:none;stroke:#000;stroke-linecap:round;stroke-linejoin:round;stroke-width:0.5px"/><line x1="345.25" y1="240.59" x2="250.98" y2="295.02" style="fill:none;stroke:#000;stroke-linecap:round;stroke-linejoin:round;stroke-width:0.5px"/><line x1="345.25" y1="240.59" x2="345.84" y2="240.93" style="fill:none;stroke:#000;stroke-linecap:round;stroke-linejoin:round;stroke-width:0.5px"/><line x1="165.79" y1="306.95" x2="179.37" y2="299.11" style="fill:none;stroke:#000;stroke-linecap:round;stroke-linejoin:round;stroke-width:0.5px"/><line x1="132.57" y1="332.71" x2="133.29" y2="332.87" style="fill:none;stroke:#000;stroke-linecap:round;stroke-linejoin:round;stroke-width:0.5px"/><line x1="133.29" y1="332.87" x2="133.29" y2="318.97" style="fill:none;stroke:#000;stroke-linecap:round;stroke-linejoin:round;stroke-width:0.5px"/><line x1="119.83" y1="340.07" x2="118.99" y2="341.11" style="fill:none;stroke:#000;stroke-linecap:round;stroke-linejoin:round;stroke-width:0.5px"/><line x1="118.99" y1="341.11" x2="118.99" y2="320.27" style="fill:none;stroke:#000;stroke-linecap:round;stroke-linejoin:round;stroke-width:0.5px"/><line x1="116.99" y1="319.11" x2="116.99" y2="342.27" style="fill:none;stroke:#000;stroke-linecap:round;stroke-linejoin:round;stroke-width:0.5px"/><line x1="251.56" y1="299.99" x2="345.84" y2="245.56" style="fill:none;stroke:#000;stroke-linecap:round;stroke-linejoin:round;stroke-width:0.5px"/><line x1="251.56" y1="295.36" x2="251.56" y2="299.99" style="fill:none;stroke:#000;stroke-linecap:round;stroke-linejoin:round;stroke-width:0.5px"/><line x1="345.84" y1="240.93" x2="251.56" y2="295.36" style="fill:none;stroke:#000;stroke-linecap:round;stroke-linejoin:round;stroke-width:0.5px"/><line x1="345.84" y1="245.56" x2="345.84" y2="240.93" style="fill:none;stroke:#000;stroke-linecap:round;stroke-linejoin:round;stroke-width:0.5px"/><line x1="291.76" y1="144.86" x2="291.94" y2="144.95" style="fill:none;stroke:#000;stroke-linecap:round;stroke-linejoin:round;stroke-width:0.5px"/><line x1="291.76" y1="144.91" x2="291.76" y2="144.86" style="fill:none;stroke:#000;stroke-linecap:round;stroke-linejoin:round;stroke-width:0.5px"/><line x1="334.55" y1="202.76" x2="334.55" y2="204.31" style="fill:none;stroke:#000;stroke-linecap:round;stroke-linejoin:round;stroke-width:0.5px"/><line x1="345.25" y1="210.48" x2="331.34" y2="218.52" style="fill:none;stroke:#000;stroke-linecap:round;stroke-linejoin:round;stroke-width:0.5px"/><line x1="334.55" y1="204.31" x2="345.25" y2="210.48" style="fill:none;stroke:#000;stroke-linecap:round;stroke-linejoin:round;stroke-width:0.5px"/><line x1="331.34" y1="206.17" x2="334.55" y2="204.31" style="fill:none;stroke:#000;stroke-linecap:round;stroke-linejoin:round;stroke-width:0.5px"/><line x1="339.36" y1="188.59" x2="339.36" y2="199.99" style="fill:none;stroke:#000;stroke-linecap:round;stroke-linejoin:round;stroke-width:0.5px"/><line x1="259" y1="246.38" x2="259" y2="234.99" style="fill:none;stroke:#000;stroke-linecap:round;stroke-linejoin:round;stroke-width:0.5px"/><line x1="259" y1="246.38" x2="339.36" y2="199.99" style="fill:none;stroke:#000;stroke-linecap:round;stroke-linejoin:round;stroke-width:0.5px"/><line x1="250.98" y1="241.75" x2="259" y2="246.38" style="fill:none;stroke:#000;stroke-linecap:round;stroke-linejoin:round;stroke-width:0.5px"/><line x1="240.62" y1="258.54" x2="240.62" y2="235.77" style="fill:none;stroke:#000;stroke-linecap:round;stroke-linejoin:round;stroke-width:0.5px"/><line x1="240.62" y1="258.54" x2="248.3" y2="262.98" style="fill:none;stroke:#000;stroke-linecap:round;stroke-linejoin:round;stroke-width:0.5px"/><line x1="301.11" y1="235.97" x2="301.11" y2="230.13" style="fill:none;stroke:#000;stroke-linecap:round;stroke-linejoin:round;stroke-width:0.5px"/><line x1="314.19" y1="228.32" x2="301.11" y2="235.97" style="fill:none;stroke:#000;stroke-linecap:round;stroke-linejoin:round;stroke-width:0.5px"/><line x1="314.28" y1="222.53" x2="314.19" y2="228.32" style="fill:none;stroke:#000;stroke-linecap:round;stroke-linejoin:round;stroke-width:0.5px"/><line x1="301.11" y1="230.13" x2="314.28" y2="222.53" style="fill:none;stroke:#000;stroke-linecap:round;stroke-linejoin:round;stroke-width:0.5px"/><line x1="331.23" y1="218.6" x2="335.22" y2="220.91" style="fill:none;stroke:#000;stroke-linecap:round;stroke-linejoin:round;stroke-width:0.5px"/><path d="M335.22,220.91c4.4,3.94-2.92,6.32-5.91,8L318.83,235l-21,12.1-21,12.1-10.48,6.05c-3.75,2.17-6.9,3.67-11.44,2" style="fill:none;stroke:#000;stroke-linecap:round;stroke-linejoin:round;stroke-width:0.5px"/><path d="M336.37,224.25c0,2.42-7.72,6.18-9,6.93l-10.2,5.89-20.4,11.78-20.4,11.78-10.2,5.89c-3.67,2.12-6.76,3.45-11.16,1.81" style="fill:none;stroke:#000;stroke-linecap:round;stroke-linejoin:round;stroke-width:0.5px"/><line x1="254.99" y1="267.23" x2="250.98" y2="264.91" style="fill:none;stroke:#000;stroke-linecap:round;stroke-linejoin:round;stroke-width:0.5px"/><line x1="254.99" y1="268.32" x2="250.98" y2="266.01" style="fill:none;stroke:#000;stroke-linecap:round;stroke-linejoin:round;stroke-width:0.5px"/><line x1="254.99" y1="267.23" x2="254.99" y2="268.32" style="fill:none;stroke:#000;stroke-linecap:round;stroke-linejoin:round;stroke-width:0.5px"/><line x1="250.98" y1="264.91" x2="331.23" y2="218.6" style="fill:none;stroke:#000;stroke-linecap:round;stroke-linejoin:round;stroke-width:0.5px"/><line x1="250.98" y1="264.91" x2="250.98" y2="266.01" style="fill:none;stroke:#000;stroke-linecap:round;stroke-linejoin:round;stroke-width:0.5px"/><line x1="74.2" y1="348.11" x2="74.2" y2="347.68" style="fill:none;stroke:#000;stroke-linecap:round;stroke-linejoin:round;stroke-width:0.5px"/><line x1="74.2" y1="347.68" x2="63.5" y2="341.5" style="fill:none;stroke:#000;stroke-linecap:round;stroke-linejoin:round;stroke-width:0.5px"/><line x1="67.51" y1="352.12" x2="67.51" y2="351.97" style="fill:none;stroke:#000;stroke-linecap:round;stroke-linejoin:round;stroke-width:0.5px"/><line x1="67.51" y1="351.97" x2="74.2" y2="348.11" style="fill:none;stroke:#000;stroke-linecap:round;stroke-linejoin:round;stroke-width:0.5px"/><line x1="313.37" y1="215" x2="313.37" y2="221.75" style="fill:none;stroke:#000;stroke-linecap:round;stroke-linejoin:round;stroke-width:0.5px"/><line x1="314.08" y1="221.34" x2="314.08" y2="214.58" style="fill:none;stroke:#000;stroke-linecap:round;stroke-linejoin:round;stroke-width:0.5px"/><path d="M313.37,221.75l.71-.41" style="fill:none;stroke:#000;stroke-linecap:round;stroke-linejoin:round;stroke-width:0.5px"/><line x1="279.86" y1="247.08" x2="267.28" y2="254.34" style="fill:none;stroke:#000;stroke-linecap:round;stroke-linejoin:round;stroke-width:0.5px"/><line x1="299.62" y1="235.67" x2="299.07" y2="235.99" style="fill:none;stroke:#000;stroke-linecap:round;stroke-linejoin:round;stroke-width:0.5px"/><line x1="299.79" y1="235.77" x2="299.62" y2="235.67" style="fill:none;stroke:#000;stroke-linecap:round;stroke-linejoin:round;stroke-width:0.5px"/><line x1="300.63" y1="236.25" x2="300.21" y2="236.01" style="fill:none;stroke:#000;stroke-linecap:round;stroke-linejoin:round;stroke-width:0.5px"/><line x1="267.28" y1="255.51" x2="300.63" y2="236.25" style="fill:none;stroke:#000;stroke-linecap:round;stroke-linejoin:round;stroke-width:0.5px"/><line x1="331.34" y1="212.34" x2="331.34" y2="218.52" style="fill:none;stroke:#000;stroke-linecap:round;stroke-linejoin:round;stroke-width:0.5px"/><line x1="314.9" y1="228.03" x2="314.91" y2="221.82" style="fill:none;stroke:#000;stroke-linecap:round;stroke-linejoin:round;stroke-width:0.5px"/><line x1="331.34" y1="218.52" x2="316.69" y2="227" style="fill:none;stroke:#000;stroke-linecap:round;stroke-linejoin:round;stroke-width:0.5px"/><line x1="314.59" y1="222.01" x2="331.34" y2="212.34" style="fill:none;stroke:#000;stroke-linecap:round;stroke-linejoin:round;stroke-width:0.5px"/><line x1="331.34" y1="212.34" x2="331.34" y2="204.62" style="fill:none;stroke:#000;stroke-linecap:round;stroke-linejoin:round;stroke-width:0.5px"/><line x1="314.59" y1="222.01" x2="314.59" y2="214.29" style="fill:none;stroke:#000;stroke-linecap:round;stroke-linejoin:round;stroke-width:0.5px"/><line x1="314.08" y1="221.34" x2="314.59" y2="222.01" style="fill:none;stroke:#000;stroke-linecap:round;stroke-linejoin:round;stroke-width:0.5px"/><line x1="227.3" y1="253.14" x2="227.3" y2="253.29" style="fill:none;stroke:#000;stroke-linecap:round;stroke-linejoin:round;stroke-width:0.5px"/><line x1="122.29" y1="313.92" x2="227.3" y2="253.29" style="fill:none;stroke:#000;stroke-linecap:round;stroke-linejoin:round;stroke-width:0.5px"/><line x1="122.29" y1="313.77" x2="122.29" y2="313.92" style="fill:none;stroke:#000;stroke-linecap:round;stroke-linejoin:round;stroke-width:0.5px"/><line x1="118.28" y1="311.61" x2="122.29" y2="313.92" style="fill:none;stroke:#000;stroke-linecap:round;stroke-linejoin:round;stroke-width:0.5px"/><line x1="56.77" y1="280.58" x2="56.77" y2="280.73" style="fill:none;stroke:#000;stroke-linecap:round;stroke-linejoin:round;stroke-width:0.5px"/><line x1="118.28" y1="311.61" x2="118.28" y2="311.46" style="fill:none;stroke:#000;stroke-linecap:round;stroke-linejoin:round;stroke-width:0.5px"/><line x1="118.28" y1="311.61" x2="56.77" y2="280.73" style="fill:none;stroke:#000;stroke-linecap:round;stroke-linejoin:round;stroke-width:0.5px"/><line x1="63.54" y1="276.67" x2="157.77" y2="222.27" style="fill:none;stroke:#000;stroke-linecap:round;stroke-linejoin:round;stroke-width:0.5px"/><path d="M148.21,361.41l-.24-.15" style="fill:none;stroke:#000;stroke-linecap:round;stroke-linejoin:round;stroke-width:0.5px"/><path d="M148.76,361.68a3.22,3.22,0,0,1-1.7-1.35" style="fill:none;stroke:#000;stroke-linecap:round;stroke-linejoin:round;stroke-width:0.5px"/><path d="M159.39,353.21q-.12.3-.25.6" style="fill:none;stroke:#000;stroke-linecap:round;stroke-linejoin:round;stroke-width:0.5px"/><line x1="63.5" y1="284.1" x2="63.5" y2="341.5" style="fill:none;stroke:#000;stroke-linecap:round;stroke-linejoin:round;stroke-width:0.5px"/><line x1="63.5" y1="276.65" x2="63.5" y2="276.7" style="fill:none;stroke:#000;stroke-linecap:round;stroke-linejoin:round;stroke-width:0.5px"/><line x1="63.68" y1="276.74" x2="63.5" y2="276.65" style="fill:none;stroke:#000;stroke-linecap:round;stroke-linejoin:round;stroke-width:0.5px"/><line x1="80.88" y1="351.75" x2="99.6" y2="362.34" style="fill:none;stroke:#000;stroke-linecap:round;stroke-linejoin:round;stroke-width:0.5px"/><line x1="114.31" y1="317.57" x2="106.29" y2="312.93" style="fill:none;stroke:#000;stroke-linecap:round;stroke-linejoin:round;stroke-width:0.5px"/><line x1="114.31" y1="317.57" x2="114.31" y2="340.73" style="fill:none;stroke:#000;stroke-linecap:round;stroke-linejoin:round;stroke-width:0.5px"/><line x1="114.31" y1="340.73" x2="106.29" y2="336.1" style="fill:none;stroke:#000;stroke-linecap:round;stroke-linejoin:round;stroke-width:0.5px"/><line x1="106.29" y1="336.02" x2="114.31" y2="340.35" style="fill:none;stroke:#000;stroke-linecap:round;stroke-linejoin:round;stroke-width:0.5px"/><line x1="106.36" y1="336.06" x2="106.62" y2="335.9" style="fill:none;stroke:#000;stroke-linecap:round;stroke-linejoin:round;stroke-width:0.5px"/><line x1="106.29" y1="312.93" x2="106.29" y2="336.1" style="fill:none;stroke:#000;stroke-linecap:round;stroke-linejoin:round;stroke-width:0.5px"/><line x1="74.2" y1="347.68" x2="106.29" y2="366.2" style="fill:none;stroke:#000;stroke-linecap:round;stroke-linejoin:round;stroke-width:0.5px"/><line x1="106.29" y1="366.64" x2="74.2" y2="348.11" style="fill:none;stroke:#000;stroke-linecap:round;stroke-linejoin:round;stroke-width:0.5px"/><line x1="106.29" y1="366.2" x2="116.99" y2="372.38" style="fill:none;stroke:#000;stroke-linecap:round;stroke-linejoin:round;stroke-width:0.5px"/><line x1="106.29" y1="366.64" x2="106.29" y2="366.2" style="fill:none;stroke:#000;stroke-linecap:round;stroke-linejoin:round;stroke-width:0.5px"/><line x1="106.29" y1="366.64" x2="99.6" y2="370.5" style="fill:none;stroke:#000;stroke-linecap:round;stroke-linejoin:round;stroke-width:0.5px"/><line x1="106.29" y1="366.78" x2="106.29" y2="366.64" style="fill:none;stroke:#000;stroke-linecap:round;stroke-linejoin:round;stroke-width:0.5px"/><line x1="99.6" y1="370.5" x2="67.51" y2="351.97" style="fill:none;stroke:#000;stroke-linecap:round;stroke-linejoin:round;stroke-width:0.5px"/><line x1="99.6" y1="370.64" x2="99.6" y2="370.5" style="fill:none;stroke:#000;stroke-linecap:round;stroke-linejoin:round;stroke-width:0.5px"/></g><g id="door"><polyline points="99.01 360.23 99.01 307.01 99.6 306.76 99.6 362.34" style="fill:none;stroke:#000;stroke-linecap:round;stroke-linejoin:round;stroke-width:0.5px"/><polyline points="81.06 351.64 82.51 350.7 82.51 297.48 80.88 295.95 80.88 351.54" style="fill:none;stroke:#000;stroke-linecap:round;stroke-linejoin:round;stroke-width:0.5px"/><polyline points="80.88 351.54 82.51 350.7 99.01 360.23 99.6 362.34" style="fill:none;stroke:#000;stroke-linecap:round;stroke-linejoin:round;stroke-width:0.5px"/><polygon points="82.51 297.48 80.88 295.95 99.6 306.76 99.01 307.01 82.51 297.48" style="fill:none;stroke:#000;stroke-linecap:round;stroke-linejoin:round;stroke-width:0.5px"/><polyline points="233.01 282.87 233.01 229.65 233.59 229.4 233.59 284.99" style="fill:none;stroke:#000;stroke-linecap:round;stroke-linejoin:round;stroke-width:0.5px"/><polyline points="214.87 274.18 216.5 273.34 233.01 282.87 233.59 284.99" style="fill:none;stroke:#000;stroke-linecap:round;stroke-linejoin:round;stroke-width:0.5px"/><polygon points="216.5 220.12 214.87 218.59 233.59 229.4 233.01 229.65 216.5 220.12" style="fill:none;stroke:#000;stroke-linecap:round;stroke-linejoin:round;stroke-width:0.5px"/><polyline points="216.5 247.42 216.5 220.12 214.87 218.59 214.87 246.61" style="fill:none;stroke:#000;stroke-linecap:round;stroke-linejoin:round;stroke-width:0.5px"/><polyline points="216.5 259.52 216.5 273.34 214.87 274.18 214.87 260.46" style="fill:none;stroke:#000;stroke-linecap:round;stroke-linejoin:round;stroke-width:0.5px"/><path d="M414.67,176.88,385.9,160.27v53.82c5.53,4.13,10.08,12.22,10.09,19.28l18.68,10.79Z" style="fill:none;stroke:#000;stroke-linecap:round;stroke-linejoin:round;stroke-width:0.5px"/></g><g id="windows"><line x1="299.07" y1="230.41" x2="299.79" y2="230" style="fill:none;stroke:#000;stroke-linecap:round;stroke-linejoin:round;stroke-width:0.25px"/><line x1="299.07" y1="223.25" x2="299.07" y2="230.41" style="fill:none;stroke:#000;stroke-linecap:round;stroke-linejoin:round;stroke-width:0.25px"/><line x1="299.07" y1="235.99" x2="299.07" y2="230.41" style="fill:none;stroke:#000;stroke-linecap:round;stroke-linejoin:round;stroke-width:0.25px"/><line x1="279.95" y1="234.29" x2="279.86" y2="247.08" style="fill:none;stroke:#000;stroke-linecap:round;stroke-linejoin:round;stroke-width:0.25px"/><line x1="315.77" y1="213.61" x2="315.77" y2="220.49" style="fill:none;stroke:#000;stroke-linecap:round;stroke-linejoin:round;stroke-width:0.25px"/><line x1="315.77" y1="220.49" x2="328.6" y2="213.09" style="fill:none;stroke:#000;stroke-linecap:round;stroke-linejoin:round;stroke-width:0.25px"/><line x1="328.6" y1="213.09" x2="328.6" y2="206.2" style="fill:none;stroke:#000;stroke-linecap:round;stroke-linejoin:round;stroke-width:0.25px"/><line x1="253.82" y1="243.39" x2="253.82" y2="262.71" style="fill:none;stroke:#000;stroke-linecap:round;stroke-linejoin:round;stroke-width:0.25px"/><line x1="253.82" y1="262.71" x2="266.56" y2="255.35" style="fill:none;stroke:#000;stroke-linecap:round;stroke-linejoin:round;stroke-width:0.25px"/><line x1="266.56" y1="255.35" x2="266.56" y2="242.02" style="fill:none;stroke:#000;stroke-linecap:round;stroke-linejoin:round;stroke-width:0.25px"/><line x1="627.78" y1="315.38" x2="628.15" y2="315.59" style="fill:none;stroke:#000;stroke-linecap:round;stroke-linejoin:round;stroke-width:0.25px"/><line x1="627.78" y1="308.22" x2="627.78" y2="315.38" style="fill:none;stroke:#000;stroke-linecap:round;stroke-linejoin:round;stroke-width:0.25px"/><line x1="627.78" y1="315.8" x2="627.78" y2="315.38" style="fill:none;stroke:#000;stroke-linecap:round;stroke-linejoin:round;stroke-width:0.25px"/><line x1="608.8" y1="297.26" x2="608.89" y2="310.06" style="fill:none;stroke:#000;stroke-linecap:round;stroke-linejoin:round;stroke-width:0.25px"/><line x1="642.81" y1="316.9" x2="642.81" y2="323.79" style="fill:none;stroke:#000;stroke-linecap:round;stroke-linejoin:round;stroke-width:0.25px"/><line x1="642.81" y1="323.79" x2="655.64" y2="331.19" style="fill:none;stroke:#000;stroke-linecap:round;stroke-linejoin:round;stroke-width:0.25px"/><line x1="655.64" y1="331.19" x2="655.64" y2="318.2" style="fill:none;stroke:#000;stroke-linecap:round;stroke-linejoin:round;stroke-width:0.25px"/><line x1="580.86" y1="281.13" x2="580.86" y2="294.47" style="fill:none;stroke:#000;stroke-linecap:round;stroke-linejoin:round;stroke-width:0.25px"/><line x1="580.86" y1="294.47" x2="593.6" y2="301.82" style="fill:none;stroke:#000;stroke-linecap:round;stroke-linejoin:round;stroke-width:0.25px"/><line x1="593.6" y1="301.82" x2="593.6" y2="288.49" style="fill:none;stroke:#000;stroke-linecap:round;stroke-linejoin:round;stroke-width:0.25px"/><line x1="165.08" y1="300.61" x2="165.08" y2="307.77" style="fill:none;stroke:#000;stroke-linecap:round;stroke-linejoin:round;stroke-width:0.25px"/><line x1="165.08" y1="313.35" x2="165.08" y2="307.77" style="fill:none;stroke:#000;stroke-linecap:round;stroke-linejoin:round;stroke-width:0.25px"/><line x1="145.96" y1="311.65" x2="145.86" y2="324.44" style="fill:none;stroke:#000;stroke-linecap:round;stroke-linejoin:round;stroke-width:0.25px"/><line x1="181.78" y1="290.97" x2="181.78" y2="297.85" style="fill:none;stroke:#000;stroke-linecap:round;stroke-linejoin:round;stroke-width:0.25px"/><line x1="181.78" y1="297.85" x2="194.61" y2="290.45" style="fill:none;stroke:#000;stroke-linecap:round;stroke-linejoin:round;stroke-width:0.25px"/><line x1="194.61" y1="290.45" x2="194.61" y2="283.56" style="fill:none;stroke:#000;stroke-linecap:round;stroke-linejoin:round;stroke-width:0.25px"/><line x1="119.83" y1="320.75" x2="119.83" y2="340.07" style="fill:none;stroke:#000;stroke-linecap:round;stroke-linejoin:round;stroke-width:0.25px"/><line x1="119.83" y1="340.07" x2="132.57" y2="332.71" style="fill:none;stroke:#000;stroke-linecap:round;stroke-linejoin:round;stroke-width:0.25px"/><line x1="132.57" y1="332.71" x2="132.57" y2="319.38" style="fill:none;stroke:#000;stroke-linecap:round;stroke-linejoin:round;stroke-width:0.25px"/><line x1="165.08" y1="307.77" x2="165.79" y2="307.36" style="fill:none;stroke:#000;stroke-linecap:round;stroke-linejoin:round;stroke-width:0.25px"/><polygon points="381.92 163.31 384.37 164.72 384.37 193.62 373.19 187.17 381.92 163.31" style="fill:none;stroke:#000;stroke-linecap:round;stroke-linejoin:round;stroke-width:0.25px"/><polygon points="386.73 194.99 386.73 166.08 408.71 178.77 408.71 207.68 386.73 194.99" style="fill:none;stroke:#000;stroke-linecap:round;stroke-linejoin:round;stroke-width:0.25px"/></g><g id="wheels"><path d="M392.89,232.45a5.53,5.53,0,0,1-3.59-.93" style="fill:none;stroke:#000;stroke-linecap:round;stroke-linejoin:round;stroke-width:0.5px"/><path d="M389.3,231.52c-4.32-2.5-9.63-10.78-6-15.69" style="fill:none;stroke:#000;stroke-linecap:round;stroke-linejoin:round;stroke-width:0.5px"/><path d="M393.54,231.17c-1.08,3.21-4.07,3.23-6.65,1.74" style="fill:none;stroke:#000;stroke-linecap:round;stroke-linejoin:round;stroke-width:0.5px"/><path d="M386.9,232.91c-3.8-2.19-5.5-5-6.58-9.13s-.25-9.19,4.83-7.76" style="fill:none;stroke:#000;stroke-linecap:round;stroke-linejoin:round;stroke-width:0.5px"/><path d="M377.62,210.94c-4.11,3.66-2.38,11.18-.75,15.17,2.17,5.29,4.89,9.26,10,12.22,3.91,2.26,8.76,2.65,10.91-2.14" style="fill:none;stroke:#000;stroke-linecap:round;stroke-linejoin:round;stroke-width:0.5px"/><path d="M509.09,299.54a5.53,5.53,0,0,1-3.59-.93" style="fill:none;stroke:#000;stroke-linecap:round;stroke-linejoin:round;stroke-width:0.5px"/><path d="M505.49,298.61c-4.32-2.5-9.63-10.78-6-15.69" style="fill:none;stroke:#000;stroke-linecap:round;stroke-linejoin:round;stroke-width:0.5px"/><path d="M509.83,298c-.95,3.41-4,3.62-6.74,2" style="fill:none;stroke:#000;stroke-linecap:round;stroke-linejoin:round;stroke-width:0.5px"/><path d="M503.09,300c-3.81-2.2-5.51-5.06-6.58-9.16s-.18-9.2,4.9-7.72" style="fill:none;stroke:#000;stroke-linecap:round;stroke-linejoin:round;stroke-width:0.5px"/><path d="M493.75,278.1c-4,3.71-2.3,11.17-.66,15.15,2.17,5.27,4.89,9.23,10,12.18,3.89,2.25,8.73,2.66,10.9-2.11" style="fill:none;stroke:#000;stroke-linecap:round;stroke-linejoin:round;stroke-width:0.5px"/><line x1="515.26" y1="304.04" x2="511.65" y2="306.12" style="fill:none;stroke:#000;stroke-linecap:round;stroke-linejoin:round;stroke-width:0.5px"/><line x1="399.09" y1="236.93" x2="395.45" y2="239.04" style="fill:none;stroke:#000;stroke-linecap:round;stroke-linejoin:round;stroke-width:0.5px"/><path d="M626.66,356.9a4.51,4.51,0,0,1-2.66-1.55" style="fill:none;stroke:#000;stroke-linecap:round;stroke-linejoin:round;stroke-width:0.5px"/><path d="M631.29,360c-2.11,2.49-5.43.88-7.4-.74a15.15,15.15,0,0,1-4.69-6.71" style="fill:none;stroke:#000;stroke-linecap:round;stroke-linejoin:round;stroke-width:0.5px"/><path d="M626.66,356.89a4.53,4.53,0,0,1-2.6-1.5" style="fill:none;stroke:#000;stroke-linecap:round;stroke-linejoin:round;stroke-width:0.5px"/><line x1="282.2" y1="284.06" x2="280.68" y2="283.18" style="fill:none;stroke:#000;stroke-linecap:round;stroke-linejoin:round;stroke-width:0.5px"/><path d="M288.53,278.65a4.47,4.47,0,0,1-2.68,1.55" style="fill:none;stroke:#000;stroke-linecap:round;stroke-linejoin:round;stroke-width:0.5px"/><path d="M293.38,275.85a15,15,0,0,1-4.84,6.83c-2.12,1.69-5.54,3.14-7.47.28" style="fill:none;stroke:#000;stroke-linecap:round;stroke-linejoin:round;stroke-width:0.5px"/><path d="M282.2,284.05l-.24-.15" style="fill:none;stroke:#000;stroke-linecap:round;stroke-linejoin:round;stroke-width:0.5px"/><path d="M282.75,284.32A3.22,3.22,0,0,1,281,283" style="fill:none;stroke:#000;stroke-linecap:round;stroke-linejoin:round;stroke-width:0.5px"/><path d="M288.49,278.67a4.53,4.53,0,0,1-2.61,1.5" style="fill:none;stroke:#000;stroke-linecap:round;stroke-linejoin:round;stroke-width:0.5px"/><path d="M154.54,356a4.46,4.46,0,0,1-2.68,1.55" style="fill:none;stroke:#000;stroke-linecap:round;stroke-linejoin:round;stroke-width:0.5px"/><path d="M159.39,353.21a15,15,0,0,1-4.84,6.83c-2.12,1.69-5.54,3.14-7.47.28" style="fill:none;stroke:#000;stroke-linecap:round;stroke-linejoin:round;stroke-width:0.5px"/><path d="M154.5,356a4.53,4.53,0,0,1-2.61,1.5" style="fill:none;stroke:#000;stroke-linecap:round;stroke-linejoin:round;stroke-width:0.5px"/></g><g id="roof"><polyline points="157.77 222.22 63.5 276.65 63.5 276.7 56.77 280.58 118.28 311.46 223.29 250.83 161.78 219.95 157.81 222.24" style="fill:none;stroke:#000;stroke-linecap:round;stroke-linejoin:round;stroke-width:0.5px"/><polyline points="291.76 144.86 197.49 199.29 197.49 199.34 190.76 203.22 252.27 234.1 357.29 173.47 295.77 142.59 291.81 144.88" style="fill:none;stroke:#000;stroke-linecap:round;stroke-linejoin:round;stroke-width:0.5px"/><polyline points="417.07 168.46 495.67 123.08 462.5 106.74 383.89 152.13" style="fill:#ff0606;opacity:0.5"/><polygon points="495.67 123.08 604.75 188.87 526.15 234.26 417.07 168.46 495.67 123.08" style="fill:#ff0606;opacity:0.5"/><polyline points="252.27 234.1 256.28 236.41 361.29 175.78 357.29 173.47" style="fill:none;stroke:#000;stroke-linecap:round;stroke-linejoin:round;stroke-width:0.5px"/><polyline points="118.28 311.46 122.28 313.77 227.3 253.14 223.29 250.83" style="fill:none;stroke:#000;stroke-linecap:round;stroke-linejoin:round;stroke-width:0.5px"/><polygon points="559.26 257.12 664.27 317.75 668.28 315.44 563.27 254.81 559.26 257.12" style="fill:#540063;stroke:#530463;stroke-miterlimit:10;opacity:0.5"/><polyline points="668.28 315.44 729.79 284.56 725.78 282.24 725.78 282.19 631.5 227.76 631.46 227.79 624.78 223.93 563.27 254.81" style="fill:#540063;stroke:#530463;stroke-miterlimit:10;opacity:0.5"/></g><g id="SHADOW"><g id="shadow-2" data-name="shadow"><polygon points="678.62 386.85 672.29 380.82 672.29 347.81 682.99 341.64 682.99 330.29 664.27 317.75 725.78 282.24 725.78 298.14 767.59 322.33 723.49 359.71 678.62 386.85" style="opacity:0.2;mix-blend-mode:hard-light"/><polygon points="527.44 311.08 535.25 317.89 578.02 293.39 578.02 279.49 569.99 274.86 569.99 264.91 559.26 257.27 624.78 223.93 645.08 235.74 649.1 232.16 604.75 204.31 604.75 188.87 526.15 234.26 527.44 311.08" style="opacity:0.2;mix-blend-mode:hard-light"/><polygon points="381.92 193.22 383.4 227.4 354.11 249.54 259 305.37 240.28 291.74 233.59 295.6 203.68 278.33 205.37 277.35 205.31 266.43 218.63 259.52 250.98 276.15 250.98 266.01 254.99 268.32 259 269.5 264.69 267.32 333.9 227.28 336.37 224.25 336.15 222.13 331.94 218.36 251.56 264.57 251.56 242.09 259 242.02 259 234.99 342.85 186.57 354.11 187.98 368.98 186.73 381.92 193.22" style="opacity:0.2;mix-blend-mode:hard-light"/><polygon points="83.56 363.7 108.61 379.32 114.31 375.28 117.57 377.35 120.28 375.79 126.2 383.47 227.3 323.24 228.31 318.29 255.45 302.78 250.98 300.61 249.84 298.7 240.28 291.74 233.59 295.6 203.68 278.33 205.37 277.35 205.31 266.43 125.01 312.35 125.01 320.27 116.99 317.95 117.57 341.11 197.39 296.05 201.23 298.27 202.26 299.76 202.38 301.61 200.24 303.69 132.44 342.61 117.57 342.27 116.99 367.94 109.01 365.6 83.73 361.34 83.56 363.7" style="opacity:0.2;mix-blend-mode:hard-light"/></g></g></g><g id="circles"><ellipse cx="213.6" cy="352.38" rx="35.29" ry="15.87" style="fill:gray;opacity:0.75"/><ellipse cx="293.38" cy="355.44" rx="35.29" ry="15.87" style="fill:#17a200;opacity:0.75"/><ellipse cx="319.2" cy="296.17" rx="35.29" ry="15.87" style="fill:gray;opacity:0.75"/><ellipse cx="349.5" cy="282.3" rx="35.29" ry="15.87" style="fill:#ff0606;opacity:0.75"/><ellipse cx="405.62" cy="350.7" rx="35.29" ry="15.87" style="fill:#ff0606;opacity:0.75"/><ellipse cx="421.54" cy="305.68" rx="35.29" ry="15.87" style="fill:gray;opacity:0.75"/><ellipse cx="584.97" cy="382.94" rx="35.29" ry="15.87" style="fill:#f9086a;opacity:0.75"/><ellipse cx="604.76" cy="440.15" rx="35.29" ry="15.87" style="fill:#17a200;opacity:0.75"/></g><g id="people"><path d="M224,356.71h-.43c0-.6.12-1.64-.31-1.8-.11.1-.35,0-.52.09l-1,.49-1.77,1.28c-.89.43-4.43-.11-5-.4l0-.49c.63-.74,2.81-.22,3.18-1.38l-.12-.95c-.17-1-.35-2.06-.52-3.09-.29-2-.44-4.64-.86-6.81l-.34-3.6c-.1-.41-.56-.47-.7-1.07-.26-1.1-.62-4.14-1.19-4.74-.07.06-.06,0-.09.15-.34.28-.46,1-.67,1.44l-1.25,2.35-.55,1.8c-.54,1.48-1.33,2.87-2,4.34l-.25,1c-.68,1.7-1.17,3.52-1.89,5l-1.16,2.81a2.29,2.29,0,0,0-.67.7c-.18.38-.47,1.51-.86,1.53l-.24-.12a3.76,3.76,0,0,0,.37-1.86c-.08-.21-.18-.08-.18-.31-.27.09-.78-.12-1.28,0-.78.14-1.76.74-2.63.58a6.83,6.83,0,0,1-1.92-.92c-.45-.24-1.55-.66-1.44-1.31.94-.31,2.9.83,3.51-.27l0-.15-.34-.49a3.3,3.3,0,0,1,.49-.89c.4-.69.71-1.4,1.1-2,1.23-2.07,2.1-4.29,3.42-6.23l.46-.4a9,9,0,0,0,1.28-1.92c.26-.57-.52-1.12-.28-1.93l1-2.57.37-.34.09-.67.64-1.71.52-2c.31-.65.48-1.45.76-2.17A14.07,14.07,0,0,0,212,324a7.39,7.39,0,0,0-.27-1.47c-.18-1.84.07-3.65-.73-5a9.3,9.3,0,0,1-1.41.28c-1.07-.31-2.62-2.11-2.14-3.64.2-.64.61-.74,1-1.16l.43-.95,1-1.07c.22-.38,0-1.06.15-1.47l.43-1a12.25,12.25,0,0,1,.43-1.74l.7-1.16c.36-1,.9-3.42.12-4-.58-.23-1.15,0-1.53-.43a3.17,3.17,0,0,0-.06-.95l.21-.15-.4-.37a.73.73,0,0,0,.06-.43l-.55-.28,0-.27c.22-.52.66-.76.7-1.44s-.79-2.36-.34-3c.25-.37.54-.2,1-.4s.73-.58,1.16-.67a11.2,11.2,0,0,0,1.13-.09c.17,0,.23,0,.43,0,.47-.1.93-.5,1.59-.61,1.29-.22,2.53,1.17,3,1.89.89,1.48,1,3.84,1.38,5.81.18,1,0,2.34.46,3l.52-.21c.12.14.15.17.28,0l.15-.06v0a5.73,5.73,0,0,1-.61.58l0,.12c.2,0,.11,0,.15.18s.16.07.34,0l.06.15c-.31.85-.72.68-1.28,1.19-.05,0,0,.22-.18.27h-.49v0l.52,1.62.21,0,.49.76c.2.77,0,1.47.21,2.32.54,1.77,1,3.69,1.59,5.53l1.47,4.64.86.09a2.46,2.46,0,0,1,1.13,1.74c0,.21-.16.22-.21.34a11.18,11.18,0,0,0,0,1.53c-.12.73.09,1.81-.24,2.32-1.62.14-2.51,1.77-4.34.83-.16.15-.48.34-.55.55a5.24,5.24,0,0,0,0,2.44q.06,1.36.12,2.72v1.62c.11.32.4.53.49.95s0,.85,0,1.28.58,1,.76,1.44c.36.86.51,2.19.89,3.12l.18,1.13.7,2.81,1,3.42.34,2.14.55,2.69a3.47,3.47,0,0,1-.92.61C224.07,354.94,224,355.9,224,356.71Zm-4.64-48.46a6.7,6.7,0,0,0,.31,1.47c.1.62-.32.81-.21,1.41.33.38.81,1.29.37,2l-.52.46v.28l.37.46c.26.65-.36.91-.43,1.37.63.49.05.61.21,1.19l.27.43c0,.2,0,.41,0,.61l.61.89.55,1.19,2,.46v-.15l-.64-2.72-1.83-6.05C220.19,310.88,219.72,308.52,219.35,308.25Zm4.95,43.88c0,.08.07.09.09,0Zm-21.63.92c0,.08.07.09.09,0Zm2.47.18c0,.08.07.09.09,0Zm-4.43.15c0,.08.07.09.09,0Zm4.92.12c0,.08.07.09.09,0Zm0,.27,0,.18h.09c0-.06,0,0,.06-.06v-.12Zm17.85.73c.06.11,0,.05.12.09v-.09Zm.34.25c0,.08.07.09.09,0Zm-5.71.06c0,.08.07.09.09,0Zm4.4,0c0,.09,0,0-.06.09s0,.07.12.12l0-.22Zm1.1,0c0,.08.07.09.09,0Zm-5,.12c0,.08.07.09.09,0Zm5,.09c.05.12,0,.08.15.12v-.09h-.06Zm-2.14.24c0,.08.07.09.09,0Zm2.17,0c0,.08.07.09.09,0Zm.12,0c0,.08.07.09.09,0Zm-2.41.12c0,.08.07.09.09,0Z" style="fill-rule:evenodd"/><path d="M589.72,308.05c.86,0,1.06.42,1.69.56a4.48,4.48,0,0,1,2.95,1.78c.19.38,0,.8.09,1.17l.28,1-.94,2.29-.28,2.81a17.73,17.73,0,0,0-.84,1.87l1.78.94a9.67,9.67,0,0,1,3.7,2.81c.68,1,.79,2.38,1.26,3.6.7,1.8,1.73,3.5,2.34,5.38a13.2,13.2,0,0,1,.23,2.39l.61,1.59-.14.28.23.61a9.35,9.35,0,0,1,.47,3.28c0,.61-.06,1.22-.09,1.83s.47.78.56,1.26-.19.7-.23,1l.37,1.4c.36,1.92-1.54,3.81-3.09,2.81l-.09-.56c.23-.23.63-.36.84-.61l-.8.33-.09-.09c-.14-.89-.74-1.89-.56-2.95.12-.72.84-1.1.66-2.06a7.59,7.59,0,0,0-1-1.87c-.47-.94-.55-2.07-1-3.09l-.84-1.64-.09.09a14.38,14.38,0,0,1-.33,4.68c-.52.14-1.34.09-1.69.33l0,.14a12.85,12.85,0,0,1,.52,5.05c-.34,2.08-1,3.91-1.36,5.9l-.33,3a45,45,0,0,1-1.31,4.49c-.68,2-.41,4.22-1.68,5.52l.75,3.23c.23,1.23.09,2.9.42,4l.51,1.83c.54.18,1.36-.06,1.83.14.22.48.95.78.7,1.68s-1.21,1.48-1.87,1.92c-1.34.88-.49,2.31-3.18,2.29a3.89,3.89,0,0,1-1.5-.19.85.85,0,0,1-.28-.84c.52-1.82-.59-2.28-.61-4.12l-.09,0-1.83,4.82c-.44.56-1.87,1.56-1.4,2.76l.84,1.12,1.12.42c.4.27,1.29,1.46.7,2.2-.36.78-1.59.68-2.48.42-2.34-.69-5.27-1.1-7.21-2.29l0-.33.33-.61c.57,0,.69-.25,1.22,0a7.26,7.26,0,0,1,.14-3.46l-.14-1.92a7.72,7.72,0,0,1,1-2c.52-1,.8-2.15,1.26-3.14l1.17-3.37,1.45-3.33a34.82,34.82,0,0,0,.56-3.51l.75-2.57c.32-1.66-.67-2.06-1-3l-.61-3.14c-.59-1.45-1.42-2.9-1.92-4.31-.57-1.61-1.8-5.06-1.36-6.69.2-.72.11-2.16-.33-2.3a.65.65,0,0,1-.61.1l-.28-.19c-.07-.66-.14-3.8-.42-4.12l-.38.33c-.85,2.08-.4,6.36.38,8.33.68,1.75,1.84,3.29,1.26,5.62l-.33,0c0,.36,0,.72,0,1.08l-.09,0a2.54,2.54,0,0,1-1.69-.42c-.64-.39-1.38-.34-1.73-1-.7-1.38.23-3.33-.1-5.1-.39-2.13-1.18-3.95-1.64-5.94-.25-1.08,0-2.25-.14-3a1.81,1.81,0,0,1-.65-.52l.52-1,1.12-3.37c1-3.22,1.78-7.39,3.65-9.69a10,10,0,0,1,3.51-2.43c.7-.29,1.5-.28,1.92-.84l-.47-.37a2.82,2.82,0,0,1,.37-1.45l-.33.1v-.1a6.1,6.1,0,0,1-.14-1.08c.37-.09.12-.28.33-.51l.19.33.28-.23c-.07-.17-.06-.13,0-.37-.23,0-.22-.08-.09-.33l-.28.09v0l.24-.33v0c-.27,0-.26,0-.33-.23a.65.65,0,0,0,.51,0c.29-.9.62-2,.8-2.9,0-.25,0-.5,0-.75s.59-.53.8-.84.29-.74.65-1C588,308.37,589,308.41,589.72,308.05Zm-11,22.42,0,.09.24,0Zm0,.14.14.14v-.14Zm.19.38,0,.23Zm17.6.47v.14l0-.14Zm-17.32.75v.14l.09,0Zm-.09.66c0,.18.07.11,0,.33l.19-.09Zm17.5.19v.14h.14Zm-.28.61v.19l.09-.19Zm-.19.23V334l0-.14Zm.23,0c0,.16-.05.1,0,.23l.1,0v0A.83.83,0,0,0,596.32,333.94Zm-17.55.33v.14l0-.14Zm17.51,0v.14l0-.14Zm.28.28c-.08.25-.08.3.09.61h0l.09,0A1.71,1.71,0,0,0,596.55,334.55Zm-18,.42v0Zm18.35.51v.19c-.17-.12,0-.08-.28-.09v0l.23.28c.07-.13.17-.06,0-.14l.14-.28Zm.47.19-.19.23h.09v.19l.14-.09C597.4,335.9,597.42,335.71,597.39,335.67Zm.09.75a.92.92,0,0,0,0,.61h0C597.56,336.66,597.57,336.57,597.49,336.42Zm-.19,1,.14,0Zm4.07,8.14-.37.19.14.61.19-.14c0-.29.13-.42.09-.66Z" style="fill-rule:evenodd"/><path d="M604.24,360.67c3.67,0,4,2.65,5.56,4.74a16.66,16.66,0,0,1,2.28,3.46c.47,1.13,1.26,4.19-.06,5l.17-.59-.12-.17a.92.92,0,0,1-.41.7l.18-.82a1.05,1.05,0,0,0-.7.93l-.18-.12-.12-.35-.12.06-.23.58h-.12v-.29l.18-1.06h-.18c-.15.41-.37.57-.53,1.06.29.44.81.57,1.23.88a14.44,14.44,0,0,1,2.69,2.69c1.07,1.43,1.36,3.38,2.81,4.45a7.17,7.17,0,0,1-1.4,2l1.17,2.75a15.89,15.89,0,0,1,1.46,2.17c1.15,2.6,2,5.07,3.34,7.49.65,1.2,2.12,3.57.35,4.57-.25.08-.51.16-.82.23-.19-.3-.33-.27-.35-.76-.09-.23.06-.48-.06-.76-.26-.63-1.08-1.18-1.34-1.93-.37-1,.06-2.26-.53-3.1-1.26-1.81-3.55-3.13-4.51-5.21-.38-.82-.32-1.75-.64-2.52l-.53-1-.76-.17c-.7-.64-.87-2.18-1.7-2.87l-.23-.06-.23.18a14.3,14.3,0,0,1,.06,1.75c-.3,1.3-1.59,2-1.23,3.81.94.27,1.52,2.31,1.17,3.8-.07.31-.31.61-.23.94s.35.14.59.29l2.28,2.52L612,397c-.14.77.44.9.53,1.46l-.17.93q.06,1.88.12,3.75a4,4,0,0,1-.76,2.46l-.82.53c-.44.65-.3,1.85-.47,2.75l-.35.24h-.12l-.23-.29a5.14,5.14,0,0,0,0-2.17c-.59,0-1.47-.07-1.76.23a17.21,17.21,0,0,0-.88,3.22c-.67,2.45-1.16,5.15-1.64,7.73v3.4a66.49,66.49,0,0,1-1.05,6.73c-.46,1.77.5,5.13-.76,6.2.29.92.75,1.24.29,2.11l.06.12a.87.87,0,0,0,.47-.12c0-.38,0-.37-.18-.59a.74.74,0,0,1,.41.17v.3c-.1.36-.26.35-.58.46v.3c.44.28.52.67.88,1,.75.66,1.91,1.08,1.64,2.58-.75.95-5.84,1.57-7.26.7,0-2,.84-3.79,1.23-5.33,0-1.42,0-2.85-.06-4.27l-.47-.3a5.59,5.59,0,0,1,.06-2l.41-.59q-.14-2.23-.29-4.45l-.82-2.11-.88-3.86a9,9,0,0,1,.18-2.93q-.12-2.26-.23-4.51l-1.23-3.45-.82-.59c-.49-.75-.62-2.2-1.34-2.69a.57.57,0,0,0-.59.12,4.43,4.43,0,0,1-1.41,2.51H593a9.7,9.7,0,0,1-1.46-1.52,3.61,3.61,0,0,0,.23-1.81c-.15-.56-.89-.7-.7-1.58.32-1.5,1.48-2.63,1.7-4.22-1.38-2.31,0-1.74.41-3.28.34-1.28-.7-2.15-.82-3.16a14.94,14.94,0,0,0,2.4-1.23c.46-2-.22-4.65-.7-6.85-1.36.38-1.68,2.53-2.46,3.51l-2.28,3c-1,1.27-2.4,2.41-3.16,3.92l-.64,1.76V397a8.83,8.83,0,0,1-2.28,3.68,1,1,0,0,1,.18.65l-.12.12h-.18c-.81-1.1-1.89-3-1.4-4.68.29-1.05,1.51-1.53,1.87-2.52a22.39,22.39,0,0,1,2.22-3.87c1.16-2,1.81-4.15,3.1-6,.31-.45.82-.73,1.11-1.23,1-1.72-.32-1.74-.06-2.87l1.46-2.63.23-1.58a13.08,13.08,0,0,1,2.75-3.28,7.85,7.85,0,0,1,3-.7l.29-.29-.29-.7a1.47,1.47,0,0,0,.82.17,2.48,2.48,0,0,1,0-.7l.41.29c1.82-1.45,1.08-4.48,1.93-7C601.18,362,602.48,361.44,604.24,360.67Zm5.74,8.07a9,9,0,0,0,0,4h.18c.42-1.11,1.36-3.11,0-4Zm1.23,1.93-.23.88H611l.12-.06.29-.46-.12-.35Zm.29,1.35-.7.64.06.53.23.06c.21-.36.55-.76.47-1.23Zm-1.93.23V373h.17v-.59l-.06-.18Zm0,1.35.17.24v-.24Zm10.65,24.18a.68.68,0,0,0-.12.41l.35.46h.29v-.23l-.35-.64Z" style="fill-rule:evenodd"/><path d="M345.64,219.93c.13-.7.89-1.28,1.13-1.52a3.46,3.46,0,0,1,.61-.55,2.65,2.65,0,0,1,1-.24c.31,0,.92-.34,1.41,0s1.56.83,1.68,1a4.62,4.62,0,0,1,.77,1.13,13.79,13.79,0,0,1,.4,2c0,.18.16.74-.06,1.07a2.81,2.81,0,0,0-.46,1.22,2.34,2.34,0,0,1-.25.83,7.24,7.24,0,0,1,.67,1c.21.4.09.58.58.73a2,2,0,0,1,1.07.62c.43.43.74.68,1,.89a1.67,1.67,0,0,1,.58,1,17.15,17.15,0,0,1,1,2.91v1.47c0,.34,0,.88,0,1.13a1.54,1.54,0,0,0,0,.67,7.65,7.65,0,0,1,.06,1c0,.21,0,1.84,0,2.29s.09,1.86.09,2.36v1.31a3,3,0,0,1-.12,1.41,15.67,15.67,0,0,0-.68,1.56,5.8,5.8,0,0,1-.21,1.63c-.21.42-.28,1.12-.46,1.44a1.47,1.47,0,0,0-.34.79c0,.3.18.06.09.7a4,4,0,0,1-.21,1.34,2.3,2.3,0,0,0-.18,1.29c0,.51.31,2.11.31,2.11l-.7-.64a3.82,3.82,0,0,0-.06.49c0,.15.19.12.12.33s-.31.22-.34.62.21.39.21.63a2.18,2.18,0,0,1-.12.8c-.12.37-.25.39-.19.64s.49.86.52,1.13a4.57,4.57,0,0,1,0,1.29,1.94,1.94,0,0,0-.18.7c0,.19.18.58.31,1s.34.88.46,1.46,0,1,.12,1.22,0,.61.15.95,1.1,3,1.16,3.52.25,1.35.27,2.11.49,4.92.49,5.45.06,1.32.09,1.77a24.24,24.24,0,0,1,.19,2.45c-.06.34-.28.3-.15.64s.25.77.31.92.28,0,.31.33.31.64.09.89a2.82,2.82,0,0,1-.83.5c-.21.12-.49.05-.61.12s-.25-.12-.31,0a2.55,2.55,0,0,1-.91,1.25,3.36,3.36,0,0,1-1.38.43c-.55.09-1.77.31-2.3.37a1.28,1.28,0,0,1-1.07-.21c-.27-.22-.49-.31-.19-.71a3.46,3.46,0,0,1,.7-.77c.25-.18.52-.27.77-.49s.64-.22.83-.64.27-.46.31-.82,0-.8,0-1a1.62,1.62,0,0,0-.09-.49,11.65,11.65,0,0,0-1.44-.18,12.25,12.25,0,0,0-1.47,0,5.14,5.14,0,0,0-1,.18,4.44,4.44,0,0,1-1.1.37,12.75,12.75,0,0,1-1.38.1c-.37,0-.7,0-1.25,0s-.86.18-1.19,0-.67-.4-.64-.55a1,1,0,0,1,.24-.37s-.64-.24.28-.28a4.34,4.34,0,0,0,1.59-.28,5.11,5.11,0,0,1,1-.37,2.68,2.68,0,0,0,.83-.34c.31-.15.28-.13.58-.61a3,3,0,0,0,.46-1.07,7.41,7.41,0,0,1,.52-1.07s-.49-2.78-.49-3.27,0-.77,0-1,.12-.49,0-.74-.43-.7-.58-1.07S347,265.7,347,265.43s-.24-1.44-.28-1.84-.3-2.11-.3-2.23-.12-1.57-.12-1.57l-.79-2.14s-.79-2.21-.83-2.46-.28-1.34-.31-1.56a3.62,3.62,0,0,1-.06-.88c0-.4,0-.93,0-1.23a4.42,4.42,0,0,1,.24-.89,6.64,6.64,0,0,0-.34-1.5c-.06-.34-.15-1.26-.15-1.26l-.43-.37s-.67-.4-.79-.49-.67-.4-.67-.4a2.05,2.05,0,0,0-.86,0c-.55.09-.46.09-.86.16a2.94,2.94,0,0,0-.58.12l-.34-.46.37-.74a1.71,1.71,0,0,1,.61-.73,3.85,3.85,0,0,0,.86-.8c.09-.12.64-.64.64-.76s.55-1.9.71-2.36a7.89,7.89,0,0,0,.31-1.31,3.54,3.54,0,0,1,.52-.95,4.85,4.85,0,0,0,.58-1c0-.25.4-1.14.49-1.44s.83-2.45.89-2.69a17.07,17.07,0,0,1,.7-1.78,8.7,8.7,0,0,0,.31-.85c.09-.19.46-1,.46-1s-.12-.45,0-.64.4-.64.4-.64a1.61,1.61,0,0,0,.21-.61,1.41,1.41,0,0,0-.06-.55c-.06-.15-.46-.59-.61-.59l-.95,0-.31-.34a1.73,1.73,0,0,1-.27-.66,1.55,1.55,0,0,0-.18-.72c-.1-.1,0-.15.06-.23a.22.22,0,0,0,0-.24c-.06-.1,0-.16-.2-.16s-.13-.25-.18-.35a1.13,1.13,0,0,1,0-.39c0-.07-.15-.18-.15-.18l-.39,0a.34.34,0,0,1-.28-.27.64.64,0,0,1,.1-.39l.71-.76s.15-.13.15-.24,0-.4,0-.52a1.82,1.82,0,0,1,0-.52,1,1,0,0,1,.13-.19l.22-.32S345.51,220.64,345.64,219.93Z" style="fill-rule:evenodd"/><path d="M307.08,228.66s4.27.06,5.31.24,1.65.34,2.2.4,4.18.15,4.18.15.09.09,1.28,1.07a14.77,14.77,0,0,0,2.78,2.23c1.83,1.13,4,2,4.3,2.23s.46,1.31,1.4,2.65a10.33,10.33,0,0,0,2.38,2.72c.95.7.61.37,1,1.06a7.08,7.08,0,0,1,1.1,2.47c.3,1.28.55,2.9.55,2.9s-.33,2-.33,2.66-.43,2.26-.37,2.72-.82,0-1.4-.09-2.5-.61-3.51-.76a13.18,13.18,0,0,0-2.08-.12,17,17,0,0,0-1,3.45,20.85,20.85,0,0,1-.36,3.45c-.18.64-.33.46-.18,1a7.43,7.43,0,0,1,.4,2.35,1,1,0,0,1-.52.55,9.47,9.47,0,0,0-.12,2.53,5.9,5.9,0,0,1-.52,1.37,15.6,15.6,0,0,0-.86,3.54c-.06,1.19-.58,3.54-.52,4.56s.49,2.53.49,3.66.49,5.19.52,6.23.12,3.94,0,5.47a31.69,31.69,0,0,1-.46,3.91,4.72,4.72,0,0,0-.25,1.62c0,.73.18,1.1,0,1.16a5.71,5.71,0,0,1-.92.06l-.33.95a2.77,2.77,0,0,1-.92.21,12.06,12.06,0,0,1-2.26-.49,13,13,0,0,0-2.32-.3,10,10,0,0,1-2.78-.71,3.21,3.21,0,0,1-.67-.39s-.06-.37.09-.33-.12-.46.09-.43a9.77,9.77,0,0,0,1.1.15,6.47,6.47,0,0,0,1.68-.15l-.73-.8s-.21-.28,0-.28.18,0,.24-.18.21-.18.46-.18,0-.12.09-.46.52-.64.7-1.16a12.14,12.14,0,0,0,.24-2.93,20.65,20.65,0,0,1-.49-2.17c-.06-.82-.64-4.52-.37-4.82s.43-.28.4-.58-.49-.43-.76-1a61.29,61.29,0,0,1-1-6.29c0-.21-.64-.18-2.29-.57a6,6,0,0,1-2.59-1.13c-.51-.37.58-1.28.58-1.28s0-2.26-.09-2.35-.67-.18-.79-.64a2.91,2.91,0,0,1,.06-1.53,7.64,7.64,0,0,0,.18-1.4l.34-.24a3.67,3.67,0,0,0,.3-.89.79.79,0,0,1,.31-.54l.21-.28s-.09-.09.46-.06a1.82,1.82,0,0,0,.67,0l.3-1.65-.22-.06.15-1.19.25,0s.31-.17.7-1.71c.24-1,.46-2.32.46-2.32a2.53,2.53,0,0,0,.28-.91,2,2,0,0,1,.21-.8,10.67,10.67,0,0,1-1.53,0,3.6,3.6,0,0,1-1.68-1.47,6.44,6.44,0,0,1-.24-2.78c0-.73-.18-1.25.06-1.46l.49-.43s-.18-.09.12-.58.67-.52.58-.76-.27-.37-.15-.73a1.17,1.17,0,0,1,.8-.82,10.06,10.06,0,0,1,1.53-.34s-.58-1.16-1-1.86-1.8-2.93-2.71-4.21-2.17-3.18-2.35-3.36.06-.34.06-1.5-.15-4.42-.25-4.7S307.08,228.66,307.08,228.66Z" style="fill-rule:evenodd"/><path d="M414,303.5l.19,1.37c-.5.24-2.26,1.07-2.78.23,0-.38,0-.77,0-1.15s-.12-1-.15-1.45c0-.75.36-1.41.19-2.34a74.67,74.67,0,0,1-1-13.1c0-1.41.14-3,.11-4.15l.3-2.34c-.39-1.93-.74-4.08-1.19-6.08l-.7-1.71c0-.2,0-.4,0-.59l-.26-1.37a10.36,10.36,0,0,1,.37-2c0-.35,0-.69-.07-1s.55-.83.37-1.45l-.41-.74c-.17-.51,0-1.22-.3-1.6s-1-.35-1.22-.81c-.39-1-.5-2.32-.82-3.34l-.93-2.3.3-1.6c.14-.8-.09-1.72,0-2.45a21.06,21.06,0,0,1,.78-2.11c.14-.54-.38-1-.48-1.34-.19-.68.41-1.07.48-1.56a3.26,3.26,0,0,0-.3-1.3c-.18-.74,0-1.8-.15-2.52l.26-1.33.15-1.34a10.8,10.8,0,0,1,1.08-2.86c1.08-1.93,3.31-2.14,5.86-1.71,1.14.19,2-.45,2.63.48.79,1.09-.31,1.79-.56,2.37a7.27,7.27,0,0,0-.07,1.11l.89,1c0,.35-.2.37-.37.56,0,.56.07,2.54-.19,2.75l-1.11.44c0,.28-.17.54,0,.85.36.05.59.1.63.48h0c-.12,0,0,0-.19,0l-.07.52a9.53,9.53,0,0,1,2.63.63c.51.34.56,1.1.93,1.6s.73.65,1,1a15.14,15.14,0,0,1,1.37,3.12l1,1.74.18,1.3.52.59a8.8,8.8,0,0,1-.48,4.12,2.81,2.81,0,0,1-1.26.85h-1.22c0,.37,0,.74,0,1.11l-.22.82a27,27,0,0,1,.52,5.31c0,.92.73,1.05.44,2.38V273l.67.85a10.72,10.72,0,0,1,.3,1.78l.74,1.78,1.11,4.11.52,2c.22.53.73.75.93,1.37a4.4,4.4,0,0,1,.37,2c-.05.24-.31.54-.19.93l1.41,3,1,2.89.22,1,1.3,2.56.52,1.63.22,1.19.67.75.59.93,0,.26c.06.13.8.5,1,.74s.49,1.17.7,1.37c.7.67,1.94.86,2.75,1.41a1.44,1.44,0,0,0,.11.48,5.59,5.59,0,0,1-1.34,1.11c-2.47,1.12-4.3-1.05-5.57-2-.46,0-.52.25-.78.45a3.33,3.33,0,0,1-1.67-.67,5.47,5.47,0,0,0,0-1.38l-.41-.15a8.75,8.75,0,0,0-.78-2.23l-1.37-3.56c-1.54-4.15-3.08-8.48-5-12.36l-1.78-3.79c-.17-.4-.36-1.5-.78-1.63a12.53,12.53,0,0,0-.67,3.9,13.48,13.48,0,0,1,.33,4,31.69,31.69,0,0,0-.22,7.72c.2,1.41,0,2.77.26,4l.08.85,1,1,.63-.3a1.31,1.31,0,0,1,1.71,1.11,4.64,4.64,0,0,1-3.42,1.6Z" style="fill-rule:evenodd"/><path d="M291.66,288.81a3.62,3.62,0,0,1,1.65.91c1.58,1.76,1.27,3.79,2.18,6.11.48,1.23,1.43,2.49,1.79,3.65,0,.59.09,1.17.14,1.76.35,1.25,1.21,2.3,1.55,3.65.43,1.71-.34,3.56,0,5.4s.85,3.28,1.19,5.16c.07.84.14,1.69.21,2.53s.32,2,.49,2.88c0,.37-.07.75-.1,1.12l.35.91a5.15,5.15,0,0,1-.11,3.44c-.4.86-1.11,1-1.75,1.61h-.14l-.11-.21c.07-.42.4-.95.49-1.33l-.07-.35c0-.25,0-.49.07-.74l-.32-.81-.14-.07h0c-.23.9.15,2,.07,2.74a4.58,4.58,0,0,1-2,.11,18.55,18.55,0,0,0-2.07,5.41,5.48,5.48,0,0,0-.24,2.11l.46,1.61c0,.48.07,1,.11,1.44.34,2.19-.43,4.34-.07,6.5a11.2,11.2,0,0,0,.53,2.46l.63,1.12c.19.69-.43,2.73-.56,3.37,0,.36-.07.73-.11,1.08-.29.48-1.57.22-2,.11l-.84.56c-.76.93-.47,1.77-1.79,2.28-.66.26-2.45.1-2.78-.38a4.12,4.12,0,0,1,.21-2.25,1.77,1.77,0,0,1-.67-.42,5.37,5.37,0,0,1-.14-1.9,22.17,22.17,0,0,0,2.67-1c1.47-2.49,1.41-6.71.84-10.18a31.52,31.52,0,0,0-.42-3.75l-1.65-4.11c-.35-.87-1.21-4.53-1.76-4.84q0-.5.07-1a25.08,25.08,0,0,1-.21-3.4l-.07,0c-.84.49-1.82-.09-2.74.14.41,2.25-1.61,1.57-2.1,2.49-.73,0-2.72.24-2.39-1.37a21.12,21.12,0,0,1,1.61-3.65l.49-1.68,1-2.28c.39-1,.54-2,.87-3.05l.49-1.23.25-1.86c-.22-.87-1.23-1.82-1-3.09.14-.7.54-1.08.67-1.83,0-.45,0-.89,0-1.33a6.49,6.49,0,0,1,.42-2.39c.48-1.1,1.68-2.08,1.93-3.05.14-.56-.21-1-.14-1.72.05-.49.48-1,.32-1.58l-.42-.95c.07-.42.14-.84.21-1.26a3.86,3.86,0,0,1,4.28-3.62C291.1,288.79,291.45,288.75,291.66,288.81Zm-7.09,13.69c0,.3-.07.61-.11.91h0a2,2,0,0,0,.21-.95Zm0,2.77-.56.91v.35a1.41,1.41,0,0,0,.63-1.26Zm-.17,2.95.42.39a7,7,0,0,0,.25-3.09C284.13,305.84,284.06,307.25,284.39,308.21Zm.07.46.11.46.14.1h0c0-.11,0-.23,0-.35l-.14-.21Zm-1.3,12.78c.09-.69.19-1.38.28-2.07l-.07,0c-.25.29-.12.95-.28,1.34s-.41.45-.46.84Z" style="fill-rule:evenodd"/><path d="M408.69,280.67a3.57,3.57,0,0,1,1.89.58c2.15,1,1.13,1.58,1.81,3.78a16,16,0,0,1,.66,2.2v1.55l.15.77a23.93,23.93,0,0,1-.85,2.44,6,6,0,0,1,2.51,2.7c.25.42.36,1.38.77,1.62a18.83,18.83,0,0,1,2.12,1,26.94,26.94,0,0,0,2.08,1.78c.15.54-.09,1-.08,1.62,0,.42.29.54.35.85a1.42,1.42,0,0,1-.77,1.51,6.74,6.74,0,0,1-.27,2l.27,2.86c.42,2.32.09,4.85.85,6.8l1.08,0,.62,2.55.58,3.51c.16.72.56,1.82.19,2.43a37.38,37.38,0,0,1-7.22.54c-.91,0-2.37.18-3-.19q0-2,0-4h-.15c-.75,2.11-1.3,4.36-2.09,6.68a6.45,6.45,0,0,0-.66,3.36c-.06.91-.13,1.83-.19,2.74l1.2,4.67.46,3.21c0,.58-.08,1.16-.11,1.74l.35.38c.39-.07.85-.32,1.31-.07.9.47.37,1.82-.2,2.24s-2.66.35-2.74.46c-.56.69.55,1.75-.81,2.36a2.08,2.08,0,0,1-1.2-.08,20.12,20.12,0,0,0-.47-2.43c-.19-1,0-2.34-.5-3.09l-.08,0c-.41,1.42-2.51,6.67-1,7.73a6.31,6.31,0,0,1,1.78,0,1.72,1.72,0,0,1,.39,1.43c-.78.37-1.63,1.29-3,1-1-.19-1.57-1.47-2.24-1.12l-.15,1.74a3.39,3.39,0,0,1-2.55.07,5.55,5.55,0,0,1,0-1.74v-1.58c.19-1,.55-1.67.73-2.7.15-.86,0-1.71.15-2.47.35-1.32.65-2.76.93-4.17l.46-3.67c.52-2.45,1.17-5.22,1.66-7.72a8.06,8.06,0,0,0-.42-3.4l-.35-1.9c-.66-2-1.7-3.74-2.2-6.06a18.41,18.41,0,0,1,0-5.56l.27-1.93c-.64-1-1.73-1.63-2.24-2.86-.44-1.05-.29-2.46-.46-3.82-1-.14-1.48.38-2.32-.27s-.59-3.53,0-4.52l.7-.62c.18-.29.06-.55.15-.88l.58-.66a2.63,2.63,0,0,1-.08-1l.77-.62c.42-.48.51-1.06,1.08-1.39s1.6-.24,2.08-.77l0-.08a1.28,1.28,0,0,1-.62-.5l.66.27v-.12c-.22-.1-.19-.16-.23-.39l.08,0a1,1,0,0,0,.46.46l.08,0v-.27l.19.23.15-.07-.08-.35.39.19a1,1,0,0,0,.58-.77c-.34.2-1.05.79-1.58.5v0c.16-.06.14,0,.19-.19l-.46-.23v0a.84.84,0,0,0,.58-.15l0-.12c-.23-.18-.5-.15-.81-.27l.54-.11v0l-.5-.16c2.64.26,1.87-1.29,2.2-3.36a9.38,9.38,0,0,1,.62-2.67,5.84,5.84,0,0,1,2.94-2.9Zm7.65,18.61c0,.22-.1.32,0,.47s.22.4.46.34l0-.42ZM417.42,315a10,10,0,0,0,2.55-.23l-.43-2.86c-.37-2.11-.27-4.18-.81-6l-.15,0a18.93,18.93,0,0,1-.73,4.33A20.86,20.86,0,0,0,417.42,315Zm-3.75.43a22,22,0,0,1,.93-5.6l.46-2.51a1.58,1.58,0,0,0-.62-.54h0a3.84,3.84,0,0,1-.35,1.35l-1.2.07a18.14,18.14,0,0,0,.5,3,3.34,3.34,0,0,1-.12,1.23q0,1.49,0,3Zm3-.38h.46a16.25,16.25,0,0,1,.39-2.94l.43-4.75c-1.33.88-.81.46-2.32.23v.7l.23,2.12A20.2,20.2,0,0,1,416.65,315Zm-2.66.27,2.28-.23v0l-.39-1.66q-.17-2-.35-4c-.09-.61.2-1.67-.19-2l-.08,0v.08l-.27,2-.54,2.67c-.05.67-.11,1.34-.15,2Z" style="fill-rule:evenodd"/></g></g></svg>