<svg xmlns="http://www.w3.org/2000/svg" viewBox="0 0 2736 2238.37"><title>library</title><g id="annotations_" data-name="annotations&apos;"><text transform="translate(2358.77 186.69)" style="font-size:24px;font-family:Avenir-Heavy, Avenir">asia<tspan x="0" y="28.8">africa</tspan><tspan x="0" y="57.6">eu</tspan><tspan x="27.55" y="57.6" style="letter-spacing:-0.017985026041666668em">r</tspan><tspan x="36.46" y="57.6">ope</tspan><tspan x="0" y="86.4">nor</tspan><tspan x="37.75" y="86.4" style="letter-spacing:0.0009969075520833333em">t</tspan><tspan x="47.11" y="86.4">h america</tspan><tspan x="0" y="115.2">sou</tspan><tspan x="39.07" y="115.2" style="letter-spacing:0.0009969075520833333em">t</tspan><tspan x="48.43" y="115.2">h america</tspan></text><rect x="2413.44" y="169.35" width="92" height="22.57" style="fill:#ff74bc"/><rect x="2429.44" y="201.07" width="95.33" height="21.66" style="fill:#f8a924"/><rect x="2450.77" y="228.63" width="97.33" height="20.5" style="fill:#12d470"/><rect x="2520.1" y="258.73" width="95.33" height="21.78" style="fill:#00e2ff"/><rect x="2520.1" y="289.21" width="95.33" height="19.31" style="fill:#b7a6ff"/><text transform="translate(2356.13 463.73)" style="font-size:24px;font-family:Avenir-Heavy, Avenir">A<tspan x="17.33" y="0" style="letter-spacing:0.0009969075520833333em">l</tspan><tspan x="23.59" y="0">banian - o</tspan><tspan x="134.68" y="0" style="letter-spacing:0.0009969075520833333em">t</tspan><tspan x="144.04" y="0" style="letter-spacing:-0.000020345052083333332em">her - E</tspan><tspan style="font-family:Avenir-Roman, Avenir"><tspan x="0" y="28.8">Arabic - Asia</tspan></tspan><tspan x="0" y="57.6">A</tspan><tspan x="17.33" y="57.6" style="letter-spacing:0.017985026041666668em">r</tspan><tspan x="27.1" y="57.6">menian - Asia</tspan><tspan x="0" y="86.4">Belarusian - Eu</tspan><tspan x="165.33" y="86.4" style="letter-spacing:-0.017985026041666668em">r</tspan><tspan x="174.24" y="86.4">ope</tspan><tspan style="font-family:Avenir-Roman, Avenir"><tspan x="0" y="115.2">Benga</tspan><tspan x="68.93" y="115.2" style="letter-spacing:0.0009969075520833333em">l</tspan><tspan x="74.71" y="115.2">i - Asia</tspan></tspan><tspan x="0" y="144" xml:space="preserve">Bosnian -  E</tspan><tspan x="0" y="172.8">Bulgarian - E</tspan><tspan style="font-family:Avenir-Roman, Avenir"><tspan x="0" y="201.6">C</tspan><tspan x="16.9" y="201.6" style="letter-spacing:-0.017985026041666668em">r</tspan><tspan x="24.91" y="201.6">oa</tspan><tspan x="51.62" y="201.6" style="letter-spacing:0.0009969075520833333em">t</tspan><tspan x="60.1" y="201.6">ian - E</tspan><tspan x="0" y="230.4">Czech - E</tspan></tspan><tspan x="0" y="259.2">Danish - E</tspan><tspan x="0" y="288">Dutch - E</tspan><tspan x="0" y="316.8">Estonian -E</tspan><tspan x="0" y="345.6">Finnish - E</tspan><tspan x="0" y="374.4">Geo</tspan><tspan x="47.09" y="374.4" style="letter-spacing:-0.017985026041666668em">r</tspan><tspan x="55.99" y="374.4">gian - E</tspan><tspan style="font-family:Avenir-Roman, Avenir"><tspan x="0" y="403.2">Gujara</tspan><tspan x="71.14" y="403.2" style="letter-spacing:0.0009969075520833333em">t</tspan><tspan x="79.61" y="403.2">i - Asia</tspan><tspan x="0" y="432">Hai</tspan><tspan x="35.54" y="432" style="letter-spacing:0.0009969075520833333em">t</tspan><tspan x="44.02" y="432">ian - NA/caribbean</tspan><tspan x="0" y="460.8">Heb</tspan><tspan x="45.34" y="460.8" style="letter-spacing:-0.017985026041666668em">r</tspan><tspan x="53.35" y="460.8">ew - Asia</tspan><tspan x="0" y="489.6">Hin</tspan><tspan x="36.43" y="489.6" style="letter-spacing:0.0009969075520833333em">d</tspan><tspan x="51.12" y="489.6">i - Asia</tspan><tspan x="0" y="518.4">Hungarian - E</tspan></tspan><tspan x="0" y="547.2">Indonesian - Asia</tspan><tspan style="font-family:Avenir-Roman, Avenir"><tspan x="0" y="576">Ita</tspan><tspan x="27.14" y="576" style="letter-spacing:0.0009969075520833333em">l</tspan><tspan x="32.93" y="576">ian - E</tspan><tspan x="0" y="604.8">Japanese - Asia</tspan></tspan><tspan x="0" y="633.6">Ku</tspan><tspan x="30.22" y="633.6" style="letter-spacing:-0.017985026041666668em">r</tspan><tspan x="39.12" y="633.6" style="letter-spacing:0.0009969075520833333em">d</tspan><tspan x="54.26" y="633.6" style="letter-spacing:-0.000020345052083333332em">ish - Asia</tspan><tspan style="font-family:Avenir-Roman, Avenir"><tspan x="0" y="662.4">Latvian - E</tspan><tspan x="0" y="691.2">Li</tspan><tspan x="17.76" y="691.2" style="letter-spacing:0.0009969075520833333em">t</tspan><tspan x="26.23" y="691.2">huanian - E</tspan><tspan x="0" y="720">Malayalam - Asia</tspan></tspan><tspan x="0" y="748.8">Mara</tspan><tspan x="57.33" y="748.8" style="letter-spacing:0.0009969075520833333em">t</tspan><tspan x="66.69" y="748.8">hi - Asia</tspan><tspan x="0" y="777.6">Mongo</tspan><tspan x="80.4" y="777.6" style="letter-spacing:0.0009969075520833333em">l</tspan><tspan x="86.66" y="777.6">ian - Asia</tspan><tspan x="0" y="806.4">Nepa</tspan><tspan x="60.89" y="806.4" style="letter-spacing:0.0009969075520833333em">l</tspan><tspan x="67.15" y="806.4">i - Asia</tspan><tspan style="font-family:Avenir-Roman, Avenir"><tspan x="0" y="835.2">Norwegian - E</tspan><tspan x="0" y="864">Punjabi - Asia</tspan><tspan x="0" y="892.8">Persian - Asia</tspan><tspan x="0" y="921.6">Po</tspan><tspan x="28.49" y="921.6" style="letter-spacing:0.0009969075520833333em">l</tspan><tspan x="34.27" y="921.6">ish - E </tspan><tspan x="0" y="950.4">Portuguese - E</tspan><tspan x="0" y="979.2">Romanian - E</tspan><tspan x="0" y="1008">Serbian - E</tspan></tspan><tspan x="0" y="1036.8">Slovak - E</tspan><tspan x="0" y="1065.6">Slovenian - E</tspan><tspan x="0" y="1094.4">Swahi</tspan><tspan x="65.78" y="1094.4" style="letter-spacing:0.0009969075520833333em">l</tspan><tspan x="72.05" y="1094.4">i - Africa</tspan><tspan style="font-family:Avenir-Roman, Avenir"><tspan x="0" y="1123.2">Swe</tspan><tspan x="44.47" y="1123.2" style="letter-spacing:0.0009969075520833333em">d</tspan><tspan x="59.16" y="1123.2">ish - E</tspan><tspan x="0" y="1152" style="letter-spacing:-0.11098225911458333em">T</tspan><tspan x="11.11" y="1152">agalog - Asia</tspan></tspan><tspan x="0" y="1180.8" style="letter-spacing:-0.09999593098958333em">T</tspan><tspan x="11.38" y="1180.8">amil - Asia</tspan><tspan style="letter-spacing:-0.11098225911458333em"><tspan x="0" y="1209.6">T</tspan><tspan x="11.11" y="1209.6" style="letter-spacing:-0.000020345052083333332em">elugu - Asia</tspan></tspan><tspan style="font-family:Avenir-Roman, Avenir"><tspan x="0" y="1238.4">Thai - Asia</tspan></tspan><tspan x="0" y="1267.2">Tibetan - Asia </tspan><tspan style="font-family:Avenir-Roman, Avenir"><tspan x="0" y="1296" style="letter-spacing:-0.09200032552083333em">T</tspan><tspan x="11.57" y="1296">urkish - Asia </tspan><tspan x="0" y="1324.8">Ukranian - E</tspan><tspan x="0" y="1353.6">U</tspan><tspan x="16.9" y="1353.6" style="letter-spacing:-0.017985026041666668em">r</tspan><tspan x="24.91" y="1353.6">du - Asia </tspan><tspan x="0" y="1382.4" style="letter-spacing:-0.017985026041666668em">V</tspan><tspan x="14.23" y="1382.4">ietnamese - Asia </tspan><tspan x="0" y="1411.2" style="letter-spacing:-0.0369873046875em">Y</tspan><tspan x="13.37" y="1411.2">id</tspan><tspan x="33.79" y="1411.2" style="letter-spacing:0.0009969075520833333em">d</tspan><tspan x="48.48" y="1411.2">ish - E</tspan></tspan><tspan x="0" y="1440">Zulu - Africa </tspan></text><text transform="translate(1546.82 382.31)" style="font-size:24px;font-family:Avenir-Heavy, Avenir">A<tspan x="17.33" y="0" style="letter-spacing:0.0009969075520833333em">l</tspan><tspan x="23.59" y="0">banian - o</tspan><tspan x="134.68" y="0" style="letter-spacing:0.0009969075520833333em">t</tspan><tspan x="144.04" y="0" style="letter-spacing:-0.000020345052083333332em">her - E</tspan><tspan style="font-family:Avenir-Roman, Avenir"><tspan x="0" y="28.8">Arabic - Asia</tspan></tspan><tspan x="0" y="57.6">A</tspan><tspan x="17.33" y="57.6" style="letter-spacing:0.017985026041666668em">r</tspan><tspan x="27.1" y="57.6">menian - Asia</tspan><tspan x="0" y="86.4">Belarusian - Eu</tspan><tspan x="165.33" y="86.4" style="letter-spacing:-0.017985026041666668em">r</tspan><tspan x="174.24" y="86.4">ope</tspan><tspan style="font-family:Avenir-Roman, Avenir"><tspan x="0" y="115.2">Benga</tspan><tspan x="68.93" y="115.2" style="letter-spacing:0.0009969075520833333em">l</tspan><tspan x="74.71" y="115.2">i - Asia</tspan></tspan><tspan x="0" y="144" xml:space="preserve">Bosnian -  E</tspan><tspan x="0" y="172.8">Bulgarian - E</tspan><tspan style="font-family:Avenir-Roman, Avenir"><tspan x="0" y="201.6">C</tspan><tspan x="16.9" y="201.6" style="letter-spacing:-0.017985026041666668em">r</tspan><tspan x="24.91" y="201.6">oa</tspan><tspan x="51.62" y="201.6" style="letter-spacing:0.0009969075520833333em">t</tspan><tspan x="60.1" y="201.6">ian - E</tspan><tspan x="0" y="230.4">Czech - E</tspan></tspan><tspan x="0" y="259.2">Danish - E</tspan><tspan x="0" y="288">Dutch - E</tspan><tspan x="0" y="316.8">Estonian -E</tspan><tspan x="0" y="345.6">Finnish - E</tspan><tspan x="0" y="374.4">Geo</tspan><tspan x="47.09" y="374.4" style="letter-spacing:-0.017985026041666668em">r</tspan><tspan x="55.99" y="374.4">gian - E</tspan><tspan style="font-family:Avenir-Roman, Avenir"><tspan x="0" y="403.2">Gujara</tspan><tspan x="71.14" y="403.2" style="letter-spacing:0.0009969075520833333em">t</tspan><tspan x="79.61" y="403.2">i - Asia</tspan><tspan x="0" y="432">Hai</tspan><tspan x="35.54" y="432" style="letter-spacing:0.0009969075520833333em">t</tspan><tspan x="44.02" y="432">ian - NA/caribbean</tspan><tspan x="0" y="460.8">Heb</tspan><tspan x="45.34" y="460.8" style="letter-spacing:-0.017985026041666668em">r</tspan><tspan x="53.35" y="460.8">ew - Asia</tspan><tspan x="0" y="489.6">Hin</tspan><tspan x="36.43" y="489.6" style="letter-spacing:0.0009969075520833333em">d</tspan><tspan x="51.12" y="489.6">i - Asia</tspan><tspan x="0" y="518.4">Hungarian - E</tspan></tspan><tspan x="0" y="547.2">Indonesian - Asia</tspan><tspan style="font-family:Avenir-Roman, Avenir"><tspan x="0" y="576">Ita</tspan><tspan x="27.14" y="576" style="letter-spacing:0.0009969075520833333em">l</tspan><tspan x="32.93" y="576">ian - E</tspan><tspan x="0" y="604.8">Japanese - Asia</tspan></tspan><tspan x="0" y="633.6">Ku</tspan><tspan x="30.22" y="633.6" style="letter-spacing:-0.017985026041666668em">r</tspan><tspan x="39.12" y="633.6" style="letter-spacing:0.0009969075520833333em">d</tspan><tspan x="54.26" y="633.6" style="letter-spacing:-0.000020345052083333332em">ish - Asia</tspan><tspan style="font-family:Avenir-Roman, Avenir"><tspan x="0" y="662.4">Latvian - E</tspan><tspan x="0" y="691.2">Li</tspan><tspan x="17.76" y="691.2" style="letter-spacing:0.0009969075520833333em">t</tspan><tspan x="26.23" y="691.2">huanian - E</tspan><tspan x="0" y="720">Malayalam - Asia</tspan></tspan><tspan x="0" y="748.8">Mara</tspan><tspan x="57.33" y="748.8" style="letter-spacing:0.0009969075520833333em">t</tspan><tspan x="66.69" y="748.8">hi - Asia</tspan><tspan x="0" y="777.6">Mongo</tspan><tspan x="80.4" y="777.6" style="letter-spacing:0.0009969075520833333em">l</tspan><tspan x="86.66" y="777.6">ian - Asia</tspan><tspan x="0" y="806.4">Nepa</tspan><tspan x="60.89" y="806.4" style="letter-spacing:0.0009969075520833333em">l</tspan><tspan x="67.15" y="806.4">i - Asia</tspan><tspan style="font-family:Avenir-Roman, Avenir"><tspan x="0" y="835.2">Norwegian - E</tspan><tspan x="0" y="864">Punjabi - Asia</tspan><tspan x="0" y="892.8">Persian - Asia</tspan><tspan x="0" y="921.6">Po</tspan><tspan x="28.49" y="921.6" style="letter-spacing:0.0009969075520833333em">l</tspan><tspan x="34.27" y="921.6">ish - E </tspan><tspan x="0" y="950.4">Portuguese - E</tspan><tspan x="0" y="979.2">Romanian - E</tspan><tspan x="0" y="1008">Serbian - E</tspan></tspan><tspan x="0" y="1036.8">Slovak - E</tspan><tspan x="0" y="1065.6">Slovenian - E</tspan><tspan x="0" y="1094.4">Swahi</tspan><tspan x="65.78" y="1094.4" style="letter-spacing:0.0009969075520833333em">l</tspan><tspan x="72.05" y="1094.4">i - Africa</tspan><tspan style="font-family:Avenir-Roman, Avenir"><tspan x="0" y="1123.2">Swe</tspan><tspan x="44.47" y="1123.2" style="letter-spacing:0.0009969075520833333em">d</tspan><tspan x="59.16" y="1123.2">ish - E</tspan><tspan x="0" y="1152" style="letter-spacing:-0.11098225911458333em">T</tspan><tspan x="11.11" y="1152">agalog - Asia</tspan></tspan><tspan x="0" y="1180.8" style="letter-spacing:-0.09999593098958333em">T</tspan><tspan x="11.38" y="1180.8">amil - Asia</tspan><tspan style="letter-spacing:-0.11098225911458333em"><tspan x="0" y="1209.6">T</tspan><tspan x="11.11" y="1209.6" style="letter-spacing:-0.000020345052083333332em">elugu - Asia</tspan></tspan><tspan style="font-family:Avenir-Roman, Avenir"><tspan x="0" y="1238.4">Thai - Asia</tspan></tspan><tspan x="0" y="1267.2">Tibetan - Asia </tspan><tspan style="font-family:Avenir-Roman, Avenir"><tspan x="0" y="1296" style="letter-spacing:-0.09200032552083333em">T</tspan><tspan x="11.57" y="1296">urkish - Asia </tspan><tspan x="0" y="1324.8">Ukranian - E</tspan><tspan x="0" y="1353.6">U</tspan><tspan x="16.9" y="1353.6" style="letter-spacing:-0.017985026041666668em">r</tspan><tspan x="24.91" y="1353.6">du - Asia </tspan><tspan x="0" y="1382.4" style="letter-spacing:-0.017985026041666668em">V</tspan><tspan x="14.23" y="1382.4">ietnamese - Asia </tspan><tspan x="0" y="1411.2" style="letter-spacing:-0.0369873046875em">Y</tspan><tspan x="13.37" y="1411.2">id</tspan><tspan x="33.79" y="1411.2" style="letter-spacing:0.0009969075520833333em">d</tspan><tspan x="48.48" y="1411.2">ish - E</tspan></tspan><tspan x="0" y="1440">Zulu - Africa </tspan></text></g></svg>