<?xml version="1.0" encoding="utf-8"?>
<!-- Generator: Adobe Illustrator 21.0.2, SVG Export Plug-In . SVG Version: 6.00 Build 0)  -->
<svg version="1.1" xmlns="http://www.w3.org/2000/svg" xmlns:xlink="http://www.w3.org/1999/xlink" x="0px" y="0px"
	 viewBox="0 0 2736 2238.4" style="enable-background:new 0 0 2736 2238.4;" xml:space="preserve">
<style type="text/css">
	.st0{fill:none;}
	.st1{enable-background:new    ;}
	.st2{fill:#FFFFFF;}
	.st3{fill:#E6E9E8;}
	.st4{fill:none;stroke:#000000;stroke-width:0.1;stroke-miterlimit:10;}
	.st5{fill:#009566;}
	.st6{fill:#A5A7AA;}
	.st7{fill:#EBEBEC;}
	.st8{fill:#E6C3BE;}
	.st9{fill:#FABE44;}
	.st10{fill:#FAD382;}
	.st11{fill:#F5F4F3;}
	.st12{fill:#CECDCC;}
	.st13{fill:#D7E15E;}
	.st14{fill:#B16CAC;}
	.st15{fill:#8C588C;}
	.st16{fill:#00F5A8;}
	.st17{fill:#88C540;}
	.st18{fill:#95CD86;}
	.st19{fill:#5DBF88;}
	.st20{fill:#578629;}
	.st21{fill:#31582C;}
	.st22{fill:#F8A924;}
	.st23{fill:#42967B;}
	.st24{fill:#F0514F;}
	.st25{fill:#D6637E;}
	.st26{fill:#811F45;}
	.st27{fill:#F8ABA3;}
	.st28{fill:#992D3B;}
	.st29{fill:#F0534D;}
	.st30{fill:#FFB7B5;}
	.st31{fill:#7F8E5C;}
	.st32{fill:#D3EBB7;}
	.st33{fill:#BB6DAC;}
	.st34{fill:#F6AFCE;}
	.st35{fill:#DC6A68;}
	.st36{fill:#A74F62;}
	.st37{fill:#339875;}
	.st38{fill:#B86C8F;}
	.st39{fill:#EF4D7D;}
	.st40{fill:#C4DB8E;}
	.st41{fill:#5D9E64;}
	.st42{fill:#773355;}
	.st43{fill:#BD6DAC;}
	.st44{fill:#566C4C;}
	.st45{fill:#A8D165;}
	.st46{fill:#C5F576;}
	.st47{fill:#89E892;}
	.st48{fill:#B65885;}
	.st49{fill:#649248;}
	.st50{fill:#F3757D;}
	.st51{fill:#6CB874;}
	.st52{fill:#F27580;}
	.st53{fill:#DA799D;}
	.st54{fill:#00E2FF;}
	.st55{fill:#FBD4DA;}
	.st56{fill:#FFB4B6;}
	.st57{fill:#A5D065;}
	.st58{fill:#13AC57;}
	.st59{fill:#00AD6E;}
	.st60{fill:#83C999;}
	.st61{fill:#40BC99;}
	.st62{fill:#379563;}
	.st63{fill:#99CC67;}
	.st64{fill:#66BE6A;}
	.st65{fill:#12ED53;}
	.st66{fill:#F27696;}
	.st67{fill:#B3E2ED;}
	.st68{fill:#FFC6D1;}
	.st69{fill:#12D470;}
	.st70{fill:#FF74BC;}
	.st71{fill:#FF8378;}
	.st72{fill:#40AA77;}
	.st73{display:none;}
	.st74{display:inline;}
	.st75{opacity:0.62;fill:url(#SVGID_1_);enable-background:new    ;}
	.st76{fill:#8C7C6B;stroke:#5A4E40;stroke-miterlimit:10;}
	.st77{fill:#E43317;stroke:#A90A18;stroke-miterlimit:10;}
	.st78{fill:#5EB2E0;stroke:#146E90;stroke-miterlimit:10;}
	.st79{fill:#F6DA1F;stroke:#D9B61F;stroke-miterlimit:10;}
	.st80{fill:#FBC15D;stroke:#C5762B;stroke-miterlimit:10;}
	.st81{fill:url(#SVGID_2_);stroke:#CC7A2E;stroke-miterlimit:10;}
	.st82{fill:url(#SVGID_3_);stroke:#CC7A2E;stroke-miterlimit:10;}
	.st83{fill:url(#SVGID_4_);stroke:#CC7A2E;stroke-miterlimit:10;}
	.st84{fill:#E8501F;stroke:#C51B1E;stroke-miterlimit:10;}
	.st85{fill:#B6D9EF;stroke:#6391A5;stroke-miterlimit:10;}
	.st86{fill:#ABC94D;stroke:#688614;stroke-miterlimit:10;}
	.st87{fill:#D1C4E0;stroke:#9883A4;stroke-miterlimit:10;}
	.st88{fill:url(#SVGID_5_);stroke:#CC7A2E;stroke-miterlimit:10;}
	.st89{fill:url(#SVGID_6_);stroke:#CC7A2E;stroke-miterlimit:10;}
	.st90{fill:url(#SVGID_7_);stroke:#CC7A2E;stroke-miterlimit:10;}
	.st91{fill:url(#SVGID_8_);stroke:#CC7A2E;stroke-miterlimit:10;}
	.st92{fill:url(#SVGID_9_);stroke:#CC7A2E;stroke-miterlimit:10;}
	.st93{fill:url(#SVGID_10_);stroke:#CC7A2E;stroke-miterlimit:10;}
	.st94{fill:#E0E1E1;}
	.st95{font-family:'Avenir-Heavy';}
	.st96{font-size:24px;}
	.st97{fill:#B7A6FF;}
	.st98{font-family:'Avenir-Roman';}
</style>
<g id="text_1_">
</g>
<g id="underlay">
</g>
<g id="books">
</g>
<g id="interior">
	<g id="left">
	</g>
</g>
<g id="Languages">
	<g id="shelf13">
		<g id="YiddishBottom">
		</g>
		<g id="Zulu">
		</g>
	</g>
	<g id="_x31_3">
	</g>
	<g id="shelf12">
		<g id="Ukranian">
		</g>
		<g id="Urdu">
		</g>
		<g id="Vietnamese">
		</g>
		<g id="YiddishTop">
		</g>
	</g>
	<g id="_x31_2">
	</g>
	<g id="shelf11">
		<g id="PortugueseBottom">
		</g>
		<g id="Romanian">
		</g>
		<g id="Serbian">
		</g>
		<g id="Slovak">
		</g>
		<g id="Slovenian">
		</g>
		<g id="Swahili">
		</g>
		<g id="Swedish">
		</g>
		<g id="Tagalog">
		</g>
		<g id="Tamil">
		</g>
		<g id="Telugu">
		</g>
		<g id="Thai">
		</g>
		<g id="Tibetan">
		</g>
		<g id="Turkish">
		</g>
	</g>
	<g id="_x31_1">
	</g>
	<g id="shelf10">
		<g id="PolishBottom">
		</g>
		<g id="PortugueseTop">
		</g>
	</g>
	<g id="_x31_0">
	</g>
	<g id="shelf9">
		<g id="Malayalam">
		</g>
		<g id="Marathi">
		</g>
		<g id="Mongolian">
		</g>
		<g id="Nepali">
		</g>
		<g id="Norwegian">
		</g>
		<g id="Punjabi">
		</g>
		<g id="Persian">
		</g>
		<g id="PolishTop_1_">
		</g>
	</g>
	<g id="_x39_">
	</g>
	<g id="shelf8">
		<g id="ItalianBottom_1_">
		</g>
		<g id="Japanese">
		</g>
		<g id="Kurdish">
		</g>
		<g id="Latvian">
		</g>
		<g id="Lithuanian">
		</g>
	</g>
	<g id="_x38_">
	</g>
	<g id="shelf7">
		<g id="ItalianMiddle">
		</g>
	</g>
	<g id="_x37_">
	</g>
	<g id="shelf6">
		<g id="HindiBottom">
		</g>
		<g id="Hungarian">
		</g>
		<g id="Indonesian">
		</g>
		<g id="ItalianTop">
		</g>
	</g>
	<g id="_x36_">
	</g>
	<g id="shelf5">
		<g id="HebrewBottom">
		</g>
		<g id="HindiTop">
		</g>
	</g>
	<g id="_x35_">
	</g>
	<g id="shelf4">
		<g id="HaitianBottom">
		</g>
		<g id="HebrewTop">
		</g>
	</g>
	<g id="_x34__1_">
	</g>
	<g id="shelf3">
		<g id="BengaliBottom">
		</g>
		<g id="Bosnian">
		</g>
		<g id="Bulgarian">
		</g>
		<g id="Croatian">
		</g>
		<g id="Czech">
		</g>
		<g id="Danish">
		</g>
		<g id="Dutch">
		</g>
		<g id="Estonian">
		</g>
		<g id="Finnish">
		</g>
		<g id="Georgian">
		</g>
		<g id="Gujarati">
		</g>
		<g id="HaitianTop">
		</g>
	</g>
	<g id="_x33_">
	</g>
	<g id="shelf2">
		<g id="BengaliMid">
		</g>
	</g>
	<g id="_x32_">
	</g>
	<g id="shelf1">
		<g id="Albanian">
		</g>
		<g id="Arabic">
		</g>
		<g id="Armenian">
		</g>
		<g id="Belarusian">
		</g>
		<g id="BengaliTop">
		</g>
	</g>
	<g id="_x31_">
	</g>
</g>
<g id="bookshelf">
	<g id="Layer_1_1_" class="st73">
		<g id="booksOLD" class="st74">
			<g id="shadow">
				
					<radialGradient id="SVGID_1_" cx="-415.8999" cy="867.9475" r="433.4304" gradientTransform="matrix(1 0 0 1 0 1253.0187)" gradientUnits="userSpaceOnUse">
					<stop  offset="0" style="stop-color:#000000"/>
					<stop  offset="1" style="stop-color:#D8D8D8"/>
				</radialGradient>
				<ellipse class="st75" cx="-415.9" cy="2121" rx="612.9" ry="8.8"/>
			</g>
			<g>
				
					<rect x="7.1" y="1578.6" transform="matrix(0.9589 -0.2837 0.2837 0.9589 -522.9738 86.9585)" class="st87" width="63.2" height="540.7"/>
				<polygon class="st87" points="-7.7,1580.8 1.6,1580.6 153.6,2094.4 145.7,2099.3 				"/>
				<polygon class="st87" points="-68.3,1598.7 -76.2,1603.6 75.8,2117.4 85.1,2117.2 				"/>
			</g>
			<g>
				<rect x="166.2" y="1548.5" class="st87" width="67.9" height="572.9"/>
				<polygon class="st87" points="166.2,1548.5 156.6,1551.1 156.6,2118.8 166.2,2121.4 				"/>
				<polygon class="st87" points="234.1,1548.5 243.7,1551.1 243.7,2118.8 234.1,2121.4 				"/>
			</g>
			<g>
				<rect x="254.5" y="1548.5" class="st78" width="67.9" height="572.9"/>
				<polygon class="st78" points="254.5,1548.5 244.9,1551.1 244.9,2118.8 254.5,2121.4 				"/>
				<polygon class="st78" points="322.4,1548.5 332.1,1551.1 332.1,2118.8 322.4,2121.4 				"/>
			</g>
			<g>
				<rect x="342.9" y="1549" class="st85" width="67.9" height="572.9"/>
				<polygon class="st85" points="342.9,1549 333.3,1551.6 333.3,2119.3 342.9,2121.9 				"/>
				<polygon class="st85" points="410.8,1549 420.4,1551.6 420.4,2119.3 410.8,2121.9 				"/>
			</g>
			<g>
				<rect x="431.2" y="1550.5" class="st84" width="67.9" height="572.9"/>
				<polygon class="st84" points="431.2,1550.5 421.6,1553.1 421.6,2120.8 431.2,2123.4 				"/>
				<polygon class="st84" points="499.1,1550.5 508.8,1553.1 508.8,2120.8 499.1,2123.4 				"/>
			</g>
			<g>
				<rect x="519.6" y="1550.5" class="st86" width="67.9" height="572.9"/>
				<polygon class="st86" points="519.6,1550.5 510,1553.1 510,2120.8 519.6,2123.4 				"/>
				<polygon class="st86" points="587.5,1550.5 597.1,1553.1 597.1,2120.8 587.5,2123.4 				"/>
			</g>
			<g>
				<rect x="607.9" y="1551" class="st80" width="67.9" height="572.9"/>
				<polygon class="st80" points="607.9,1551 598.3,1553.6 598.3,2121.3 607.9,2123.9 				"/>
				<polygon class="st80" points="675.8,1551 685.5,1553.6 685.5,2121.3 675.8,2123.9 				"/>
			</g>
			<g>
				<rect x="-31" y="761.6" class="st86" width="67.9" height="572.9"/>
				<polygon class="st86" points="36.9,761.6 46.5,764.2 46.5,1331.9 36.9,1334.5 				"/>
			</g>
			<g>
				<rect x="57.3" y="762.1" class="st80" width="67.9" height="572.9"/>
				<polygon class="st80" points="57.3,762.1 47.7,764.7 47.7,1332.4 57.3,1335 				"/>
				<polygon class="st80" points="125.2,762.1 134.8,764.7 134.8,1332.4 125.2,1335 				"/>
			</g>
		</g>
		<g id="bookimgs" class="st74">
			<g id="L51Gll_1_">
				
					<image style="overflow:visible;enable-background:new    ;" width="807" height="605" id="L51Gll" xlink:href="7C9C0A4545C22DC6.jpg"  transform="matrix(1.0897 0 0 1.0897 871.6359 -81.495)">
				</image>
			</g>
			<g id="UrIhKk_1_">
				
					<image style="overflow:visible;enable-background:new    ;" width="1396" height="783" id="UrIhKk" xlink:href="7C9C0A4545C22DC9.jpg"  transform="matrix(0.9593 0 0 0.9593 641.76 640.638)">
				</image>
			</g>
		</g>
	</g>
	<g id="side">
	</g>
</g>
<g id="annotations_x27_">
	<rect x="2358.8" y="168.6" class="st0" width="166" height="150.7"/>
	<text transform="matrix(1 0 0 1 2358.7708 186.694)"><tspan x="0" y="0" class="st95 st96">asia</tspan><tspan x="0" y="28.8" class="st95 st96">africa</tspan><tspan x="0" y="57.6" class="st95 st96">europe</tspan><tspan x="0" y="86.4" class="st95 st96">north america</tspan><tspan x="0" y="115.2" class="st95 st96">south america</tspan></text>
	<rect x="2413.4" y="169.4" class="st70" width="92" height="22.6"/>
	<rect x="2429.4" y="201.1" class="st22" width="95.3" height="21.7"/>
	<rect x="2450.8" y="228.6" class="st69" width="97.3" height="20.5"/>
	<rect x="2520.1" y="258.7" class="st54" width="95.3" height="21.8"/>
	<rect x="2520.1" y="289.2" class="st97" width="95.3" height="19.3"/>
	<rect x="2356.1" y="445.6" class="st0" width="284" height="1497.5"/>
	<text id="list" transform="matrix(1 0 0 1 2356.1284 463.7291)"><tspan x="0" y="0" class="st95 st96">Albanian - other - E</tspan><tspan x="0" y="28.8" class="st98 st96">Arabic - Asia</tspan><tspan x="0" y="57.6" class="st95 st96">Armenian - Asia</tspan><tspan x="0" y="86.4" class="st95 st96">Belarusian - Europe</tspan><tspan x="0" y="115.2" class="st98 st96">Bengali - Asia</tspan><tspan x="0" y="144" class="st95 st96">Bosnian -  E</tspan><tspan x="0" y="172.8" class="st95 st96">Bulgarian - E</tspan><tspan x="0" y="201.6" class="st98 st96">Croatian - E</tspan><tspan x="0" y="230.4" class="st98 st96">Czech - E</tspan><tspan x="0" y="259.2" class="st95 st96">Danish - E</tspan><tspan x="0" y="288" class="st95 st96">Dutch - E</tspan><tspan x="0" y="316.8" class="st95 st96">Estonian -E</tspan><tspan x="0" y="345.6" class="st95 st96">Finnish - E</tspan><tspan x="0" y="374.4" class="st95 st96">Georgian - E</tspan><tspan x="0" y="403.2" class="st98 st96">Gujarati - Asia</tspan><tspan x="0" y="432" class="st98 st96">Haitian - NA/caribbean</tspan><tspan x="0" y="460.8" class="st98 st96">Hebrew - Asia</tspan><tspan x="0" y="489.6" class="st98 st96">Hindi - Asia</tspan><tspan x="0" y="518.4" class="st98 st96">Hungarian - E</tspan><tspan x="0" y="547.2" class="st95 st96">Indonesian - Asia</tspan><tspan x="0" y="576" class="st98 st96">Italian - E</tspan><tspan x="0" y="604.8" class="st98 st96">Japanese - Asia</tspan><tspan x="0" y="633.6" class="st95 st96">Kurdish - Asia</tspan><tspan x="0" y="662.4" class="st98 st96">Latvian - E</tspan><tspan x="0" y="691.2" class="st98 st96">Lithuanian - E</tspan><tspan x="0" y="720" class="st98 st96">Malayalam - Asia</tspan><tspan x="0" y="748.8" class="st95 st96">Marathi - Asia</tspan><tspan x="0" y="777.6" class="st95 st96">Mongolian - Asia</tspan><tspan x="0" y="806.4" class="st95 st96">Nepali - Asia</tspan><tspan x="0" y="835.2" class="st98 st96">Norwegian - E</tspan><tspan x="0" y="864" class="st98 st96">Punjabi - Asia</tspan><tspan x="0" y="892.8" class="st98 st96">Persian - Asia</tspan><tspan x="0" y="921.6" class="st98 st96">Polish - E </tspan><tspan x="0" y="950.4" class="st98 st96">Portuguese - E</tspan><tspan x="0" y="979.2" class="st98 st96">Romanian - E</tspan><tspan x="0" y="1008" class="st98 st96">Serbian - E</tspan><tspan x="0" y="1036.8" class="st95 st96">Slovak - E</tspan><tspan x="0" y="1065.6" class="st95 st96">Slovenian - E</tspan><tspan x="0" y="1094.4" class="st95 st96">Swahili - Africa</tspan><tspan x="0" y="1123.2" class="st98 st96">Swedish - E</tspan><tspan x="0" y="1152" class="st98 st96">Tagalog - Asia</tspan><tspan x="0" y="1180.8" class="st95 st96">Tamil - Asia</tspan><tspan x="0" y="1209.6" class="st95 st96">Telugu - Asia</tspan><tspan x="0" y="1238.4" class="st98 st96">Thai - Asia</tspan><tspan x="0" y="1267.2" class="st95 st96">Tibetan - Asia </tspan><tspan x="0" y="1296" class="st98 st96">Turkish - Asia </tspan><tspan x="0" y="1324.8" class="st98 st96">Ukranian - E</tspan><tspan x="0" y="1353.6" class="st98 st96">Urdu - Asia </tspan><tspan x="0" y="1382.4" class="st98 st96">Vietnamese - Asia </tspan><tspan x="0" y="1411.2" class="st98 st96">Yiddish - E</tspan><tspan x="0" y="1440" class="st95 st96">Zulu - Africa </tspan></text>
	<rect x="1546.8" y="364.2" class="st0" width="284" height="1497.5"/>
	<text id="list_1_" transform="matrix(1 0 0 1 1546.8174 382.3118)"><tspan x="0" y="0" class="st95 st96">Albanian - other - E</tspan><tspan x="0" y="28.8" class="st98 st96">Arabic - Asia</tspan><tspan x="0" y="57.6" class="st95 st96">Armenian - Asia</tspan><tspan x="0" y="86.4" class="st95 st96">Belarusian - Europe</tspan><tspan x="0" y="115.2" class="st98 st96">Bengali - Asia</tspan><tspan x="0" y="144" class="st95 st96">Bosnian -  E</tspan><tspan x="0" y="172.8" class="st95 st96">Bulgarian - E</tspan><tspan x="0" y="201.6" class="st98 st96">Croatian - E</tspan><tspan x="0" y="230.4" class="st98 st96">Czech - E</tspan><tspan x="0" y="259.2" class="st95 st96">Danish - E</tspan><tspan x="0" y="288" class="st95 st96">Dutch - E</tspan><tspan x="0" y="316.8" class="st95 st96">Estonian -E</tspan><tspan x="0" y="345.6" class="st95 st96">Finnish - E</tspan><tspan x="0" y="374.4" class="st95 st96">Georgian - E</tspan><tspan x="0" y="403.2" class="st98 st96">Gujarati - Asia</tspan><tspan x="0" y="432" class="st98 st96">Haitian - NA/caribbean</tspan><tspan x="0" y="460.8" class="st98 st96">Hebrew - Asia</tspan><tspan x="0" y="489.6" class="st98 st96">Hindi - Asia</tspan><tspan x="0" y="518.4" class="st98 st96">Hungarian - E</tspan><tspan x="0" y="547.2" class="st95 st96">Indonesian - Asia</tspan><tspan x="0" y="576" class="st98 st96">Italian - E</tspan><tspan x="0" y="604.8" class="st98 st96">Japanese - Asia</tspan><tspan x="0" y="633.6" class="st95 st96">Kurdish - Asia</tspan><tspan x="0" y="662.4" class="st98 st96">Latvian - E</tspan><tspan x="0" y="691.2" class="st98 st96">Lithuanian - E</tspan><tspan x="0" y="720" class="st98 st96">Malayalam - Asia</tspan><tspan x="0" y="748.8" class="st95 st96">Marathi - Asia</tspan><tspan x="0" y="777.6" class="st95 st96">Mongolian - Asia</tspan><tspan x="0" y="806.4" class="st95 st96">Nepali - Asia</tspan><tspan x="0" y="835.2" class="st98 st96">Norwegian - E</tspan><tspan x="0" y="864" class="st98 st96">Punjabi - Asia</tspan><tspan x="0" y="892.8" class="st98 st96">Persian - Asia</tspan><tspan x="0" y="921.6" class="st98 st96">Polish - E </tspan><tspan x="0" y="950.4" class="st98 st96">Portuguese - E</tspan><tspan x="0" y="979.2" class="st98 st96">Romanian - E</tspan><tspan x="0" y="1008" class="st98 st96">Serbian - E</tspan><tspan x="0" y="1036.8" class="st95 st96">Slovak - E</tspan><tspan x="0" y="1065.6" class="st95 st96">Slovenian - E</tspan><tspan x="0" y="1094.4" class="st95 st96">Swahili - Africa</tspan><tspan x="0" y="1123.2" class="st98 st96">Swedish - E</tspan><tspan x="0" y="1152" class="st98 st96">Tagalog - Asia</tspan><tspan x="0" y="1180.8" class="st95 st96">Tamil - Asia</tspan><tspan x="0" y="1209.6" class="st95 st96">Telugu - Asia</tspan><tspan x="0" y="1238.4" class="st98 st96">Thai - Asia</tspan><tspan x="0" y="1267.2" class="st95 st96">Tibetan - Asia </tspan><tspan x="0" y="1296" class="st98 st96">Turkish - Asia </tspan><tspan x="0" y="1324.8" class="st98 st96">Ukranian - E</tspan><tspan x="0" y="1353.6" class="st98 st96">Urdu - Asia </tspan><tspan x="0" y="1382.4" class="st98 st96">Vietnamese - Asia </tspan><tspan x="0" y="1411.2" class="st98 st96">Yiddish - E</tspan><tspan x="0" y="1440" class="st95 st96">Zulu - Africa </tspan></text>
</g>
</svg>
