<?xml version="1.0" encoding="utf-8"?>
<!-- Generator: Adobe Illustrator 21.0.2, SVG Export Plug-In . SVG Version: 6.00 Build 0)  -->
<svg version="1.1" xmlns="http://www.w3.org/2000/svg" xmlns:xlink="http://www.w3.org/1999/xlink" x="0px" y="0px"
	 viewBox="0 0 3693.4 2478.2" style="enable-background:new 0 0 3693.4 2478.2;" xml:space="preserve">
<style type="text/css">
	.st0{opacity:0.62;fill:url(#SVGID_1_);}
	.st1{fill:#8C7C6B;stroke:#5A4E40;stroke-miterlimit:10;}
	.st2{fill:#E43317;stroke:#A90A18;stroke-miterlimit:10;}
	.st3{fill:#5EB2E0;stroke:#146E90;stroke-miterlimit:10;}
	.st4{fill:#F6DA1F;stroke:#D9B61F;stroke-miterlimit:10;}
	.st5{fill:#FBC15D;stroke:#C5762B;stroke-miterlimit:10;}
	.st6{fill:url(#SVGID_2_);stroke:#CC7A2E;stroke-miterlimit:10;}
	.st7{fill:url(#SVGID_3_);stroke:#CC7A2E;stroke-miterlimit:10;}
	.st8{fill:url(#SVGID_4_);stroke:#CC7A2E;stroke-miterlimit:10;}
	.st9{fill:#E8501F;stroke:#C51B1E;stroke-miterlimit:10;}
	.st10{fill:#B6D9EF;stroke:#6391A5;stroke-miterlimit:10;}
	.st11{fill:#ABC94D;stroke:#688614;stroke-miterlimit:10;}
	.st12{fill:#D1C4E0;stroke:#9883A4;stroke-miterlimit:10;}
	.st13{fill:url(#SVGID_5_);stroke:#CC7A2E;stroke-miterlimit:10;}
	.st14{fill:url(#SVGID_6_);stroke:#CC7A2E;stroke-miterlimit:10;}
	.st15{fill:url(#SVGID_7_);stroke:#CC7A2E;stroke-miterlimit:10;}
	.st16{fill:url(#SVGID_8_);stroke:#CC7A2E;stroke-miterlimit:10;}
	.st17{fill:url(#SVGID_9_);stroke:#CC7A2E;stroke-miterlimit:10;}
	.st18{fill:url(#SVGID_10_);stroke:#CC7A2E;stroke-miterlimit:10;}
	.st19{opacity:0.51;}
	.st20{fill:none;stroke:#000000;stroke-miterlimit:10;}
</style>
<g id="bookcenter">
	<g id="L51Gll_1_">
		
			<image style="overflow:visible;" width="800" height="600" id="L51Gll" xlink:href="7C9C0A4545C22DC6.jpg"  transform="matrix(1.0991 0 0 1.0991 -1420.9211 123.4423)">
		</image>
	</g>
	<g id="UrIhKk_1_">
		
			<image style="overflow:visible;" width="1400" height="786" id="UrIhKk" xlink:href="7C9C0A4545C22DC9.jpg"  transform="matrix(0.9563 0 0 0.9563 -1650.7079 845.3873)">
		</image>
	</g>
	<rect x="-2499.2" y="114" style="fill:none;" width="1083.1" height="600.1"/>
	<text transform="matrix(1 0 0 1 -2499.2495 165.1307)"><tspan x="0" y="0" style="font-family:'MyriadPro-Regular'; font-size:72px;">LANGUAGES/ shelf with some iden</tspan><tspan x="1039.6" y="0" style="font-family:'MyriadPro-Regular'; font-size:72px;">-</tspan><tspan x="0" y="86.4" style="font-family:'MyriadPro-Regular'; font-size:72px;">tifying thing</tspan></text>
	<rect x="-2095.6" y="997" style="fill:none;" width="1083.1" height="600.1"/>
	<rect x="-1506.2" y="1803.7" style="fill:none;" width="1083.1" height="600.1"/>
	<text transform="matrix(1 0 0 1 -1506.1812 1854.8135)" style="font-family:'MyriadPro-Regular'; font-size:72px;">LANGUAGE collection</text>
</g>
<g id="shadow">
	<radialGradient id="SVGID_1_" cx="-2708.4666" cy="2326.0103" r="433.4059" gradientUnits="userSpaceOnUse">
		<stop  offset="0" style="stop-color:#000000"/>
		<stop  offset="1" style="stop-color:#D8D8D8"/>
	</radialGradient>
	<ellipse class="st0" cx="-2708.5" cy="2326" rx="612.9" ry="8.8"/>
</g>
<g id="Layer_4">
	<g>
		<rect x="-2859.2" y="1758.7" class="st1" width="65.5" height="562.4"/>
		<polygon class="st1" points="-2859.2,1758.7 -2868.5,1761.3 -2868.5,2318.6 -2859.2,2321.2 		"/>
		<polygon class="st1" points="-2793.8,1758.7 -2784.5,1761.3 -2784.5,2318.6 -2793.8,2321.2 		"/>
	</g>
	<g>
		<rect x="-2914.5" y="1832.4" class="st2" width="40.6" height="488.7"/>
		<polygon class="st2" points="-2914.5,1832.4 -2920.2,1834.6 -2920.2,2318.9 -2914.5,2321.2 		"/>
		<polygon class="st2" points="-2873.8,1832.4 -2868.1,1834.6 -2868.1,2318.9 -2873.8,2321.2 		"/>
	</g>
	<g>
		<rect x="-3039.8" y="1784.8" class="st3" width="104.7" height="536.4"/>
		<polygon class="st3" points="-3039.8,1784.8 -3054.6,1787.2 -3054.6,2318.7 -3039.8,2321.2 		"/>
		<polygon class="st3" points="-2935.1,1784.8 -2920.2,1787.2 -2920.2,2318.7 -2935.1,2321.2 		"/>
	</g>
	<g>
		<rect x="-3096" y="1886.3" class="st4" width="36.2" height="434.9"/>
		<polygon class="st4" points="-3096,1886.3 -3101.1,1888.3 -3101.1,2319.2 -3096,2321.2 		"/>
		<polygon class="st4" points="-3059.7,1886.3 -3054.6,1888.3 -3054.6,2319.2 -3059.7,2321.2 		"/>
	</g>
	<g>
		<rect x="-2774.1" y="1704.9" class="st5" width="73.1" height="616.3"/>
		<polygon class="st5" points="-2774.1,1704.9 -2784.5,1707.7 -2784.5,2318.4 -2774.1,2321.2 		"/>
		<polygon class="st5" points="-2701,1704.9 -2690.6,1707.7 -2690.6,2318.4 -2701,2321.2 		"/>
	</g>
	<g>
		<linearGradient id="SVGID_2_" gradientUnits="userSpaceOnUse" x1="-3299.7317" y1="2053.1804" x2="-3085.7441" y2="2053.1804">
			<stop  offset="5.864104e-04" style="stop-color:#FFFFFF"/>
			<stop  offset="0.524" style="stop-color:#FEC15D"/>
			<stop  offset="1" style="stop-color:#FFFFFF"/>
		</linearGradient>
		<polygon class="st6" points="-3239.1,2321.4 -3299.7,2303.5 -3146.3,1785 -3085.7,1802.9 		"/>
		<linearGradient id="SVGID_3_" gradientUnits="userSpaceOnUse" x1="-3307.625" y1="2044.1276" x2="-3146.3291" y2="2044.1276">
			<stop  offset="5.864104e-04" style="stop-color:#FFFFFF"/>
			<stop  offset="0.524" style="stop-color:#FEC15D"/>
			<stop  offset="1" style="stop-color:#FFFFFF"/>
		</linearGradient>
		<polygon class="st7" points="-3146.3,1785 -3155.6,1784.8 -3307.6,2298.6 -3299.7,2303.5 		"/>
		<linearGradient id="SVGID_4_" gradientUnits="userSpaceOnUse" x1="-3239.1467" y1="2062.2334" x2="-3077.8508" y2="2062.2334">
			<stop  offset="5.864104e-04" style="stop-color:#FFFFFF"/>
			<stop  offset="0.524" style="stop-color:#FEC15D"/>
			<stop  offset="1" style="stop-color:#FFFFFF"/>
		</linearGradient>
		<polygon class="st8" points="-3085.7,1802.9 -3077.9,1807.8 -3229.9,2321.6 -3239.1,2321.4 		"/>
	</g>
	<g>
		<rect x="-2469.8" y="1832.4" class="st9" width="95.1" height="488.7"/>
		<polygon class="st9" points="-2469.8,1832.4 -2483.2,1834.6 -2483.2,2318.9 -2469.8,2321.2 		"/>
		<polygon class="st9" points="-2374.7,1832.4 -2361.2,1834.6 -2361.2,2318.9 -2374.7,2321.2 		"/>
	</g>
	<g>
		<rect x="-2560.8" y="1748.2" class="st10" width="67.9" height="572.9"/>
		<polygon class="st10" points="-2560.8,1748.2 -2570.4,1750.8 -2570.4,2318.6 -2560.8,2321.2 		"/>
		<polygon class="st10" points="-2492.9,1748.2 -2483.2,1750.8 -2483.2,2318.6 -2492.9,2321.2 		"/>
	</g>
	<g>
		<rect x="-2677.4" y="1832.4" class="st11" width="93.7" height="489.1"/>
		<polygon class="st11" points="-2677.4,1832.4 -2690.6,1834.6 -2690.6,2319.3 -2677.4,2321.6 		"/>
		<polygon class="st11" points="-2583.7,1832.4 -2570.4,1834.6 -2570.4,2319.3 -2583.7,2321.6 		"/>
	</g>
	<g>
		
			<rect x="-2285.5" y="1783.7" transform="matrix(-0.9589 0.2837 -0.2837 -0.9589 -3832.4331 4663.1016)" class="st12" width="63.2" height="540.7"/>
		<polygon class="st12" points="-2300.3,1785.8 -2291,1785.6 -2139,2299.4 -2146.9,2304.3 		"/>
		<polygon class="st12" points="-2360.9,1803.7 -2368.8,1808.6 -2216.8,2322.4 -2207.5,2322.2 		"/>
	</g>
	<g>
		<rect x="-2126.4" y="1753.5" class="st12" width="67.9" height="572.9"/>
		<polygon class="st12" points="-2126.4,1753.5 -2136,1756.1 -2136,2323.8 -2126.4,2326.4 		"/>
		<polygon class="st12" points="-2058.5,1753.5 -2048.9,1756.1 -2048.9,2323.8 -2058.5,2326.4 		"/>
	</g>
	<g>
		<rect x="-2038.1" y="1753.5" class="st3" width="67.9" height="572.9"/>
		<polygon class="st3" points="-2038.1,1753.5 -2047.7,1756.1 -2047.7,2323.8 -2038.1,2326.4 		"/>
		<polygon class="st3" points="-1970.2,1753.5 -1960.5,1756.1 -1960.5,2323.8 -1970.2,2326.4 		"/>
	</g>
	<g>
		<rect x="-1949.7" y="1754" class="st10" width="67.9" height="572.9"/>
		<polygon class="st10" points="-1949.7,1754 -1959.3,1756.6 -1959.3,2324.3 -1949.7,2326.9 		"/>
		<polygon class="st10" points="-1881.8,1754 -1872.2,1756.6 -1872.2,2324.3 -1881.8,2326.9 		"/>
	</g>
	<g>
		<rect x="-1861.4" y="1755.5" class="st9" width="67.9" height="572.9"/>
		<polygon class="st9" points="-1861.4,1755.5 -1871,1758.1 -1871,2325.8 -1861.4,2328.4 		"/>
		<polygon class="st9" points="-1793.5,1755.5 -1783.8,1758.1 -1783.8,2325.8 -1793.5,2328.4 		"/>
	</g>
	<g>
		<rect x="-1773" y="1755.5" class="st11" width="67.9" height="572.9"/>
		<polygon class="st11" points="-1773,1755.5 -1782.6,1758.1 -1782.6,2325.8 -1773,2328.4 		"/>
		<polygon class="st11" points="-1705.1,1755.5 -1695.5,1758.1 -1695.5,2325.8 -1705.1,2328.4 		"/>
	</g>
	<g>
		<rect x="-1684.7" y="1756" class="st5" width="67.9" height="572.9"/>
		<polygon class="st5" points="-1684.7,1756 -1694.3,1758.6 -1694.3,2326.3 -1684.7,2328.9 		"/>
		<polygon class="st5" points="-1616.8,1756 -1607.1,1758.6 -1607.1,2326.3 -1616.8,2328.9 		"/>
	</g>
	<g>
		<rect x="-3198" y="144.3" class="st12" width="67.9" height="572.9"/>
		<polygon class="st12" points="-3198,144.3 -3207.7,146.9 -3207.7,714.6 -3198,717.2 		"/>
		<polygon class="st12" points="-3130.1,144.3 -3120.5,146.9 -3120.5,714.6 -3130.1,717.2 		"/>
	</g>
	<g>
		<rect x="-3109.7" y="144.3" class="st3" width="67.9" height="572.9"/>
		<polygon class="st3" points="-3109.7,144.3 -3119.3,146.9 -3119.3,714.6 -3109.7,717.2 		"/>
		<polygon class="st3" points="-3041.8,144.3 -3032.1,146.9 -3032.1,714.6 -3041.8,717.2 		"/>
	</g>
	<g>
		<rect x="-3021.3" y="144.8" class="st10" width="67.9" height="572.9"/>
		<polygon class="st10" points="-3021.3,144.8 -3031,147.4 -3031,715.1 -3021.3,717.7 		"/>
		<polygon class="st10" points="-2953.4,144.8 -2943.8,147.4 -2943.8,715.1 -2953.4,717.7 		"/>
	</g>
	<g>
		<rect x="-2933" y="146.3" class="st9" width="67.9" height="572.9"/>
		<polygon class="st9" points="-2933,146.3 -2942.6,148.9 -2942.6,716.6 -2933,719.2 		"/>
		<polygon class="st9" points="-2865.1,146.3 -2855.4,148.9 -2855.4,716.6 -2865.1,719.2 		"/>
	</g>
	<g>
		<rect x="-2844.6" y="146.3" class="st11" width="67.9" height="572.9"/>
		<polygon class="st11" points="-2844.6,146.3 -2854.3,148.9 -2854.3,716.6 -2844.6,719.2 		"/>
		<polygon class="st11" points="-2776.7,146.3 -2767.1,148.9 -2767.1,716.6 -2776.7,719.2 		"/>
	</g>
	<g>
		<rect x="-2756.3" y="146.8" class="st5" width="67.9" height="572.9"/>
		<polygon class="st5" points="-2756.3,146.8 -2765.9,149.4 -2765.9,717.1 -2756.3,719.7 		"/>
		<polygon class="st5" points="-2688.4,146.8 -2678.7,149.4 -2678.7,717.1 -2688.4,719.7 		"/>
	</g>
	<g>
		<linearGradient id="SVGID_5_" gradientUnits="userSpaceOnUse" x1="-3286.4695" y1="430.7789" x2="-3218.5596" y2="430.7789">
			<stop  offset="0" style="stop-color:#FEC15D"/>
			<stop  offset="6.708143e-02" style="stop-color:#FEC669"/>
			<stop  offset="0.1895" style="stop-color:#FED28A"/>
			<stop  offset="0.3522" style="stop-color:#FFE6BF"/>
			<stop  offset="0.4932" style="stop-color:#FFFAF2"/>
			<stop  offset="0.5786" style="stop-color:#FFEDD0"/>
			<stop  offset="0.7157" style="stop-color:#FEDBA0"/>
			<stop  offset="0.8367" style="stop-color:#FECD7D"/>
			<stop  offset="0.9356" style="stop-color:#FEC568"/>
			<stop  offset="1" style="stop-color:#FEC260"/>
		</linearGradient>
		<rect x="-3286.5" y="144.3" class="st13" width="67.9" height="572.9"/>
		<linearGradient id="SVGID_6_" gradientUnits="userSpaceOnUse" x1="-3296.1003" y1="430.7789" x2="-3286.4695" y2="430.7789">
			<stop  offset="0" style="stop-color:#FEC15D"/>
			<stop  offset="6.708143e-02" style="stop-color:#FEC669"/>
			<stop  offset="0.1895" style="stop-color:#FED28A"/>
			<stop  offset="0.3522" style="stop-color:#FFE6BF"/>
			<stop  offset="0.4932" style="stop-color:#FFFAF2"/>
			<stop  offset="0.5786" style="stop-color:#FFEDD0"/>
			<stop  offset="0.7157" style="stop-color:#FEDBA0"/>
			<stop  offset="0.8367" style="stop-color:#FECD7D"/>
			<stop  offset="0.9356" style="stop-color:#FEC568"/>
			<stop  offset="1" style="stop-color:#FEC260"/>
		</linearGradient>
		<polygon class="st14" points="-3286.5,144.3 -3296.1,146.9 -3296.1,714.6 -3286.5,717.2 		"/>
		<linearGradient id="SVGID_7_" gradientUnits="userSpaceOnUse" x1="-3218.5596" y1="430.7789" x2="-3208.9287" y2="430.7789">
			<stop  offset="0" style="stop-color:#FEC15D"/>
			<stop  offset="6.708143e-02" style="stop-color:#FEC669"/>
			<stop  offset="0.1895" style="stop-color:#FED28A"/>
			<stop  offset="0.3522" style="stop-color:#FFE6BF"/>
			<stop  offset="0.4932" style="stop-color:#FFFAF2"/>
			<stop  offset="0.5786" style="stop-color:#FFEDD0"/>
			<stop  offset="0.7157" style="stop-color:#FEDBA0"/>
			<stop  offset="0.8367" style="stop-color:#FECD7D"/>
			<stop  offset="0.9356" style="stop-color:#FEC568"/>
			<stop  offset="1" style="stop-color:#FEC260"/>
		</linearGradient>
		<polygon class="st15" points="-3218.6,144.3 -3208.9,146.9 -3208.9,714.6 -3218.6,717.2 		"/>
	</g>
	<g>
		<rect x="-2677.1" y="964.6" class="st12" width="67.9" height="572.9"/>
		<polygon class="st12" points="-2677.1,964.6 -2686.7,967.2 -2686.7,1534.9 -2677.1,1537.5 		"/>
		<polygon class="st12" points="-2609.1,964.6 -2599.5,967.2 -2599.5,1534.9 -2609.1,1537.5 		"/>
	</g>
	<g>
		<rect x="-2588.7" y="964.6" class="st3" width="67.9" height="572.9"/>
		<polygon class="st3" points="-2588.7,964.6 -2598.3,967.2 -2598.3,1534.9 -2588.7,1537.5 		"/>
		<polygon class="st3" points="-2520.8,964.6 -2511.2,967.2 -2511.2,1534.9 -2520.8,1537.5 		"/>
	</g>
	<g>
		<rect x="-2500.4" y="965.1" class="st10" width="67.9" height="572.9"/>
		<polygon class="st10" points="-2500.4,965.1 -2510,967.7 -2510,1535.4 -2500.4,1538 		"/>
		<polygon class="st10" points="-2432.4,965.1 -2422.8,967.7 -2422.8,1535.4 -2432.4,1538 		"/>
	</g>
	<g>
		<rect x="-2412" y="966.6" class="st9" width="67.9" height="572.9"/>
		<polygon class="st9" points="-2412,966.6 -2421.6,969.2 -2421.6,1536.9 -2412,1539.5 		"/>
		<polygon class="st9" points="-2344.1,966.6 -2334.5,969.2 -2334.5,1536.9 -2344.1,1539.5 		"/>
	</g>
	<g>
		<rect x="-2323.6" y="966.6" class="st11" width="67.9" height="572.9"/>
		<polygon class="st11" points="-2323.6,966.6 -2333.3,969.2 -2333.3,1536.9 -2323.6,1539.5 		"/>
		<polygon class="st11" points="-2255.7,966.6 -2246.1,969.2 -2246.1,1536.9 -2255.7,1539.5 		"/>
	</g>
	<g>
		<rect x="-2235.3" y="967.1" class="st5" width="67.9" height="572.9"/>
		<polygon class="st5" points="-2235.3,967.1 -2244.9,969.7 -2244.9,1537.4 -2235.3,1540 		"/>
		<polygon class="st5" points="-2167.4,967.1 -2157.8,969.7 -2157.8,1537.4 -2167.4,1540 		"/>
	</g>
	<g>
		<linearGradient id="SVGID_8_" gradientUnits="userSpaceOnUse" x1="-3286.4253" y1="1251.022" x2="-3218.5154" y2="1251.022">
			<stop  offset="0" style="stop-color:#FEC15D"/>
			<stop  offset="6.708143e-02" style="stop-color:#FEC669"/>
			<stop  offset="0.1895" style="stop-color:#FED28A"/>
			<stop  offset="0.3522" style="stop-color:#FFE6BF"/>
			<stop  offset="0.4932" style="stop-color:#FFFAF2"/>
			<stop  offset="0.5786" style="stop-color:#FFEDD0"/>
			<stop  offset="0.7157" style="stop-color:#FEDBA0"/>
			<stop  offset="0.8367" style="stop-color:#FECD7D"/>
			<stop  offset="0.9356" style="stop-color:#FEC568"/>
			<stop  offset="1" style="stop-color:#FEC260"/>
		</linearGradient>
		<rect x="-3286.4" y="964.6" class="st16" width="67.9" height="572.9"/>
		<linearGradient id="SVGID_9_" gradientUnits="userSpaceOnUse" x1="-3296.0562" y1="1251.022" x2="-3286.4253" y2="1251.022">
			<stop  offset="0" style="stop-color:#FEC15D"/>
			<stop  offset="6.708143e-02" style="stop-color:#FEC669"/>
			<stop  offset="0.1895" style="stop-color:#FED28A"/>
			<stop  offset="0.3522" style="stop-color:#FFE6BF"/>
			<stop  offset="0.4932" style="stop-color:#FFFAF2"/>
			<stop  offset="0.5786" style="stop-color:#FFEDD0"/>
			<stop  offset="0.7157" style="stop-color:#FEDBA0"/>
			<stop  offset="0.8367" style="stop-color:#FECD7D"/>
			<stop  offset="0.9356" style="stop-color:#FEC568"/>
			<stop  offset="1" style="stop-color:#FEC260"/>
		</linearGradient>
		<polygon class="st17" points="-3286.4,964.6 -3296.1,967.2 -3296.1,1534.9 -3286.4,1537.5 		"/>
		<linearGradient id="SVGID_10_" gradientUnits="userSpaceOnUse" x1="-3218.5154" y1="1251.022" x2="-3208.8845" y2="1251.022">
			<stop  offset="0" style="stop-color:#FEC15D"/>
			<stop  offset="6.708143e-02" style="stop-color:#FEC669"/>
			<stop  offset="0.1895" style="stop-color:#FED28A"/>
			<stop  offset="0.3522" style="stop-color:#FFE6BF"/>
			<stop  offset="0.4932" style="stop-color:#FFFAF2"/>
			<stop  offset="0.5786" style="stop-color:#FFEDD0"/>
			<stop  offset="0.7157" style="stop-color:#FEDBA0"/>
			<stop  offset="0.8367" style="stop-color:#FECD7D"/>
			<stop  offset="0.9356" style="stop-color:#FEC568"/>
			<stop  offset="1" style="stop-color:#FEC260"/>
		</linearGradient>
		<polygon class="st18" points="-3218.5,964.6 -3208.9,967.2 -3208.9,1534.9 -3218.5,1537.5 		"/>
	</g>
	<g id="oGv8qC.tif">
		
			<image style="overflow:visible;" width="1343" height="1716" id="Layer_0_1_" xlink:href="7C9C0A4545C22DC1.png"  transform="matrix(1 0 0 1 1406 340)">
		</image>
	</g>
	<g id="_x35_cXCRt.tif" class="st19">
		
			<image style="overflow:visible;" width="1300" height="1300" id="Layer_0_2_" xlink:href="7C9C0A4545C22DC7.png"  transform="matrix(1 0 0 1 1593.0165 424.9877)">
		</image>
	</g>
</g>
<g id="Layer_5">
	<line class="st20" x1="1872.2" y1="488.7" x2="3018.1" y2="1150.2"/>
	<line class="st20" x1="1707.7" y1="583.7" x2="2853.6" y2="1245.2"/>
	<line class="st20" x1="1872.2" y1="488.7" x2="1707.7" y2="583.7"/>
	<line class="st20" x1="3018.1" y1="1150.2" x2="2853.6" y2="1245.2"/>
	<line class="st20" x1="3018.1" y1="2114.5" x2="2853.6" y2="2209.5"/>
	<line class="st20" x1="2853.6" y1="2209.5" x2="2853.6" y2="1245.2"/>
	<line class="st20" x1="3018.1" y1="1150.2" x2="3018.1" y2="2114.5"/>
	<line class="st20" x1="1707.7" y1="1547.9" x2="2853.6" y2="2209.5"/>
	<line class="st20" x1="1707.7" y1="1547.9" x2="1707.7" y2="583.7"/>
	<line class="st20" x1="1707.7" y1="610.9" x2="2853.6" y2="1272.5"/>
	<line class="st20" x1="1707.7" y1="1523.7" x2="2853.6" y2="2185.2"/>
</g>
</svg>
