<?xml version="1.0" encoding="utf-8"?>
<!-- Generator: Adobe Illustrator 21.0.2, SVG Export Plug-In . SVG Version: 6.00 Build 0)  -->
<svg version="1.1" xmlns="http://www.w3.org/2000/svg" xmlns:xlink="http://www.w3.org/1999/xlink" x="0px" y="0px"
	 viewBox="0 0 1366 768" style="enable-background:new 0 0 1366 768;" xml:space="preserve">
<style type="text/css">
	.st0{fill:#FFFFFF;}
	.st1{fill:#FFFFFF;stroke:#000000;stroke-miterlimit:10;}
</style>
<g id="Layer_1">
	<g>
		<rect x="162.5" y="106.5" class="st0" width="60" height="387"/>
		<path d="M222,107v386h-59V107H222 M223,106h-61v388h61V106L223,106z"/>
	</g>
	<line class="st1" x1="173.5" y1="138.5" x2="211.5" y2="138.5"/>
	<line class="st1" x1="173" y1="130.5" x2="211" y2="130.5"/>
	<line class="st1" x1="173.5" y1="146.5" x2="211.5" y2="146.5"/>
</g>
<g id="interior1">
	<g>
		<rect x="467.5" y="106.5" class="st0" width="60" height="387"/>
		<path d="M527,107v386h-59V107H527 M528,106h-61v388h61V106L528,106z"/>
	</g>
	<g>
		<rect x="406.5" y="106.5" class="st0" width="60" height="387"/>
		<path d="M466,107v386h-59V107H466 M467,106h-61v388h61V106L467,106z"/>
	</g>
	<g>
		<rect x="345.5" y="106.5" class="st0" width="60" height="387"/>
		<path d="M405,107v386h-59V107H405 M406,106h-61v388h61V106L406,106z"/>
	</g>
	<g>
		<rect x="284.5" y="106.5" class="st0" width="60" height="387"/>
		<path d="M344,107v386h-59V107H344 M345,106h-61v388h61V106L345,106z"/>
	</g>
	<g>
		<rect x="223.5" y="106.5" class="st0" width="60" height="387"/>
		<path d="M283,107v386h-59V107H283 M284,106h-61v388h61V106L284,106z"/>
	</g>
</g>
<g id="bookends">
	<g>
		<rect x="85.5" y="93.5" class="st0" width="76" height="413"/>
		<path d="M161,94v412H86V94H161 M162,93H85v414h77V93L162,93z"/>
	</g>
	<g>
		<rect x="223.5" y="93.5" class="st0" width="76" height="413"/>
		<path d="M299,94v412h-75V94H299 M300,93h-77v414h77V93L300,93z"/>
	</g>
</g>
</svg>
