<svg xmlns="http://www.w3.org/2000/svg" viewBox="0 0 697.37 639.66"><title>lowrisebuilding</title><g id="outside"><line x1="697.12" y1="166.92" x2="369.93" y2="355.82" style="fill:none;stroke:#000;stroke-linecap:round;stroke-linejoin:round;stroke-width:0.5px"/><line x1="408.44" y1="0.25" x2="697.12" y2="166.92" style="fill:none;stroke:#000;stroke-linecap:round;stroke-linejoin:round;stroke-width:0.5px"/><line x1="81.26" y1="189.15" x2="408.44" y2="0.25" style="fill:none;stroke:#000;stroke-linecap:round;stroke-linejoin:round;stroke-width:0.5px"/><line x1="37.06" y1="175.29" x2="81.26" y2="189.15" style="fill:none;stroke:#000;stroke-linecap:round;stroke-linejoin:round;stroke-width:0.5px"/><line x1="369.93" y1="355.82" x2="325.73" y2="341.96" style="fill:none;stroke:#000;stroke-linecap:round;stroke-linejoin:round;stroke-width:0.5px"/><line x1="325.73" y1="341.96" x2="288.93" y2="394.11" style="fill:none;stroke:#000;stroke-linecap:round;stroke-linejoin:round;stroke-width:0.5px"/><line x1="37.06" y1="175.29" x2="325.73" y2="341.96" style="fill:none;stroke:#000;stroke-linecap:round;stroke-linejoin:round;stroke-width:0.5px"/><polyline points="37.06 175.29 0.25 227.44 0.25 472.83 288.78 639.41 696.8 403.84" style="fill:none;stroke:#000;stroke-linecap:round;stroke-linejoin:round;stroke-width:0.5px"/><line x1="108.55" y1="289.9" x2="108.39" y2="224.48" style="fill:none;stroke:#000;stroke-linecap:round;stroke-linejoin:round;stroke-width:0.5px"/><line x1="108.39" y1="224.48" x2="42.64" y2="251.85" style="fill:none;stroke:#000;stroke-linecap:round;stroke-linejoin:round;stroke-width:0.5px"/><line x1="75.59" y1="243.41" x2="108.39" y2="224.48" style="fill:none;stroke:#000;stroke-linecap:round;stroke-linejoin:round;stroke-width:0.5px"/><line x1="246.37" y1="304.15" x2="180.63" y2="331.51" style="fill:none;stroke:#000;stroke-linecap:round;stroke-linejoin:round;stroke-width:0.5px"/><line x1="246.37" y1="304.15" x2="213.58" y2="323.08" style="fill:none;stroke:#000;stroke-linecap:round;stroke-linejoin:round;stroke-width:0.5px"/><line x1="246.54" y1="369.57" x2="246.37" y2="304.15" style="fill:none;stroke:#000;stroke-linecap:round;stroke-linejoin:round;stroke-width:0.5px"/><line x1="81.26" y1="189.15" x2="369.93" y2="355.82" style="fill:none;stroke:#000;stroke-linecap:round;stroke-linejoin:round;stroke-width:0.5px"/><line x1="696.8" y1="166.92" x2="696.8" y2="403.84" style="fill:none;stroke:#000;stroke-linecap:round;stroke-linejoin:round;stroke-width:0.5px"/></g><g id="top"><polyline points="31.3 249.31 6.63 263.56 6.63 235.07 31.3 249.31 141.99 313.29 142.1 313.29 142.1 341.77 6.63 263.56" style="fill:#fff;stroke:#000;stroke-linecap:round;stroke-linejoin:round;stroke-width:0.25px"/><polyline points="170.62 330.96 146.27 345.02 146.44 345.02 146.44 316.53 170.62 330.96 281.8 394.75 281.91 394.75 281.91 423.23 146.44 345.02" style="fill:#fff;stroke:#000;stroke-linecap:round;stroke-linejoin:round;stroke-width:0.25px"/></g><g id="lang2"><polyline points="146.39 550.62 281.86 628.83 281.86 536.68 281.63 536.68 225.9 504.58 146.27 458.54 146.27 550.62 146.27 550.55 225.9 504.58" style="fill:#3815ff;opacity:0.75"/><polyline points="146.27 452.77 281.74 530.99 281.86 530.99 281.86 428.46 281.63 428.33 234.9 401.48" style="fill:#3815ff;opacity:0.75"/><polygon points="234.9 401.48 146.16 452.71 146.27 452.77 146.27 350.18 234.9 401.48" style="fill:#3815ff;opacity:0.75"/></g><g id="lang1"><polyline points="6.74 372.22 142.21 450.43 142.21 347.84 142.1 347.77 95.59 320.92" style="fill:#3815ff;opacity:0.75"/><polyline points="86.25 424.22 142.1 456.13 142.21 456.19 142.21 548.27 142.32 548.27 6.86 470.06" style="fill:#3815ff;opacity:0.75"/><polygon points="95.59 320.92 6.74 372.22 6.74 269.62 95.59 320.92" style="fill:#3815ff;opacity:0.75"/><polygon points="86.25 424.22 6.86 470.06 6.74 470.06 6.74 377.98 86.25 424.22" style="fill:#3815ff;opacity:0.75"/></g><g id="line"><line x1="6.74" y1="372.22" x2="95.59" y2="320.92" style="fill:none;stroke:#000494;stroke-miterlimit:10;stroke-width:0.5px"/><line x1="146.27" y1="452.77" x2="234.9" y2="401.48" style="fill:none;stroke:#000494;stroke-miterlimit:10;stroke-width:0.5px"/><line x1="146.27" y1="550.55" x2="225.9" y2="504.58" style="fill:none;stroke:#000494;stroke-miterlimit:10;stroke-width:0.5px"/><line x1="6.85" y1="470.06" x2="86.25" y2="424.22" style="fill:none;stroke:#000494;stroke-miterlimit:10;stroke-width:0.5px"/></g><g id="sectioncut"><path d="M68.53,237.19V482.58L357.06,649.16l.14-245.3Zm6.38,7.63L210.37,323v28.48L74.9,273.31Zm.11,235V387.73l135.36,78.15.11,92.14Zm135.47-19.63L75,382,74.9,279.31l135.58,78.28Zm139.64,178.4L214.55,560.3V468.16l135.58,78.28ZM214.44,462.46l.11-102.53,135.36,78.15.23,102.66ZM350.19,433,214.55,354.77l.17-28.48L350.19,404.5Z" transform="translate(-68.28 -9.75)"/><polyline points="180.63 331.51 213.58 323.08 246.54 369.57"/><polyline points="108.55 289.9 75.59 243.41 42.64 251.85"/></g></svg>